<svg xmlns="http://www.w3.org/2000/svg" viewBox="0 0 750 400">
  <defs>
    <linearGradient id="lossGrad" x1="0%" y1="0%" x2="100%" y2="100%">
      <stop offset="0%" style="stop-color:#ef4444"/>
      <stop offset="100%" style="stop-color:#dc2626"/>
    </linearGradient>
    <filter id="shadow" x="-5%" y="-5%" width="110%" height="115%">
      <feDropShadow dx="0" dy="4" stdDeviation="6" flood-opacity="0.12"/>
    </filter>
  </defs>
  
  <rect width="100%" height="100%" fill="#0f172a"/>
  
  <g filter="url(#shadow)">
    <rect x="200" y="20" width="350" height="50" rx="12" fill="url(#lossGrad)"/>
    <text x="375" y="52" text-anchor="middle" font-family="Segoe UI, sans-serif" font-size="20" font-weight="bold" fill="#f8fafc">📉 LTR Loss Functions</text>
  </g>
  
  <!-- Pointwise -->
  <g filter="url(#shadow)">
    <rect x="40" y="95" width="210" height="280" rx="12" fill="#0f172a"/>
    <rect x="40" y="95" width="210" height="40" rx="12 12 0 0" fill="#3b82f6"/>
    <text x="145" y="122" text-anchor="middle" font-family="Segoe UI, sans-serif" font-size="14" font-weight="bold" fill="#f8fafc">Pointwise Loss</text>
    
    <text x="60" y="160" font-family="Segoe UI, sans-serif" font-size="12" font-weight="bold" fill="#60a5fa">Binary Cross-Entropy</text>
    <rect x="55" y="170" width="180" height="30" rx="4" fill="#0f172a"/>
    <text x="145" y="190" text-anchor="middle" font-family="monospace" font-size="10" fill="#94a3b8">-[y·log(p) + (1-y)·log(1-p)]</text>
    
    <text x="60" y="225" font-family="Segoe UI, sans-serif" font-size="12" font-weight="bold" fill="#60a5fa">MSE (Regression)</text>
    <rect x="55" y="235" width="180" height="30" rx="4" fill="#0f172a"/>
    <text x="145" y="255" text-anchor="middle" font-family="monospace" font-size="10" fill="#94a3b8">(y - ŷ)²</text>
    
    <text x="60" y="290" font-family="Segoe UI, sans-serif" font-size="11" font-weight="bold" fill="#fbbf24">Pros:</text>
    <text x="60" y="308" font-family="Segoe UI, sans-serif" font-size="10" fill="#94a3b8">• Simple to implement</text>
    <text x="60" y="323" font-family="Segoe UI, sans-serif" font-size="10" fill="#94a3b8">• Fast training</text>
    
    <text x="60" y="345" font-family="Segoe UI, sans-serif" font-size="11" font-weight="bold" fill="#f87171">Cons:</text>
    <text x="60" y="363" font-family="Segoe UI, sans-serif" font-size="10" fill="#94a3b8">• Ignores relative order</text>
  </g>
  
  <!-- Pairwise -->
  <g filter="url(#shadow)">
    <rect x="270" y="95" width="210" height="280" rx="12" fill="#0f172a"/>
    <rect x="270" y="95" width="210" height="40" rx="12 12 0 0" fill="#10b981"/>
    <text x="375" y="122" text-anchor="middle" font-family="Segoe UI, sans-serif" font-size="14" font-weight="bold" fill="#f8fafc">Pairwise Loss</text>
    
    <text x="290" y="160" font-family="Segoe UI, sans-serif" font-size="12" font-weight="bold" fill="#34d399">RankNet Loss</text>
    <rect x="285" y="170" width="180" height="30" rx="4" fill="#0f172a"/>
    <text x="375" y="190" text-anchor="middle" font-family="monospace" font-size="10" fill="#94a3b8">log(1 + e^(-σ(sᵢ - sⱼ)))</text>
    
    <text x="290" y="225" font-family="Segoe UI, sans-serif" font-size="12" font-weight="bold" fill="#34d399">LambdaRank</text>
    <rect x="285" y="235" width="180" height="30" rx="4" fill="#0f172a"/>
    <text x="375" y="255" text-anchor="middle" font-family="monospace" font-size="10" fill="#94a3b8">|ΔNDCG| × RankNet</text>
    
    <text x="290" y="290" font-family="Segoe UI, sans-serif" font-size="11" font-weight="bold" fill="#fbbf24">Pros:</text>
    <text x="290" y="308" font-family="Segoe UI, sans-serif" font-size="10" fill="#94a3b8">• Focuses on ordering</text>
    <text x="290" y="323" font-family="Segoe UI, sans-serif" font-size="10" fill="#94a3b8">• NDCG-aware</text>
    
    <text x="290" y="345" font-family="Segoe UI, sans-serif" font-size="11" font-weight="bold" fill="#f87171">Cons:</text>
    <text x="290" y="363" font-family="Segoe UI, sans-serif" font-size="10" fill="#94a3b8">• O(n²) complexity</text>
  </g>
  
  <!-- Listwise -->
  <g filter="url(#shadow)">
    <rect x="500" y="95" width="210" height="280" rx="12" fill="#0f172a"/>
    <rect x="500" y="95" width="210" height="40" rx="12 12 0 0" fill="#8b5cf6"/>
    <text x="605" y="122" text-anchor="middle" font-family="Segoe UI, sans-serif" font-size="14" font-weight="bold" fill="#f8fafc">Listwise Loss</text>
    
    <text x="520" y="160" font-family="Segoe UI, sans-serif" font-size="12" font-weight="bold" fill="#a78bfa">ListNet</text>
    <rect x="515" y="170" width="180" height="30" rx="4" fill="#0f172a"/>
    <text x="605" y="190" text-anchor="middle" font-family="monospace" font-size="10" fill="#94a3b8">KL(P_y || P_s)</text>
    
    <text x="520" y="225" font-family="Segoe UI, sans-serif" font-size="12" font-weight="bold" fill="#a78bfa">ApproxNDCG</text>
    <rect x="515" y="235" width="180" height="30" rx="4" fill="#0f172a"/>
    <text x="605" y="255" text-anchor="middle" font-family="monospace" font-size="10" fill="#94a3b8">Diff. approx of NDCG</text>
    
    <text x="520" y="290" font-family="Segoe UI, sans-serif" font-size="11" font-weight="bold" fill="#fbbf24">Pros:</text>
    <text x="520" y="308" font-family="Segoe UI, sans-serif" font-size="10" fill="#94a3b8">• Full list context</text>
    <text x="520" y="323" font-family="Segoe UI, sans-serif" font-size="10" fill="#94a3b8">• Best for ranking</text>
    
    <text x="520" y="345" font-family="Segoe UI, sans-serif" font-size="11" font-weight="bold" fill="#f87171">Cons:</text>
    <text x="520" y="363" font-family="Segoe UI, sans-serif" font-size="10" fill="#94a3b8">• Complex gradients</text>
  </g>
</svg>



