<svg xmlns="http://www.w3.org/2000/svg" viewBox="0 0 700 400">
  <defs>
    <linearGradient id="diffBg" x1="0%" y1="0%" x2="100%" y2="100%">
      <stop offset="0%" style="stop-color:#0f172a"/>
      <stop offset="100%" style="stop-color:#1e293b"/>
    </linearGradient>
  </defs>
  
  <rect width="100%" height="100%" fill="url(#diffBg)"/>
  
  <!-- Title -->
  <text x="350" y="35" text-anchor="middle" font-family="Segoe UI, sans-serif" font-size="20" font-weight="bold" fill="#f8fafc">📊 Forecasting Difficulty Matrix</text>
  
  <!-- Axes -->
  <line x1="350" y1="70" x2="350" y2="370" stroke="#475569" stroke-width="2"/>
  <line x1="50" y1="220" x2="650" y2="220" stroke="#475569" stroke-width="2"/>
  
  <!-- Axis labels -->
  <text x="350" y="60" text-anchor="middle" font-family="Segoe UI, sans-serif" font-size="12" fill="#ef4444" font-weight="bold">HIGH DIFFICULTY</text>
  <text x="350" y="390" text-anchor="middle" font-family="Segoe UI, sans-serif" font-size="12" fill="#22c55e" font-weight="bold">LOW DIFFICULTY</text>
  
  <!-- Quadrant 1: Top Left -->
  <g transform="translate(80, 100)">
    <circle cx="60" cy="30" r="12" fill="#ef4444" opacity="0.8"/>
    <text x="80" y="35" font-family="Segoe UI, sans-serif" font-size="11" fill="#fca5a5">Complex Seasonality</text>
    
    <circle cx="80" cy="70" r="10" fill="#f59e0b" opacity="0.8"/>
    <text x="100" y="75" font-family="Segoe UI, sans-serif" font-size="11" fill="#fcd34d">Multiple Horizons</text>
    
    <circle cx="40" cy="105" r="11" fill="#f59e0b" opacity="0.8"/>
    <text x="60" y="110" font-family="Segoe UI, sans-serif" font-size="11" fill="#fcd34d">Missing Data</text>
  </g>
  
  <!-- Quadrant 2: Top Right -->
  <g transform="translate(380, 100)">
    <circle cx="60" cy="30" r="12" fill="#ef4444" opacity="0.8"/>
    <text x="80" y="35" font-family="Segoe UI, sans-serif" font-size="11" fill="#fca5a5">Non-Linear Dynamics</text>
    
    <circle cx="80" cy="70" r="11" fill="#ef4444" opacity="0.8"/>
    <text x="100" y="75" font-family="Segoe UI, sans-serif" font-size="11" fill="#fca5a5">Concept Drift</text>
    
    <circle cx="40" cy="105" r="10" fill="#f59e0b" opacity="0.8"/>
    <text x="60" y="110" font-family="Segoe UI, sans-serif" font-size="11" fill="#fcd34d">External Factors</text>
  </g>
  
  <!-- Quadrant 3: Bottom Left -->
  <g transform="translate(80, 250)">
    <circle cx="60" cy="30" r="9" fill="#22c55e" opacity="0.8"/>
    <text x="80" y="35" font-family="Segoe UI, sans-serif" font-size="11" fill="#6ee7b7">Noise Filtering</text>
    
    <circle cx="80" cy="70" r="8" fill="#22c55e" opacity="0.8"/>
    <text x="100" y="75" font-family="Segoe UI, sans-serif" font-size="11" fill="#6ee7b7">Simple Patterns</text>
  </g>
  
  <!-- Quadrant 4: Bottom Right -->
  <g transform="translate(380, 250)">
    <circle cx="60" cy="30" r="9" fill="#3b82f6" opacity="0.8"/>
    <text x="80" y="35" font-family="Segoe UI, sans-serif" font-size="11" fill="#93c5fd">Scale Handling</text>
    
    <circle cx="80" cy="70" r="8" fill="#22c55e" opacity="0.8"/>
    <text x="100" y="75" font-family="Segoe UI, sans-serif" font-size="11" fill="#6ee7b7">Stable Trends</text>
  </g>
  
  <!-- Legend -->
  <g transform="translate(500, 350)">
    <circle cx="10" cy="8" r="6" fill="#ef4444"/>
    <text x="22" y="12" font-family="Segoe UI, sans-serif" font-size="9" fill="#94a3b8">Hard</text>
    <circle cx="70" cy="8" r="6" fill="#f59e0b"/>
    <text x="82" y="12" font-family="Segoe UI, sans-serif" font-size="9" fill="#94a3b8">Medium</text>
    <circle cx="140" cy="8" r="6" fill="#22c55e"/>
    <text x="152" y="12" font-family="Segoe UI, sans-serif" font-size="9" fill="#94a3b8">Easy</text>
  </g>
</svg>