<svg xmlns="http://www.w3.org/2000/svg" viewBox="0 0 800 450">
  <defs>
    <linearGradient id="dpGrad" x1="0%" y1="0%" x2="100%" y2="100%">
      <stop offset="0%" style="stop-color:#8b5cf6"/>
      <stop offset="100%" style="stop-color:#7c3aed"/>
    </linearGradient>
    <filter id="shadow" x="-5%" y="-5%" width="110%" height="115%">
      <feDropShadow dx="0" dy="3" stdDeviation="4" flood-opacity="0.15"/>
    </filter>
    <marker id="arrowhead" markerWidth="10" markerHeight="7" refX="10" refY="3.5" orient="auto">
      <polygon points="0 0, 10 3.5, 0 7" fill="#6ee7b7"/>
    </marker>
  </defs>
  
  <rect width="100%" height="100%" fill="#0f172a"/>
  
  <text x="400" y="30" text-anchor="middle" font-family="Segoe UI, sans-serif" font-size="20" font-weight="bold" fill="#f8fafc">🔐 Differential Privacy</text>
  
  <g filter="url(#shadow)">
    <rect x="50" y="55" width="700" height="375" rx="16" fill="#1e293b"/>
    
    <!-- Guarantee -->
    <g transform="translate(75, 80)">
      <rect x="0" y="0" width="650" height="50" rx="10" fill="#164e63"/>
      <text x="325" y="30" text-anchor="middle" font-family="Segoe UI, sans-serif" font-size="12" fill="#22d3ee">Guarantee: Output is approximately the same whether or not any individual's data is included</text>
    </g>
    
    <!-- Diagram -->
    <g transform="translate(100, 155)">
      <rect x="0" y="0" width="170" height="50" rx="10" fill="#10b981"/>
      <text x="85" y="22" text-anchor="middle" font-family="Segoe UI, sans-serif" font-size="11" font-weight="bold" fill="#fff">Database D1</text>
      <text x="85" y="40" text-anchor="middle" font-family="Segoe UI, sans-serif" font-size="10" fill="#d1fae5">(with Alice)</text>
      
      <rect x="0" y="70" width="170" height="50" rx="10" fill="#ef4444"/>
      <text x="85" y="92" text-anchor="middle" font-family="Segoe UI, sans-serif" font-size="11" font-weight="bold" fill="#fff">Database D2</text>
      <text x="85" y="110" text-anchor="middle" font-family="Segoe UI, sans-serif" font-size="10" fill="#fecaca">(without Alice)</text>
      
      <line x1="170" y1="25" x2="260" y2="60" stroke="#6ee7b7" stroke-width="2"/>
      <line x1="170" y1="95" x2="260" y2="60" stroke="#6ee7b7" stroke-width="2"/>
      
      <rect x="260" y="30" width="160" height="60" rx="12" fill="url(#dpGrad)"/>
      <text x="340" y="55" text-anchor="middle" font-family="Segoe UI, sans-serif" font-size="12" font-weight="bold" fill="#fff">Algorithm A</text>
      <text x="340" y="75" text-anchor="middle" font-family="Segoe UI, sans-serif" font-size="10" fill="#ddd6fe">+ Noise</text>
      
      <line x1="420" y1="60" x2="480" y2="60" stroke="#6ee7b7" stroke-width="2" marker-end="url(#arrowhead)"/>
      
      <rect x="495" y="30" width="105" height="60" rx="12" fill="#334155"/>
      <text x="547" y="55" text-anchor="middle" font-family="Segoe UI, sans-serif" font-size="12" font-weight="bold" fill="#f8fafc">Output O</text>
      <text x="547" y="75" text-anchor="middle" font-family="Segoe UI, sans-serif" font-size="10" fill="#6ee7b7">(nearly same)</text>
    </g>
    
    <!-- Formula -->
    <g transform="translate(100, 300)">
      <rect x="0" y="0" width="600" height="55" rx="10" fill="#334155"/>
      <text x="15" y="25" font-family="Segoe UI, sans-serif" font-size="12" font-weight="bold" fill="#a5b4fc">ε-Differential Privacy:</text>
      <text x="15" y="45" font-family="JetBrains Mono, monospace" font-size="13" fill="#f8fafc">P(A(D₁) = O) ≤ e^ε × P(A(D₂) = O)</text>
    </g>
    
    <!-- Epsilon guide -->
    <g transform="translate(100, 370)">
      <text x="0" y="15" font-family="Segoe UI, sans-serif" font-size="12" font-weight="bold" fill="#a5b4fc">ε (epsilon) Privacy Budget:</text>
      
      <rect x="230" y="0" width="120" height="30" rx="6" fill="#10b981"/>
      <text x="290" y="20" text-anchor="middle" font-family="Segoe UI, sans-serif" font-size="10" fill="#fff">ε andlt; 1: Strong</text>
      
      <rect x="360" y="0" width="130" height="30" rx="6" fill="#f59e0b"/>
      <text x="425" y="20" text-anchor="middle" font-family="Segoe UI, sans-serif" font-size="10" fill="#fff">ε andlt; 10: Reasonable</text>
      
      <rect x="500" y="0" width="100" height="30" rx="6" fill="#ef4444"/>
      <text x="550" y="20" text-anchor="middle" font-family="Segoe UI, sans-serif" font-size="10" fill="#fff">ε andgt; 10: Weak</text>
    </g>
  </g>
</svg>
