<svg xmlns="http://www.w3.org/2000/svg" viewBox="0 0 900 480">
  <defs>
    <linearGradient id="bgWindows" x1="0%" y1="0%" x2="100%" y2="100%">
      <stop offset="0%" style="stop-color:#0f172a"/>
      <stop offset="100%" style="stop-color:#1e293b"/>
    </linearGradient>
    <linearGradient id="tumblingGrad" x1="0%" y1="0%" x2="100%" y2="100%">
      <stop offset="0%" style="stop-color:#3b82f6"/>
      <stop offset="100%" style="stop-color:#2563eb"/>
    </linearGradient>
    <linearGradient id="slidingGrad" x1="0%" y1="0%" x2="100%" y2="100%">
      <stop offset="0%" style="stop-color:#8b5cf6"/>
      <stop offset="100%" style="stop-color:#7c3aed"/>
    </linearGradient>
    <linearGradient id="sessionGrad" x1="0%" y1="0%" x2="100%" y2="100%">
      <stop offset="0%" style="stop-color:#10b981"/>
      <stop offset="100%" style="stop-color:#059669"/>
    </linearGradient>
    <filter id="shadowWindows" x="-5%" y="-5%" width="110%" height="115%">
      <feDropShadow dx="0" dy="3" stdDeviation="4" flood-opacity="0.25"/>
    </filter>
  </defs>
  
  <!-- Background -->
  <rect width="100%" height="100%" fill="url(#bgWindows)"/>
  
  <!-- Title -->
  <text x="450" y="30" text-anchor="middle" font-family="system-ui, sans-serif" font-size="22" font-weight="bold" fill="#f8fafc">Time Window Types</text>
  <text x="450" y="52" text-anchor="middle" font-family="system-ui, sans-serif" font-size="12" fill="#94a3b8">Temporal aggregation patterns for feature computation</text>
  
  <!-- Tumbling Window Section -->
  <g filter="url(#shadowWindows)">
    <rect x="40" y="75" width="820" height="120" rx="12" fill="#1e293b" stroke="#3b82f6" stroke-width="2"/>
    <rect x="40" y="75" width="820" height="30" rx="12" fill="url(#tumblingGrad)"/>
    <rect x="40" y="93" width="820" height="12" fill="url(#tumblingGrad)"/>
    <text x="450" y="95" text-anchor="middle" font-family="system-ui, sans-serif" font-size="14" font-weight="bold" fill="#f8fafc">📦 Tumbling Windows (Non-overlapping)</text>
    
    <!-- Timeline -->
    <line x1="80" y1="150" x2="800" y2="150" stroke="#475569" stroke-width="2"/>
    
    <!-- Window boxes -->
    <rect x="100" y="125" width="150" height="40" rx="4" fill="#2563eb" fill-opacity="0.3" stroke="#3b82f6" stroke-width="2"/>
    <text x="175" y="150" text-anchor="middle" font-family="monospace" font-size="10" fill="#60a5fa">Window 1</text>
    
    <rect x="260" y="125" width="150" height="40" rx="4" fill="#2563eb" fill-opacity="0.3" stroke="#3b82f6" stroke-width="2"/>
    <text x="335" y="150" text-anchor="middle" font-family="monospace" font-size="10" fill="#60a5fa">Window 2</text>
    
    <rect x="420" y="125" width="150" height="40" rx="4" fill="#2563eb" fill-opacity="0.3" stroke="#3b82f6" stroke-width="2"/>
    <text x="495" y="150" text-anchor="middle" font-family="monospace" font-size="10" fill="#60a5fa">Window 3</text>
    
    <rect x="580" y="125" width="150" height="40" rx="4" fill="#2563eb" fill-opacity="0.3" stroke="#3b82f6" stroke-width="2"/>
    <text x="655" y="150" text-anchor="middle" font-family="monospace" font-size="10" fill="#60a5fa">Window 4</text>
    
    <!-- Formula -->
    <text x="740" y="180" font-family="monospace" font-size="10" fill="#94a3b8">Wᵢ = [t₀ + i·Δ, t₀ + (i+1)·Δ)</text>
  </g>
  
  <!-- Sliding Window Section -->
  <g filter="url(#shadowWindows)">
    <rect x="40" y="210" width="820" height="120" rx="12" fill="#1e293b" stroke="#8b5cf6" stroke-width="2"/>
    <rect x="40" y="210" width="820" height="30" rx="12" fill="url(#slidingGrad)"/>
    <rect x="40" y="228" width="820" height="12" fill="url(#slidingGrad)"/>
    <text x="450" y="230" text-anchor="middle" font-family="system-ui, sans-serif" font-size="14" font-weight="bold" fill="#f8fafc">🔄 Sliding (Hopping) Windows (Overlapping)</text>
    
    <!-- Timeline -->
    <line x1="80" y1="285" x2="800" y2="285" stroke="#475569" stroke-width="2"/>
    
    <!-- Overlapping window boxes -->
    <rect x="100" y="260" width="200" height="40" rx="4" fill="#7c3aed" fill-opacity="0.25" stroke="#8b5cf6" stroke-width="2"/>
    <rect x="180" y="260" width="200" height="40" rx="4" fill="#7c3aed" fill-opacity="0.25" stroke="#a78bfa" stroke-width="2"/>
    <rect x="260" y="260" width="200" height="40" rx="4" fill="#7c3aed" fill-opacity="0.25" stroke="#c4b5fd" stroke-width="2"/>
    <rect x="340" y="260" width="200" height="40" rx="4" fill="#7c3aed" fill-opacity="0.25" stroke="#8b5cf6" stroke-width="2"/>
    <rect x="420" y="260" width="200" height="40" rx="4" fill="#7c3aed" fill-opacity="0.25" stroke="#a78bfa" stroke-width="2"/>
    
    <text x="200" y="285" text-anchor="middle" font-family="monospace" font-size="9" fill="#c4b5fd">W1</text>
    <text x="280" y="285" text-anchor="middle" font-family="monospace" font-size="9" fill="#c4b5fd">W2</text>
    <text x="360" y="285" text-anchor="middle" font-family="monospace" font-size="9" fill="#c4b5fd">W3</text>
    <text x="440" y="285" text-anchor="middle" font-family="monospace" font-size="9" fill="#c4b5fd">W4</text>
    <text x="520" y="285" text-anchor="middle" font-family="monospace" font-size="9" fill="#c4b5fd">W5</text>
    
    <!-- Slide indicator -->
    <text x="680" y="280" font-family="system-ui, sans-serif" font-size="10" fill="#a78bfa">slide = Δ/2</text>
    <text x="680" y="295" font-family="system-ui, sans-serif" font-size="10" fill="#a78bfa">window = Δ</text>
    
    <!-- Formula -->
    <text x="740" y="315" font-family="monospace" font-size="10" fill="#94a3b8">Wᵢ = [t₀ + i·δ, t₀ + i·δ + Δ)</text>
  </g>
  
  <!-- Session Window Section -->
  <g filter="url(#shadowWindows)">
    <rect x="40" y="345" width="820" height="120" rx="12" fill="#1e293b" stroke="#10b981" stroke-width="2"/>
    <rect x="40" y="345" width="820" height="30" rx="12" fill="url(#sessionGrad)"/>
    <rect x="40" y="363" width="820" height="12" fill="url(#sessionGrad)"/>
    <text x="450" y="365" text-anchor="middle" font-family="system-ui, sans-serif" font-size="14" font-weight="bold" fill="#f8fafc">👤 Session Windows (Activity-based)</text>
    
    <!-- Timeline -->
    <line x1="80" y1="420" x2="800" y2="420" stroke="#475569" stroke-width="2"/>
    
    <!-- Events (dots) -->
    <circle cx="120" cy="400" r="5" fill="#34d399"/>
    <circle cx="145" cy="400" r="5" fill="#34d399"/>
    <circle cx="180" cy="400" r="5" fill="#34d399"/>
    
    <circle cx="320" cy="400" r="5" fill="#34d399"/>
    <circle cx="355" cy="400" r="5" fill="#34d399"/>
    <circle cx="380" cy="400" r="5" fill="#34d399"/>
    <circle cx="420" cy="400" r="5" fill="#34d399"/>
    
    <circle cx="580" cy="400" r="5" fill="#34d399"/>
    <circle cx="620" cy="400" r="5" fill="#34d399"/>
    
    <!-- Session windows around events -->
    <rect x="100" y="390" width="100" height="35" rx="4" fill="#059669" fill-opacity="0.25" stroke="#10b981" stroke-width="2"/>
    <text x="150" y="435" text-anchor="middle" font-family="monospace" font-size="9" fill="#6ee7b7">Session 1</text>
    
    <rect x="300" y="390" width="140" height="35" rx="4" fill="#059669" fill-opacity="0.25" stroke="#10b981" stroke-width="2"/>
    <text x="370" y="435" text-anchor="middle" font-family="monospace" font-size="9" fill="#6ee7b7">Session 2</text>
    
    <rect x="560" y="390" width="80" height="35" rx="4" fill="#059669" fill-opacity="0.25" stroke="#10b981" stroke-width="2"/>
    <text x="600" y="435" text-anchor="middle" font-family="monospace" font-size="9" fill="#6ee7b7">Session 3</text>
    
    <!-- Gap indicator -->
    <text x="250" y="395" font-family="system-ui, sans-serif" font-size="9" fill="#64748b">gap</text>
    <text x="500" y="395" font-family="system-ui, sans-serif" font-size="9" fill="#64748b">gap</text>
    
    <!-- Description -->
    <text x="740" y="410" font-family="system-ui, sans-serif" font-size="10" fill="#94a3b8">Windows close after</text>
    <text x="740" y="425" font-family="system-ui, sans-serif" font-size="10" fill="#94a3b8">inactivity timeout</text>
  </g>
</svg>
