<svg xmlns="http://www.w3.org/2000/svg" viewBox="0 0 900 500">
  <defs>
    <linearGradient id="bgMeta" x1="0%" y1="0%" x2="100%" y2="100%">
      <stop offset="0%" style="stop-color:#0f172a"/>
      <stop offset="100%" style="stop-color:#1e293b"/>
    </linearGradient>
    <linearGradient id="metaGrad" x1="0%" y1="0%" x2="100%" y2="100%">
      <stop offset="0%" style="stop-color:#ec4899"/>
      <stop offset="100%" style="stop-color:#be185d"/>
    </linearGradient>
    <filter id="shadowMeta" x="-10%" y="-10%" width="120%" height="130%">
      <feDropShadow dx="0" dy="4" stdDeviation="6" flood-opacity="0.3"/>
    </filter>
    <marker id="arrowMeta" markerWidth="10" markerHeight="10" refX="9" refY="5" orient="auto">
      <path d="M0,0 L10,5 L0,10 L3,5 Z" fill="#ec4899"/>
    </marker>
  </defs>
  
  <rect width="100%" height="100%" fill="url(#bgMeta)"/>
  
  <!-- Title -->
  <text x="450" y="40" text-anchor="middle" font-family="Segoe UI, sans-serif" font-size="24" font-weight="bold" fill="#f8fafc">🧠 Meta-Level Hybrid</text>
  <text x="450" y="65" text-anchor="middle" font-family="Segoe UI, sans-serif" font-size="13" fill="#94a3b8">Instead of fixed rules, LEARN how to combine</text>
  
  <!-- Input Features -->
  <g transform="translate(50, 90)" filter="url(#shadowMeta)">
    <rect width="350" height="320" rx="14" fill="#1e293b"/>
    <rect width="350" height="45" rx="14 14 0 0" fill="#3b82f6"/>
    <text x="175" y="30" text-anchor="middle" font-family="Segoe UI, sans-serif" font-size="14" font-weight="bold" fill="#f8fafc">📊 Input Features</text>
    
    <g transform="translate(20, 60)">
      <rect x="0" y="0" width="310" height="40" rx="8" fill="#3b82f6" opacity="0.15"/>
      <text x="15" y="18" font-family="Segoe UI, sans-serif" font-size="11" fill="#60a5fa">✓</text>
      <text x="35" y="18" font-family="Segoe UI, sans-serif" font-size="11" fill="#f8fafc">Predictions from each recommender</text>
      <text x="35" y="32" font-family="Segoe UI, sans-serif" font-size="9" fill="#94a3b8">[CF_score, CB_score, Pop_score]</text>
      
      <rect x="0" y="50" width="310" height="40" rx="8" fill="#8b5cf6" opacity="0.15"/>
      <text x="15" y="68" font-family="Segoe UI, sans-serif" font-size="11" fill="#c4b5fd">✓</text>
      <text x="35" y="68" font-family="Segoe UI, sans-serif" font-size="11" fill="#f8fafc">Confidence scores</text>
      <text x="35" y="82" font-family="Segoe UI, sans-serif" font-size="9" fill="#94a3b8">[CF_conf, CB_conf, Pop_conf]</text>
      
      <rect x="0" y="100" width="310" height="40" rx="8" fill="#10b981" opacity="0.15"/>
      <text x="15" y="118" font-family="Segoe UI, sans-serif" font-size="11" fill="#6ee7b7">✓</text>
      <text x="35" y="118" font-family="Segoe UI, sans-serif" font-size="11" fill="#f8fafc">User context</text>
      <text x="35" y="132" font-family="Segoe UI, sans-serif" font-size="9" fill="#94a3b8">[activity_level, preference_strength]</text>
      
      <rect x="0" y="150" width="310" height="40" rx="8" fill="#f59e0b" opacity="0.15"/>
      <text x="15" y="168" font-family="Segoe UI, sans-serif" font-size="11" fill="#fcd34d">✓</text>
      <text x="35" y="168" font-family="Segoe UI, sans-serif" font-size="11" fill="#f8fafc">Item context</text>
      <text x="35" y="182" font-family="Segoe UI, sans-serif" font-size="9" fill="#94a3b8">[popularity, newness, category]</text>
      
      <rect x="0" y="200" width="310" height="40" rx="8" fill="#ec4899" opacity="0.15"/>
      <text x="15" y="218" font-family="Segoe UI, sans-serif" font-size="11" fill="#f9a8d4">✓</text>
      <text x="35" y="218" font-family="Segoe UI, sans-serif" font-size="11" fill="#f8fafc">Historical performance</text>
      <text x="35" y="232" font-family="Segoe UI, sans-serif" font-size="9" fill="#94a3b8">[method_accuracy_for_user]</text>
    </g>
  </g>
  
  <!-- Arrow -->
  <path d="M410 250 L470 250" stroke="#ec4899" stroke-width="3" marker-end="url(#arrowMeta)"/>
  
  <!-- Meta Learner -->
  <g transform="translate(480, 140)" filter="url(#shadowMeta)">
    <rect width="370" height="220" rx="14" fill="#1e293b"/>
    <rect width="370" height="50" rx="14 14 0 0" fill="url(#metaGrad)"/>
    <text x="185" y="32" text-anchor="middle" font-family="Segoe UI, sans-serif" font-size="15" font-weight="bold" fill="#f8fafc">🧠 Meta Learner</text>
    
    <g transform="translate(30, 70)">
      <text x="155" y="15" text-anchor="middle" font-family="Segoe UI, sans-serif" font-size="12" fill="#94a3b8">Options:</text>
      
      <rect x="0" y="30" width="100" height="35" rx="8" fill="#ec4899" opacity="0.3"/>
      <text x="50" y="52" text-anchor="middle" font-family="Segoe UI, sans-serif" font-size="11" fill="#f9a8d4">XGBoost</text>
      
      <rect x="110" y="30" width="100" height="35" rx="8" fill="#ec4899" opacity="0.3"/>
      <text x="160" y="52" text-anchor="middle" font-family="Segoe UI, sans-serif" font-size="11" fill="#f9a8d4">Neural Net</text>
      
      <rect x="220" y="30" width="90" height="35" rx="8" fill="#ec4899" opacity="0.3"/>
      <text x="265" y="52" text-anchor="middle" font-family="Segoe UI, sans-serif" font-size="11" fill="#f9a8d4">LightGBM</text>
      
      <text x="155" y="95" text-anchor="middle" font-family="Segoe UI, sans-serif" font-size="11" fill="#94a3b8">Learns optimal combination</text>
      <text x="155" y="112" text-anchor="middle" font-family="Segoe UI, sans-serif" font-size="11" fill="#94a3b8">per user/item/context</text>
    </g>
  </g>
  
  <!-- Arrow down -->
  <path d="M665 365 L665 400" stroke="#ec4899" stroke-width="3" marker-end="url(#arrowMeta)"/>
  
  <!-- Output -->
  <g transform="translate(520, 410)" filter="url(#shadowMeta)">
    <rect width="290" height="60" rx="14" fill="#10b981"/>
    <text x="145" y="35" text-anchor="middle" font-family="Segoe UI, sans-serif" font-size="16" font-weight="bold" fill="#f8fafc">🎯 Final Prediction</text>
  </g>
</svg>
