<svg xmlns="http://www.w3.org/2000/svg" viewBox="0 0 850 550">
  <defs>
    <linearGradient id="bgGrad" x1="0%" y1="0%" x2="100%" y2="100%">
      <stop offset="0%" style="stop-color:#0f172a"/>
      <stop offset="100%" style="stop-color:#1e293b"/>
    </linearGradient>
    <linearGradient id="lbGrad" x1="0%" y1="0%" x2="100%" y2="100%">
      <stop offset="0%" style="stop-color:#10b981"/>
      <stop offset="100%" style="stop-color:#34d399"/>
    </linearGradient>
    <linearGradient id="gpuGrad" x1="0%" y1="0%" x2="100%" y2="100%">
      <stop offset="0%" style="stop-color:#8b5cf6"/>
      <stop offset="100%" style="stop-color:#a855f7"/>
    </linearGradient>
    <linearGradient id="cacheGrad" x1="0%" y1="0%" x2="100%" y2="100%">
      <stop offset="0%" style="stop-color:#f59e0b"/>
      <stop offset="100%" style="stop-color:#fbbf24"/>
    </linearGradient>
    <linearGradient id="dbGrad" x1="0%" y1="0%" x2="100%" y2="100%">
      <stop offset="0%" style="stop-color:#3b82f6"/>
      <stop offset="100%" style="stop-color:#60a5fa"/>
    </linearGradient>
    <filter id="shadow" x="-10%" y="-10%" width="120%" height="130%">
      <feDropShadow dx="0" dy="4" stdDeviation="5" flood-opacity="0.25"/>
    </filter>
    <marker id="arrow" markerWidth="10" markerHeight="10" refX="9" refY="5" orient="auto">
      <path d="M0,0 L10,5 L0,10 L3,5 Z" fill="#64748b"/>
    </marker>
  </defs>
  
  <rect width="100%" height="100%" fill="url(#bgGrad)"/>
  
  <text x="425" y="40" text-anchor="middle" font-family="Segoe UI, sans-serif" font-size="22" font-weight="bold" fill="#f8fafc">🏭 Production Embedding System Architecture</text>
  
  <!-- Load Balancer -->
  <g filter="url(#shadow)" transform="translate(175, 60)">
    <rect width="500" height="55" rx="12" fill="url(#lbGrad)"/>
    <text x="250" y="25" text-anchor="middle" font-family="Segoe UI, sans-serif" font-size="14" font-weight="bold" fill="#1e293b">⚖️ LOAD BALANCER</text>
    <text x="250" y="45" text-anchor="middle" font-family="Segoe UI, sans-serif" font-size="11" fill="rgba(0,0,0,0.6)">nginx / AWS ALB / GCP LB</text>
  </g>
  
  <!-- Arrows from LB -->
  <path d="M325 120 L280 155" stroke="#64748b" stroke-width="2" marker-end="url(#arrow)"/>
  <path d="M425 120 L425 155" stroke="#64748b" stroke-width="2" marker-end="url(#arrow)"/>
  <path d="M525 120 L570 155" stroke="#64748b" stroke-width="2" marker-end="url(#arrow)"/>
  
  <!-- Embedding Services -->
  <g filter="url(#shadow)" transform="translate(80, 160)">
    <rect width="170" height="100" rx="12" fill="#1e293b" stroke="url(#gpuGrad)" stroke-width="2"/>
    <text x="85" y="25" text-anchor="middle" font-family="Segoe UI, sans-serif" font-size="11" font-weight="bold" fill="#a855f7">EMBEDDING SERVICE</text>
    <text x="85" y="42" text-anchor="middle" font-family="Segoe UI, sans-serif" font-size="10" fill="#94a3b8">(GPU 1)</text>
    <rect x="35" y="50" width="100" height="40" rx="6" fill="url(#gpuGrad)"/>
    <text x="85" y="75" text-anchor="middle" font-family="Segoe UI, sans-serif" font-size="10" font-weight="bold" fill="#fff">BERT Model</text>
  </g>
  
  <g filter="url(#shadow)" transform="translate(340, 160)">
    <rect width="170" height="100" rx="12" fill="#1e293b" stroke="url(#gpuGrad)" stroke-width="2"/>
    <text x="85" y="25" text-anchor="middle" font-family="Segoe UI, sans-serif" font-size="11" font-weight="bold" fill="#a855f7">EMBEDDING SERVICE</text>
    <text x="85" y="42" text-anchor="middle" font-family="Segoe UI, sans-serif" font-size="10" fill="#94a3b8">(GPU 2)</text>
    <rect x="35" y="50" width="100" height="40" rx="6" fill="url(#gpuGrad)"/>
    <text x="85" y="75" text-anchor="middle" font-family="Segoe UI, sans-serif" font-size="10" font-weight="bold" fill="#fff">BERT Model</text>
  </g>
  
  <g filter="url(#shadow)" transform="translate(600, 160)">
    <rect width="170" height="100" rx="12" fill="#1e293b" stroke="url(#gpuGrad)" stroke-width="2"/>
    <text x="85" y="25" text-anchor="middle" font-family="Segoe UI, sans-serif" font-size="11" font-weight="bold" fill="#a855f7">EMBEDDING SERVICE</text>
    <text x="85" y="42" text-anchor="middle" font-family="Segoe UI, sans-serif" font-size="10" fill="#94a3b8">(GPU 3)</text>
    <rect x="35" y="50" width="100" height="40" rx="6" fill="url(#gpuGrad)"/>
    <text x="85" y="75" text-anchor="middle" font-family="Segoe UI, sans-serif" font-size="10" font-weight="bold" fill="#fff">BERT Model</text>
  </g>
  
  <!-- Arrows to cache -->
  <path d="M165 265 L165 285 L425 285 L425 305" stroke="#64748b" stroke-width="2" marker-end="url(#arrow)"/>
  <path d="M685 265 L685 285 L425 285" stroke="#64748b" stroke-width="2"/>
  
  <!-- Cache Layer -->
  <g filter="url(#shadow)" transform="translate(100, 310)">
    <rect width="650" height="90" rx="14" fill="#1e293b" stroke="url(#cacheGrad)" stroke-width="2"/>
    <text x="325" y="25" text-anchor="middle" font-family="Segoe UI, sans-serif" font-size="14" font-weight="bold" fill="#fbbf24">💾 CACHE LAYER (Redis Cluster)</text>
    
    <rect x="30" y="40" width="130" height="40" rx="8" fill="url(#cacheGrad)"/>
    <text x="95" y="65" text-anchor="middle" font-family="Segoe UI, sans-serif" font-size="10" fill="#1e293b">Cache 1</text>
    
    <rect x="180" y="40" width="130" height="40" rx="8" fill="url(#cacheGrad)"/>
    <text x="245" y="65" text-anchor="middle" font-family="Segoe UI, sans-serif" font-size="10" fill="#1e293b">Cache 2</text>
    
    <rect x="330" y="40" width="130" height="40" rx="8" fill="url(#cacheGrad)"/>
    <text x="395" y="65" text-anchor="middle" font-family="Segoe UI, sans-serif" font-size="10" fill="#1e293b">Cache 3</text>
    
    <rect x="480" y="40" width="130" height="40" rx="8" fill="url(#cacheGrad)"/>
    <text x="545" y="65" text-anchor="middle" font-family="Segoe UI, sans-serif" font-size="10" fill="#1e293b">Cache N</text>
  </g>
  
  <!-- Arrow to vector DB -->
  <path d="M425 405 L425 435" stroke="#64748b" stroke-width="2" marker-end="url(#arrow)"/>
  
  <!-- Vector Database -->
  <g filter="url(#shadow)" transform="translate(100, 440)">
    <rect width="650" height="90" rx="14" fill="#1e293b" stroke="url(#dbGrad)" stroke-width="2"/>
    <text x="325" y="25" text-anchor="middle" font-family="Segoe UI, sans-serif" font-size="14" font-weight="bold" fill="#60a5fa">🗄️ VECTOR DATABASE CLUSTER</text>
    
    <rect x="30" y="40" width="180" height="40" rx="8" fill="url(#dbGrad)"/>
    <text x="120" y="55" text-anchor="middle" font-family="Segoe UI, sans-serif" font-size="10" fill="#fff">Shard 1</text>
    <text x="120" y="70" text-anchor="middle" font-family="Segoe UI, sans-serif" font-size="8" fill="rgba(255,255,255,0.7)">●─●─●─●</text>
    
    <rect x="230" y="40" width="180" height="40" rx="8" fill="url(#dbGrad)"/>
    <text x="320" y="55" text-anchor="middle" font-family="Segoe UI, sans-serif" font-size="10" fill="#fff">Shard 2</text>
    <text x="320" y="70" text-anchor="middle" font-family="Segoe UI, sans-serif" font-size="8" fill="rgba(255,255,255,0.7)">●─●─●─●</text>
    
    <rect x="430" y="40" width="180" height="40" rx="8" fill="url(#dbGrad)"/>
    <text x="520" y="55" text-anchor="middle" font-family="Segoe UI, sans-serif" font-size="10" fill="#fff">Shard 3</text>
    <text x="520" y="70" text-anchor="middle" font-family="Segoe UI, sans-serif" font-size="8" fill="rgba(255,255,255,0.7)">●─●─●─●</text>
  </g>
</svg>
