<svg xmlns="http://www.w3.org/2000/svg" viewBox="0 0 750 280">
  <defs>
    <linearGradient id="bgGrad" x1="0%" y1="0%" x2="100%" y2="100%">
      <stop offset="0%" style="stop-color:#0f172a"/>
      <stop offset="100%" style="stop-color:#1e293b"/>
    </linearGradient>
    <filter id="shadow" x="-10%" y="-10%" width="120%" height="130%">
      <feDropShadow dx="0" dy="4" stdDeviation="5" flood-opacity="0.25"/>
    </filter>
  </defs>
  
  <rect width="100%" height="100%" fill="url(#bgGrad)"/>
  
  <text x="375" y="40" text-anchor="middle" font-family="Segoe UI, sans-serif" font-size="22" font-weight="bold" fill="#f8fafc">⚠️ Production Challenges</text>
  
  <!-- Latency -->
  <g filter="url(#shadow)" transform="translate(40, 70)">
    <rect width="210" height="180" rx="12" fill="#1e293b" stroke="#ef4444" stroke-width="2"/>
    <text x="105" y="30" text-anchor="middle" font-family="Segoe UI, sans-serif" font-size="16">⏱️</text>
    <text x="105" y="55" text-anchor="middle" font-family="Segoe UI, sans-serif" font-size="14" font-weight="bold" fill="#ef4444">Latency</text>
    
    <rect x="15" y="70" width="180" height="28" rx="4" fill="#0f172a"/>
    <text x="105" y="89" text-anchor="middle" font-family="Segoe UI, sans-serif" font-size="10" fill="#94a3b8">Encoding time</text>
    
    <rect x="15" y="103" width="180" height="28" rx="4" fill="#0f172a"/>
    <text x="105" y="122" text-anchor="middle" font-family="Segoe UI, sans-serif" font-size="10" fill="#94a3b8">Search time</text>
    
    <rect x="15" y="136" width="180" height="28" rx="4" fill="#0f172a"/>
    <text x="105" y="155" text-anchor="middle" font-family="Segoe UI, sans-serif" font-size="10" fill="#94a3b8">Network overhead</text>
  </g>
  
  <!-- Scale -->
  <g filter="url(#shadow)" transform="translate(270, 70)">
    <rect width="210" height="180" rx="12" fill="#1e293b" stroke="#f59e0b" stroke-width="2"/>
    <text x="105" y="30" text-anchor="middle" font-family="Segoe UI, sans-serif" font-size="16">📈</text>
    <text x="105" y="55" text-anchor="middle" font-family="Segoe UI, sans-serif" font-size="14" font-weight="bold" fill="#f59e0b">Scale</text>
    
    <rect x="15" y="70" width="180" height="28" rx="4" fill="#0f172a"/>
    <text x="105" y="89" text-anchor="middle" font-family="Segoe UI, sans-serif" font-size="10" fill="#94a3b8">Billions of vectors</text>
    
    <rect x="15" y="103" width="180" height="28" rx="4" fill="#0f172a"/>
    <text x="105" y="122" text-anchor="middle" font-family="Segoe UI, sans-serif" font-size="10" fill="#94a3b8">High QPS</text>
    
    <rect x="15" y="136" width="180" height="28" rx="4" fill="#0f172a"/>
    <text x="105" y="155" text-anchor="middle" font-family="Segoe UI, sans-serif" font-size="10" fill="#94a3b8">Storage costs</text>
  </g>
  
  <!-- Reliability -->
  <g filter="url(#shadow)" transform="translate(500, 70)">
    <rect width="210" height="180" rx="12" fill="#1e293b" stroke="#10b981" stroke-width="2"/>
    <text x="105" y="30" text-anchor="middle" font-family="Segoe UI, sans-serif" font-size="16">🛡️</text>
    <text x="105" y="55" text-anchor="middle" font-family="Segoe UI, sans-serif" font-size="14" font-weight="bold" fill="#10b981">Reliability</text>
    
    <rect x="15" y="70" width="180" height="28" rx="4" fill="#0f172a"/>
    <text x="105" y="89" text-anchor="middle" font-family="Segoe UI, sans-serif" font-size="10" fill="#94a3b8">High availability</text>
    
    <rect x="15" y="103" width="180" height="28" rx="4" fill="#0f172a"/>
    <text x="105" y="122" text-anchor="middle" font-family="Segoe UI, sans-serif" font-size="10" fill="#94a3b8">Consistency</text>
    
    <rect x="15" y="136" width="180" height="28" rx="4" fill="#0f172a"/>
    <text x="105" y="155" text-anchor="middle" font-family="Segoe UI, sans-serif" font-size="10" fill="#94a3b8">Graceful degradation</text>
  </g>
</svg>
