<svg xmlns="http://www.w3.org/2000/svg" viewBox="0 0 900 520">
  <defs>
    <linearGradient id="bgGrad" x1="0%" y1="0%" x2="100%" y2="100%">
      <stop offset="0%" style="stop-color:#0f172a"/>
      <stop offset="100%" style="stop-color:#1e293b"/>
    </linearGradient>
    <linearGradient id="patchGrad" x1="0%" y1="0%" x2="100%" y2="100%">
      <stop offset="0%" style="stop-color:#f59e0b"/>
      <stop offset="100%" style="stop-color:#fbbf24"/>
    </linearGradient>
    <linearGradient id="embedGrad" x1="0%" y1="0%" x2="100%" y2="100%">
      <stop offset="0%" style="stop-color:#3b82f6"/>
      <stop offset="100%" style="stop-color:#60a5fa"/>
    </linearGradient>
    <linearGradient id="transGrad" x1="0%" y1="0%" x2="100%" y2="100%">
      <stop offset="0%" style="stop-color:#8b5cf6"/>
      <stop offset="100%" style="stop-color:#a855f7"/>
    </linearGradient>
    <linearGradient id="outGrad" x1="0%" y1="0%" x2="100%" y2="100%">
      <stop offset="0%" style="stop-color:#10b981"/>
      <stop offset="100%" style="stop-color:#34d399"/>
    </linearGradient>
    <filter id="shadow" x="-10%" y="-10%" width="120%" height="130%">
      <feDropShadow dx="0" dy="4" stdDeviation="5" flood-opacity="0.25"/>
    </filter>
    <marker id="arrow" markerWidth="10" markerHeight="10" refX="9" refY="5" orient="auto">
      <path d="M0,0 L10,5 L0,10 L3,5 Z" fill="#64748b"/>
    </marker>
  </defs>
  
  <rect width="100%" height="100%" fill="url(#bgGrad)"/>
  
  <text x="450" y="40" text-anchor="middle" font-family="Segoe UI, sans-serif" font-size="24" font-weight="bold" fill="#f8fafc">🔮 Vision Transformer (ViT) Architecture</text>
  
  <!-- Input Image -->
  <g filter="url(#shadow)" transform="translate(40, 80)">
    <rect width="150" height="150" rx="12" fill="#1e293b" stroke="#f59e0b" stroke-width="2"/>
    <text x="75" y="25" text-anchor="middle" font-family="Segoe UI, sans-serif" font-size="12" font-weight="bold" fill="#f59e0b">Input Image</text>
    
    <!-- Grid -->
    <rect x="15" y="35" width="30" height="30" rx="2" fill="#f59e0b" opacity="0.8"/>
    <rect x="48" y="35" width="30" height="30" rx="2" fill="#fbbf24" opacity="0.8"/>
    <rect x="81" y="35" width="30" height="30" rx="2" fill="#f59e0b" opacity="0.8"/>
    <rect x="114" y="35" width="30" height="30" rx="2" fill="#fbbf24" opacity="0.8"/>
    
    <rect x="15" y="68" width="30" height="30" rx="2" fill="#fbbf24" opacity="0.8"/>
    <rect x="48" y="68" width="30" height="30" rx="2" fill="#f59e0b" opacity="0.8"/>
    <rect x="81" y="68" width="30" height="30" rx="2" fill="#fbbf24" opacity="0.8"/>
    <rect x="114" y="68" width="30" height="30" rx="2" fill="#f59e0b" opacity="0.8"/>
    
    <rect x="15" y="101" width="30" height="30" rx="2" fill="#f59e0b" opacity="0.8"/>
    <rect x="48" y="101" width="30" height="30" rx="2" fill="#fbbf24" opacity="0.8"/>
    <rect x="81" y="101" width="30" height="30" rx="2" fill="#f59e0b" opacity="0.8"/>
    <rect x="114" y="101" width="30" height="30" rx="2" fill="#fbbf24" opacity="0.8"/>
    
    <text x="75" y="145" text-anchor="middle" font-family="Segoe UI, sans-serif" font-size="9" fill="#94a3b8">16 patches (4×4)</text>
  </g>
  
  <path d="M195 155 L250 155" stroke="#64748b" stroke-width="3" marker-end="url(#arrow)"/>
  <text x="222" y="145" text-anchor="middle" font-family="Segoe UI, sans-serif" font-size="10" fill="#64748b">Linear</text>
  
  <!-- Patch Embeddings -->
  <g filter="url(#shadow)" transform="translate(260, 80)">
    <rect width="150" height="150" rx="12" fill="url(#embedGrad)"/>
    <text x="75" y="25" text-anchor="middle" font-family="Segoe UI, sans-serif" font-size="12" font-weight="bold" fill="#fff">Patch Embeddings</text>
    
    <rect x="15" y="40" width="120" height="20" rx="4" fill="rgba(255,255,255,0.3)"/>
    <text x="75" y="54" text-anchor="middle" font-family="Segoe UI, sans-serif" font-size="8" fill="#fff">E₁ E₂ E₃ E₄</text>
    
    <rect x="15" y="65" width="120" height="20" rx="4" fill="rgba(255,255,255,0.3)"/>
    <text x="75" y="79" text-anchor="middle" font-family="Segoe UI, sans-serif" font-size="8" fill="#fff">E₅ E₆ E₇ E₈</text>
    
    <rect x="15" y="90" width="120" height="20" rx="4" fill="rgba(255,255,255,0.3)"/>
    <text x="75" y="104" text-anchor="middle" font-family="Segoe UI, sans-serif" font-size="8" fill="#fff">E₉ E₁₀ E₁₁ E₁₂</text>
    
    <text x="75" y="130" text-anchor="middle" font-family="Segoe UI, sans-serif" font-size="9" fill="rgba(255,255,255,0.8)">+ Position Embed</text>
  </g>
  
  <path d="M415 155 L470 155" stroke="#64748b" stroke-width="3" marker-end="url(#arrow)"/>
  
  <!-- Token sequence -->
  <g filter="url(#shadow)" transform="translate(260, 250)">
    <rect width="380" height="60" rx="10" fill="#1e293b" stroke="#475569" stroke-width="1"/>
    <text x="190" y="20" text-anchor="middle" font-family="Segoe UI, sans-serif" font-size="11" font-weight="600" fill="#f8fafc">Token Sequence</text>
    
    <rect x="10" y="30" width="35" height="22" rx="4" fill="#ec4899"/>
    <text x="27" y="45" text-anchor="middle" font-family="Segoe UI, sans-serif" font-size="8" fill="#fff">[CLS]</text>
    
    <rect x="50" y="30" width="25" height="22" rx="4" fill="#3b82f6"/>
    <text x="62" y="45" text-anchor="middle" font-family="Segoe UI, sans-serif" font-size="8" fill="#fff">E₁</text>
    
    <rect x="80" y="30" width="25" height="22" rx="4" fill="#3b82f6"/>
    <text x="92" y="45" text-anchor="middle" font-family="Segoe UI, sans-serif" font-size="8" fill="#fff">E₂</text>
    
    <rect x="110" y="30" width="25" height="22" rx="4" fill="#3b82f6"/>
    <text x="122" y="45" text-anchor="middle" font-family="Segoe UI, sans-serif" font-size="8" fill="#fff">E₃</text>
    
    <text x="155" y="45" font-family="Segoe UI, sans-serif" font-size="10" fill="#64748b">...</text>
    
    <rect x="175" y="30" width="30" height="22" rx="4" fill="#3b82f6"/>
    <text x="190" y="45" text-anchor="middle" font-family="Segoe UI, sans-serif" font-size="8" fill="#fff">E₁₆</text>
    
    <text x="280" y="45" font-family="Segoe UI, sans-serif" font-size="9" fill="#94a3b8">+ Positional</text>
  </g>
  
  <!-- Transformer -->
  <g filter="url(#shadow)" transform="translate(480, 70)">
    <rect width="200" height="170" rx="14" fill="url(#transGrad)"/>
    <text x="100" y="30" text-anchor="middle" font-family="Segoe UI, sans-serif" font-size="14" font-weight="bold" fill="#fff">Transformer Encoder</text>
    <text x="100" y="50" text-anchor="middle" font-family="Segoe UI, sans-serif" font-size="11" fill="rgba(255,255,255,0.8)">(12 layers)</text>
    
    <rect x="20" y="65" width="160" height="35" rx="6" fill="rgba(0,0,0,0.2)"/>
    <text x="100" y="87" text-anchor="middle" font-family="Segoe UI, sans-serif" font-size="10" fill="#fff">Multi-Head Self-Attention</text>
    
    <path d="M100 105 L100 115" stroke="rgba(255,255,255,0.5)" stroke-width="2"/>
    
    <rect x="20" y="120" width="160" height="35" rx="6" fill="rgba(0,0,0,0.2)"/>
    <text x="100" y="142" text-anchor="middle" font-family="Segoe UI, sans-serif" font-size="10" fill="#fff">MLP + Layer Norm</text>
  </g>
  
  <path d="M685 155 L740 155" stroke="#64748b" stroke-width="3" marker-end="url(#arrow)"/>
  
  <!-- Output -->
  <g filter="url(#shadow)" transform="translate(750, 95)">
    <rect width="130" height="120" rx="14" fill="url(#outGrad)"/>
    <text x="65" y="30" text-anchor="middle" font-family="Segoe UI, sans-serif" font-size="12" font-weight="bold" fill="#1e293b">[CLS] Token</text>
    <text x="65" y="50" text-anchor="middle" font-family="Segoe UI, sans-serif" font-size="10" fill="rgba(0,0,0,0.7)">→</text>
    <text x="65" y="70" text-anchor="middle" font-family="Segoe UI, sans-serif" font-size="12" font-weight="bold" fill="#1e293b">Image</text>
    <text x="65" y="90" text-anchor="middle" font-family="Segoe UI, sans-serif" font-size="12" font-weight="bold" fill="#1e293b">Embedding</text>
    <text x="65" y="110" text-anchor="middle" font-family="Courier New, monospace" font-size="9" fill="rgba(0,0,0,0.6)">[768 dims]</text>
  </g>
  
  <!-- Bottom note -->
  <rect x="200" y="340" width="500" height="55" rx="10" fill="#1e293b" stroke="#475569" stroke-width="1"/>
  <text x="450" y="365" text-anchor="middle" font-family="Segoe UI, sans-serif" font-size="12" font-weight="600" fill="#f8fafc">Key Innovation</text>
  <text x="450" y="385" text-anchor="middle" font-family="Segoe UI, sans-serif" font-size="11" fill="#94a3b8">Treat image patches as tokens → Apply NLP transformer architecture</text>
</svg>
