<svg xmlns="http://www.w3.org/2000/svg" viewBox="0 0 700 450">
  <defs>
    <linearGradient id="bgGrad" x1="0%" y1="0%" x2="100%" y2="100%">
      <stop offset="0%" style="stop-color:#0f172a"/>
      <stop offset="100%" style="stop-color:#1e293b"/>
    </linearGradient>
  </defs>
  
  <rect width="700" height="450" fill="url(#bgGrad)"/>
  
  <text x="350" y="35" text-anchor="middle" fill="#f8fafc" font-family="Arial, sans-serif" font-size="20" font-weight="bold">
    📈 Scaling Strategies
  </text>
  
  <!-- Horizontal Scaling -->
  <rect x="50" y="70" width="280" height="350" rx="12" fill="#1e293b" stroke="#10b981" stroke-width="2"/>
  <text x="190" y="105" text-anchor="middle" fill="#34d399" font-family="Arial" font-size="14" font-weight="bold">HORIZONTAL SCALING</text>
  <text x="190" y="125" text-anchor="middle" fill="#94a3b8" font-family="Arial" font-size="11">(Scale Out)</text>
  
  <!-- Before -->
  <text x="80" y="160" fill="#94a3b8" font-family="Arial" font-size="11">Before:</text>
  <rect x="140" y="145" width="60" height="30" rx="4" fill="#3b82f6"/>
  <text x="170" y="165" text-anchor="middle" fill="#fff" font-family="Arial" font-size="10">Server</text>
  
  <!-- After -->
  <text x="80" y="210" fill="#94a3b8" font-family="Arial" font-size="11">After:</text>
  <rect x="140" y="195" width="40" height="25" rx="4" fill="#3b82f6"/>
  <rect x="185" y="195" width="40" height="25" rx="4" fill="#3b82f6"/>
  <rect x="230" y="195" width="40" height="25" rx="4" fill="#3b82f6"/>
  
  <g fill="#94a3b8" font-family="Arial" font-size="11">
    <text x="80" y="260" fill="#10b981">✓</text><text x="95" y="260">Near-infinite capacity</text>
    <text x="80" y="285" fill="#10b981">✓</text><text x="95" y="285">Built-in redundancy</text>
    <text x="80" y="310" fill="#10b981">✓</text><text x="95" y="310">Linear cost scaling</text>
    <text x="80" y="335" fill="#f59e0b">⚠</text><text x="95" y="335">Higher complexity</text>
    <text x="80" y="360" fill="#f59e0b">⚠</text><text x="95" y="360">Network overhead</text>
  </g>
  
  <!-- Vertical Scaling -->
  <rect x="370" y="70" width="280" height="350" rx="12" fill="#1e293b" stroke="#6366f1" stroke-width="2"/>
  <text x="510" y="105" text-anchor="middle" fill="#a5b4fc" font-family="Arial" font-size="14" font-weight="bold">VERTICAL SCALING</text>
  <text x="510" y="125" text-anchor="middle" fill="#94a3b8" font-family="Arial" font-size="11">(Scale Up)</text>
  
  <!-- Before -->
  <text x="400" y="160" fill="#94a3b8" font-family="Arial" font-size="11">Before:</text>
  <rect x="460" y="145" width="60" height="30" rx="4" fill="#8b5cf6"/>
  <text x="490" y="165" text-anchor="middle" fill="#fff" font-family="Arial" font-size="10">Server</text>
  
  <!-- After -->
  <text x="400" y="210" fill="#94a3b8" font-family="Arial" font-size="11">After:</text>
  <rect x="460" y="185" width="100" height="45" rx="4" fill="#8b5cf6"/>
  <text x="510" y="215" text-anchor="middle" fill="#fff" font-family="Arial" font-size="12">BIG Server</text>
  
  <g fill="#94a3b8" font-family="Arial" font-size="11">
    <text x="400" y="260" fill="#10b981">✓</text><text x="415" y="260">Simple to implement</text>
    <text x="400" y="285" fill="#10b981">✓</text><text x="415" y="285">No distribution overhead</text>
    <text x="400" y="310" fill="#10b981">✓</text><text x="415" y="310">Faster for some ops</text>
    <text x="400" y="335" fill="#ef4444">✗</text><text x="415" y="335">Hardware limits</text>
    <text x="400" y="360" fill="#ef4444">✗</text><text x="415" y="360">Single point of failure</text>
  </g>
</svg>
