<svg xmlns="http://www.w3.org/2000/svg" viewBox="0 0 850 380">
  <defs>
    <linearGradient id="bgGrad" x1="0%" y1="0%" x2="100%" y2="100%">
      <stop offset="0%" style="stop-color:#0f172a"/>
      <stop offset="100%" style="stop-color:#1e293b"/>
    </linearGradient>
    <linearGradient id="sparseGrad" x1="0%" y1="0%" x2="100%" y2="100%">
      <stop offset="0%" style="stop-color:#ef4444"/>
      <stop offset="100%" style="stop-color:#dc2626"/>
    </linearGradient>
    <linearGradient id="denseGrad" x1="0%" y1="0%" x2="100%" y2="100%">
      <stop offset="0%" style="stop-color:#10b981"/>
      <stop offset="100%" style="stop-color:#059669"/>
    </linearGradient>
    <linearGradient id="arrowGrad" x1="0%" y1="0%" x2="100%" y2="0%">
      <stop offset="0%" style="stop-color:#8b5cf6"/>
      <stop offset="100%" style="stop-color:#3b82f6"/>
    </linearGradient>
    <filter id="shadow" x="-10%" y="-10%" width="120%" height="130%">
      <feDropShadow dx="0" dy="4" stdDeviation="6" flood-opacity="0.25"/>
    </filter>
    <marker id="arrow" markerWidth="12" markerHeight="12" refX="10" refY="6" orient="auto">
      <path d="M0,0 L12,6 L0,12 L4,6 Z" fill="#8b5cf6"/>
    </marker>
  </defs>
  
  <rect width="100%" height="100%" fill="url(#bgGrad)"/>
  
  <!-- Title -->
  <text x="425" y="40" text-anchor="middle" font-family="Segoe UI, sans-serif" font-size="22" font-weight="bold" fill="#f8fafc">📉 Dimensionality Reduction: Sparse → Dense</text>
  
  <!-- Sparse Representation -->
  <g filter="url(#shadow)" transform="translate(40, 70)">
    <rect width="300" height="250" rx="16" fill="#1e293b" stroke="url(#sparseGrad)" stroke-width="3"/>
    <rect width="300" height="45" rx="16 16 0 0" fill="url(#sparseGrad)"/>
    <text x="150" y="32" text-anchor="middle" font-family="Segoe UI, sans-serif" font-size="15" font-weight="bold" fill="#fff">One-Hot Encoding</text>
    
    <!-- Vector visualization -->
    <text x="20" y="75" font-family="Courier New, monospace" font-size="11" fill="#94a3b8">"cat"  →</text>
    <g transform="translate(85, 60)">
      <rect x="0" y="0" width="18" height="18" rx="3" fill="#ef4444"/>
      <rect x="22" y="0" width="18" height="18" rx="3" fill="#334155"/>
      <rect x="44" y="0" width="18" height="18" rx="3" fill="#334155"/>
      <rect x="66" y="0" width="18" height="18" rx="3" fill="#334155"/>
      <rect x="88" y="0" width="18" height="18" rx="3" fill="#334155"/>
      <text x="115" y="14" font-family="Segoe UI, sans-serif" font-size="10" fill="#64748b">...</text>
      <rect x="130" y="0" width="18" height="18" rx="3" fill="#334155"/>
      <text x="0" y="35" font-family="Courier New, monospace" font-size="9" fill="#64748b">[1,0,0,0,0,...,0]</text>
    </g>
    
    <text x="20" y="125" font-family="Courier New, monospace" font-size="11" fill="#94a3b8">"dog"  →</text>
    <g transform="translate(85, 110)">
      <rect x="0" y="0" width="18" height="18" rx="3" fill="#334155"/>
      <rect x="22" y="0" width="18" height="18" rx="3" fill="#ef4444"/>
      <rect x="44" y="0" width="18" height="18" rx="3" fill="#334155"/>
      <rect x="66" y="0" width="18" height="18" rx="3" fill="#334155"/>
      <rect x="88" y="0" width="18" height="18" rx="3" fill="#334155"/>
      <text x="115" y="14" font-family="Segoe UI, sans-serif" font-size="10" fill="#64748b">...</text>
      <rect x="130" y="0" width="18" height="18" rx="3" fill="#334155"/>
      <text x="0" y="35" font-family="Courier New, monospace" font-size="9" fill="#64748b">[0,1,0,0,0,...,0]</text>
    </g>
    
    <!-- Stats -->
    <rect x="20" y="165" width="260" height="70" rx="8" fill="#1e293b" stroke="#ef4444" stroke-width="1"/>
    <text x="150" y="190" text-anchor="middle" font-family="Segoe UI, sans-serif" font-size="12" font-weight="600" fill="#ef4444">❌ Problems</text>
    <text x="150" y="210" text-anchor="middle" font-family="Segoe UI, sans-serif" font-size="10" fill="#94a3b8">• 100,000+ dimensions</text>
    <text x="150" y="225" text-anchor="middle" font-family="Segoe UI, sans-serif" font-size="10" fill="#94a3b8">• No semantic similarity</text>
  </g>
  
  <!-- Arrow -->
  <g transform="translate(355, 170)">
    <path d="M0 25 L100 25" stroke="url(#arrowGrad)" stroke-width="4" marker-end="url(#arrow)"/>
    <text x="50" y="10" text-anchor="middle" font-family="Segoe UI, sans-serif" font-size="12" font-weight="bold" fill="#a855f7">EMBED</text>
    <text x="50" y="55" text-anchor="middle" font-family="Segoe UI, sans-serif" font-size="10" fill="#64748b">Neural Network</text>
  </g>
  
  <!-- Dense Representation -->
  <g filter="url(#shadow)" transform="translate(510, 70)">
    <rect width="300" height="250" rx="16" fill="#1e293b" stroke="url(#denseGrad)" stroke-width="3"/>
    <rect width="300" height="45" rx="16 16 0 0" fill="url(#denseGrad)"/>
    <text x="150" y="32" text-anchor="middle" font-family="Segoe UI, sans-serif" font-size="15" font-weight="bold" fill="#fff">Dense Embedding</text>
    
    <!-- Vector visualization -->
    <text x="20" y="75" font-family="Courier New, monospace" font-size="11" fill="#94a3b8">"cat"  →</text>
    <g transform="translate(85, 60)">
      <rect x="0" y="0" width="18" height="18" rx="3" fill="#10b981"/>
      <rect x="22" y="0" width="18" height="18" rx="3" fill="#059669"/>
      <rect x="44" y="0" width="18" height="18" rx="3" fill="#34d399"/>
      <rect x="66" y="0" width="18" height="18" rx="3" fill="#10b981"/>
      <text x="93" y="14" font-family="Segoe UI, sans-serif" font-size="10" fill="#64748b">...</text>
      <text x="0" y="35" font-family="Courier New, monospace" font-size="9" fill="#64748b">[0.2,-0.4,0.7,0.1,...]</text>
    </g>
    
    <text x="20" y="125" font-family="Courier New, monospace" font-size="11" fill="#94a3b8">"dog"  →</text>
    <g transform="translate(85, 110)">
      <rect x="0" y="0" width="18" height="18" rx="3" fill="#10b981"/>
      <rect x="22" y="0" width="18" height="18" rx="3" fill="#047857"/>
      <rect x="44" y="0" width="18" height="18" rx="3" fill="#34d399"/>
      <rect x="66" y="0" width="18" height="18" rx="3" fill="#10b981"/>
      <text x="93" y="14" font-family="Segoe UI, sans-serif" font-size="10" fill="#64748b">...</text>
      <text x="0" y="35" font-family="Courier New, monospace" font-size="9" fill="#64748b">[0.25,-0.3,0.65,0.15]</text>
    </g>
    
    <!-- Stats -->
    <rect x="20" y="165" width="260" height="70" rx="8" fill="#1e293b" stroke="#10b981" stroke-width="1"/>
    <text x="150" y="190" text-anchor="middle" font-family="Segoe UI, sans-serif" font-size="12" font-weight="600" fill="#10b981">✓ Benefits</text>
    <text x="150" y="210" text-anchor="middle" font-family="Segoe UI, sans-serif" font-size="10" fill="#94a3b8">• 256-768 dimensions</text>
    <text x="150" y="225" text-anchor="middle" font-family="Segoe UI, sans-serif" font-size="10" fill="#94a3b8">• cat ≈ dog (similar vectors!)</text>
  </g>
  
  <!-- Bottom formula -->
  <rect x="200" y="335" width="450" height="35" rx="8" fill="#1e293b" stroke="#475569" stroke-width="1"/>
  <text x="425" y="358" text-anchor="middle" font-family="Courier New, monospace" font-size="13" fill="#f8fafc">
    f: X → ℝⁿ  where n ≪ |vocabulary|
  </text>
</svg>
