<svg xmlns="http://www.w3.org/2000/svg" viewBox="0 0 900 400">
  <defs>
    <linearGradient id="stackBg" x1="0%" y1="0%" x2="100%" y2="100%">
      <stop offset="0%" style="stop-color:#0f172a"/>
      <stop offset="100%" style="stop-color:#1e293b"/>
    </linearGradient>
  </defs>
  
  <!-- Background -->
  <rect width="900" height="400" fill="url(#stackBg)"/>
  
  <!-- Title -->
  <text x="450" y="35" text-anchor="middle" fill="#f8fafc" font-family="Arial, sans-serif" font-size="20" font-weight="bold">🛠️ Technology Stack Recommendations</text>
  
  <!-- Layer boxes -->
  <!-- API Layer -->
  <g transform="translate(50, 60)">
    <rect width="800" height="35" rx="6" fill="#1e293b" stroke="#3b82f6" stroke-width="2"/>
    <text x="20" y="23" fill="#60a5fa" font-family="Arial, sans-serif" font-size="12" font-weight="bold">API Layer</text>
    <rect x="150" y="7" width="85" height="22" rx="4" fill="#1e3a8a"/>
    <text x="192" y="22" text-anchor="middle" fill="#93c5fd" font-family="Arial, sans-serif" font-size="10">FastAPI</text>
    <rect x="245" y="7" width="70" height="22" rx="4" fill="#1e3a8a"/>
    <text x="280" y="22" text-anchor="middle" fill="#93c5fd" font-family="Arial, sans-serif" font-size="10">gRPC</text>
    <rect x="325" y="7" width="85" height="22" rx="4" fill="#1e3a8a"/>
    <text x="367" y="22" text-anchor="middle" fill="#93c5fd" font-family="Arial, sans-serif" font-size="10">GraphQL</text>
  </g>
  
  <!-- ML Serving -->
  <g transform="translate(50, 100)">
    <rect width="800" height="35" rx="6" fill="#1e293b" stroke="#8b5cf6" stroke-width="2"/>
    <text x="20" y="23" fill="#a78bfa" font-family="Arial, sans-serif" font-size="12" font-weight="bold">ML Serving</text>
    <rect x="150" y="7" width="100" height="22" rx="4" fill="#4c1d95"/>
    <text x="200" y="22" text-anchor="middle" fill="#c4b5fd" font-family="Arial, sans-serif" font-size="10">TorchServe</text>
    <rect x="260" y="7" width="70" height="22" rx="4" fill="#4c1d95"/>
    <text x="295" y="22" text-anchor="middle" fill="#c4b5fd" font-family="Arial, sans-serif" font-size="10">Triton</text>
    <rect x="340" y="7" width="110" height="22" rx="4" fill="#4c1d95"/>
    <text x="395" y="22" text-anchor="middle" fill="#c4b5fd" font-family="Arial, sans-serif" font-size="10">ONNX Runtime</text>
  </g>
  
  <!-- Queue -->
  <g transform="translate(50, 140)">
    <rect width="800" height="35" rx="6" fill="#1e293b" stroke="#f97316" stroke-width="2"/>
    <text x="20" y="23" fill="#fb923c" font-family="Arial, sans-serif" font-size="12" font-weight="bold">Queue</text>
    <rect x="150" y="7" width="70" height="22" rx="4" fill="#7c2d12"/>
    <text x="185" y="22" text-anchor="middle" fill="#fdba74" font-family="Arial, sans-serif" font-size="10">Kafka</text>
    <rect x="230" y="7" width="90" height="22" rx="4" fill="#7c2d12"/>
    <text x="275" y="22" text-anchor="middle" fill="#fdba74" font-family="Arial, sans-serif" font-size="10">AWS SQS</text>
    <rect x="330" y="7" width="110" height="22" rx="4" fill="#7c2d12"/>
    <text x="385" y="22" text-anchor="middle" fill="#fdba74" font-family="Arial, sans-serif" font-size="10">Redis Streams</text>
  </g>
  
  <!-- Cache and Database -->
  <g transform="translate(50, 180)">
    <rect width="390" height="35" rx="6" fill="#1e293b" stroke="#22c55e" stroke-width="2"/>
    <text x="20" y="23" fill="#4ade80" font-family="Arial, sans-serif" font-size="12" font-weight="bold">Cache</text>
    <rect x="100" y="7" width="70" height="22" rx="4" fill="#14532d"/>
    <text x="135" y="22" text-anchor="middle" fill="#86efac" font-family="Arial, sans-serif" font-size="10">Redis</text>
    <rect x="180" y="7" width="100" height="22" rx="4" fill="#14532d"/>
    <text x="230" y="22" text-anchor="middle" fill="#86efac" font-family="Arial, sans-serif" font-size="10">Memcached</text>
  </g>
  
  <g transform="translate(460, 180)">
    <rect width="390" height="35" rx="6" fill="#1e293b" stroke="#06b6d4" stroke-width="2"/>
    <text x="20" y="23" fill="#22d3ee" font-family="Arial, sans-serif" font-size="12" font-weight="bold">Database</text>
    <rect x="110" y="7" width="90" height="22" rx="4" fill="#164e63"/>
    <text x="155" y="22" text-anchor="middle" fill="#67e8f9" font-family="Arial, sans-serif" font-size="10">PostgreSQL</text>
    <rect x="210" y="7" width="90" height="22" rx="4" fill="#164e63"/>
    <text x="255" y="22" text-anchor="middle" fill="#67e8f9" font-family="Arial, sans-serif" font-size="10">DynamoDB</text>
    <rect x="310" y="7" width="70" height="22" rx="4" fill="#164e63"/>
    <text x="345" y="22" text-anchor="middle" fill="#67e8f9" font-family="Arial, sans-serif" font-size="10">MongoDB</text>
  </g>
  
  <!-- Feature Store -->
  <g transform="translate(50, 220)">
    <rect width="800" height="35" rx="6" fill="#1e293b" stroke="#ec4899" stroke-width="2"/>
    <text x="20" y="23" fill="#f472b6" font-family="Arial, sans-serif" font-size="12" font-weight="bold">Feature Store</text>
    <rect x="150" y="7" width="70" height="22" rx="4" fill="#831843"/>
    <text x="185" y="22" text-anchor="middle" fill="#f9a8d4" font-family="Arial, sans-serif" font-size="10">Feast</text>
    <rect x="230" y="7" width="70" height="22" rx="4" fill="#831843"/>
    <text x="265" y="22" text-anchor="middle" fill="#f9a8d4" font-family="Arial, sans-serif" font-size="10">Redis</text>
    <rect x="310" y="7" width="75" height="22" rx="4" fill="#831843"/>
    <text x="347" y="22" text-anchor="middle" fill="#f9a8d4" font-family="Arial, sans-serif" font-size="10">Tecton</text>
  </g>
  
  <!-- Monitoring -->
  <g transform="translate(50, 260)">
    <rect width="800" height="35" rx="6" fill="#1e293b" stroke="#eab308" stroke-width="2"/>
    <text x="20" y="23" fill="#fbbf24" font-family="Arial, sans-serif" font-size="12" font-weight="bold">Monitoring</text>
    <rect x="150" y="7" width="100" height="22" rx="4" fill="#713f12"/>
    <text x="200" y="22" text-anchor="middle" fill="#fde047" font-family="Arial, sans-serif" font-size="10">Prometheus</text>
    <rect x="260" y="7" width="80" height="22" rx="4" fill="#713f12"/>
    <text x="300" y="22" text-anchor="middle" fill="#fde047" font-family="Arial, sans-serif" font-size="10">Grafana</text>
    <rect x="350" y="7" width="85" height="22" rx="4" fill="#713f12"/>
    <text x="392" y="22" text-anchor="middle" fill="#fde047" font-family="Arial, sans-serif" font-size="10">DataDog</text>
  </g>
  
  <!-- ML Platform -->
  <g transform="translate(50, 300)">
    <rect width="800" height="35" rx="6" fill="#1e293b" stroke="#10b981" stroke-width="2"/>
    <text x="20" y="23" fill="#34d399" font-family="Arial, sans-serif" font-size="12" font-weight="bold">ML Platform</text>
    <rect x="150" y="7" width="75" height="22" rx="4" fill="#064e3b"/>
    <text x="187" y="22" text-anchor="middle" fill="#6ee7b7" font-family="Arial, sans-serif" font-size="10">MLflow</text>
    <rect x="235" y="7" width="120" height="22" rx="4" fill="#064e3b"/>
    <text x="295" y="22" text-anchor="middle" fill="#6ee7b7" font-family="Arial, sans-serif" font-size="10">Weights &amp; Biases</text>
    <rect x="365" y="7" width="95" height="22" rx="4" fill="#064e3b"/>
    <text x="412" y="22" text-anchor="middle" fill="#6ee7b7" font-family="Arial, sans-serif" font-size="10">SageMaker</text>
  </g>
  
  <!-- Infrastructure -->
  <g transform="translate(50, 340)">
    <rect width="800" height="35" rx="6" fill="#1e293b" stroke="#ef4444" stroke-width="2"/>
    <text x="20" y="23" fill="#f87171" font-family="Arial, sans-serif" font-size="12" font-weight="bold">Infrastructure</text>
    <rect x="150" y="7" width="100" height="22" rx="4" fill="#7f1d1d"/>
    <text x="200" y="22" text-anchor="middle" fill="#fca5a5" font-family="Arial, sans-serif" font-size="10">Kubernetes</text>
    <rect x="260" y="7" width="180" height="22" rx="4" fill="#7f1d1d"/>
    <text x="350" y="22" text-anchor="middle" fill="#fca5a5" font-family="Arial, sans-serif" font-size="10">GPU Clusters (A100, V100)</text>
  </g>
</svg>
