<svg xmlns="http://www.w3.org/2000/svg" viewBox="0 0 850 450">
  <defs>
    <linearGradient id="imgBg" x1="0%" y1="0%" x2="100%" y2="100%">
      <stop offset="0%" style="stop-color:#0c0c1d"/>
      <stop offset="100%" style="stop-color:#1a1a3e"/>
    </linearGradient>
    <linearGradient id="visionGrad" x1="0%" y1="0%" x2="100%" y2="0%">
      <stop offset="0%" style="stop-color:#f472b6"/>
      <stop offset="100%" style="stop-color:#c084fc"/>
    </linearGradient>
  </defs>
  
  <!-- Background -->
  <rect width="850" height="450" fill="url(#imgBg)"/>
  
  <!-- Title -->
  <text x="425" y="35" text-anchor="middle" fill="url(#visionGrad)" font-family="Arial, sans-serif" font-size="22" font-weight="bold">Image and Video Moderation Pipeline</text>
  
  <!-- Image Input -->
  <g transform="translate(30, 70)">
    <rect width="120" height="100" rx="10" fill="#2d2d4a" stroke="#4c4c7a" stroke-width="2"/>
    <text x="60" y="50" text-anchor="middle" fill="#a0a0c0" font-family="Arial, sans-serif" font-size="40">🖼️</text>
    <text x="60" y="80" text-anchor="middle" fill="#a0a0c0" font-family="Arial, sans-serif" font-size="11">Image/Video</text>
  </g>
  
  <!-- Arrow -->
  <path d="M 155 120 L 185 120" stroke="#f472b6" stroke-width="2" fill="none" marker-end="url(#pinkArrow)"/>
  <defs>
    <marker id="pinkArrow" markerWidth="10" markerHeight="7" refX="9" refY="3.5" orient="auto">
      <polygon points="0 0, 10 3.5, 0 7" fill="#f472b6"/>
    </marker>
  </defs>
  
  <!-- Hash Check -->
  <g transform="translate(190, 70)">
    <rect width="130" height="100" rx="10" fill="#3d1f5c" stroke="#9333ea" stroke-width="2"/>
    <text x="65" y="30" text-anchor="middle" fill="#c084fc" font-family="Arial, sans-serif" font-size="12" font-weight="bold">Hash Match</text>
    <text x="65" y="50" text-anchor="middle" fill="#e9d5ff" font-family="Arial, sans-serif" font-size="10">PhotoDNA</text>
    <text x="65" y="70" text-anchor="middle" fill="#e9d5ff" font-family="Arial, sans-serif" font-size="10">pHash</text>
    <rect x="20" y="78" width="90" height="16" rx="3" fill="#1f0a3d"/>
    <text x="65" y="90" text-anchor="middle" fill="#22c55e" font-family="Arial, sans-serif" font-size="9">⚡ andlt;5ms</text>
  </g>
  
  <!-- Arrow -->
  <path d="M 325 120 L 355 120" stroke="#f472b6" stroke-width="2" fill="none" marker-end="url(#pinkArrow)"/>
  
  <!-- CNN Classifiers -->
  <g transform="translate(360, 50)">
    <rect width="200" height="140" rx="12" fill="#1e1e3f" stroke="#ec4899" stroke-width="2"/>
    <text x="100" y="25" text-anchor="middle" fill="#f472b6" font-family="Arial, sans-serif" font-size="13" font-weight="bold">🧠 CNN Classifiers</text>
    
    <g transform="translate(15, 35)">
      <rect width="170" height="25" rx="5" fill="#312e81"/>
      <text x="85" y="17" text-anchor="middle" fill="#f8fafc" font-family="Arial, sans-serif" font-size="10">NSFW Detector (EfficientNet)</text>
    </g>
    
    <g transform="translate(15, 65)">
      <rect width="170" height="25" rx="5" fill="#312e81"/>
      <text x="85" y="17" text-anchor="middle" fill="#f8fafc" font-family="Arial, sans-serif" font-size="10">Violence Detector (ResNet)</text>
    </g>
    
    <g transform="translate(15, 95)">
      <rect width="170" height="25" rx="5" fill="#312e81"/>
      <text x="85" y="17" text-anchor="middle" fill="#f8fafc" font-family="Arial, sans-serif" font-size="10">Hate Symbol Detector</text>
    </g>
    
    <text x="100" y="135" text-anchor="middle" fill="#94a3b8" font-family="Arial, sans-serif" font-size="9">⚡ 30-50ms (GPU)</text>
  </g>
  
  <!-- Arrow -->
  <path d="M 565 120 L 595 120" stroke="#f472b6" stroke-width="2" fill="none" marker-end="url(#pinkArrow)"/>
  
  <!-- Object Detection -->
  <g transform="translate(600, 50)">
    <rect width="200" height="140" rx="12" fill="#1e3a3a" stroke="#14b8a6" stroke-width="2"/>
    <text x="100" y="25" text-anchor="middle" fill="#2dd4bf" font-family="Arial, sans-serif" font-size="13" font-weight="bold">🔍 Object Detection</text>
    
    <g transform="translate(15, 35)">
      <rect width="170" height="25" rx="5" fill="#134e4a"/>
      <text x="85" y="17" text-anchor="middle" fill="#f8fafc" font-family="Arial, sans-serif" font-size="10">YOLO v8 (Weapons)</text>
    </g>
    
    <g transform="translate(15, 65)">
      <rect width="170" height="25" rx="5" fill="#134e4a"/>
      <text x="85" y="17" text-anchor="middle" fill="#f8fafc" font-family="Arial, sans-serif" font-size="10">Face Detection</text>
    </g>
    
    <g transform="translate(15, 95)">
      <rect width="170" height="25" rx="5" fill="#134e4a"/>
      <text x="85" y="17" text-anchor="middle" fill="#f8fafc" font-family="Arial, sans-serif" font-size="10">OCR + Text Analysis</text>
    </g>
    
    <text x="100" y="135" text-anchor="middle" fill="#94a3b8" font-family="Arial, sans-serif" font-size="9">⚡ 20-40ms (GPU)</text>
  </g>
  
  <!-- Video Section -->
  <g transform="translate(30, 220)">
    <rect width="770" height="100" rx="12" fill="#f8fafc" stroke="#6366f1" stroke-width="2"/>
    <text x="385" y="25" text-anchor="middle" fill="#818cf8" font-family="Arial, sans-serif" font-size="13" font-weight="bold">🎬 Video Analysis Pipeline</text>
    
    <g transform="translate(30, 40)">
      <rect width="130" height="45" rx="8" fill="#312e81"/>
      <text x="65" y="20" text-anchor="middle" fill="#f8fafc" font-family="Arial, sans-serif" font-size="11">Frame Sampling</text>
      <text x="65" y="36" text-anchor="middle" fill="#a5b4fc" font-family="Arial, sans-serif" font-size="9">1-5 FPS</text>
    </g>
    
    <path d="M 165 62 L 195 62" stroke="#6366f1" stroke-width="1.5" fill="none" marker-end="url(#blueArrow)"/>
    <defs>
      <marker id="blueArrow" markerWidth="8" markerHeight="5" refX="7" refY="2.5" orient="auto">
        <polygon points="0 0, 8 2.5, 0 5" fill="#6366f1"/>
      </marker>
    </defs>
    
    <g transform="translate(200, 40)">
      <rect width="130" height="45" rx="8" fill="#312e81"/>
      <text x="65" y="20" text-anchor="middle" fill="#f8fafc" font-family="Arial, sans-serif" font-size="11">Batch Inference</text>
      <text x="65" y="36" text-anchor="middle" fill="#a5b4fc" font-family="Arial, sans-serif" font-size="9">GPU Batching</text>
    </g>
    
    <path d="M 335 62 L 365 62" stroke="#6366f1" stroke-width="1.5" fill="none" marker-end="url(#blueArrow)"/>
    
    <g transform="translate(370, 40)">
      <rect width="130" height="45" rx="8" fill="#312e81"/>
      <text x="65" y="20" text-anchor="middle" fill="#f8fafc" font-family="Arial, sans-serif" font-size="11">Temporal Smooth</text>
      <text x="65" y="36" text-anchor="middle" fill="#a5b4fc" font-family="Arial, sans-serif" font-size="9">Reduce Flicker</text>
    </g>
    
    <path d="M 505 62 L 535 62" stroke="#6366f1" stroke-width="1.5" fill="none" marker-end="url(#blueArrow)"/>
    
    <g transform="translate(540, 40)">
      <rect width="130" height="45" rx="8" fill="#312e81"/>
      <text x="65" y="20" text-anchor="middle" fill="#f8fafc" font-family="Arial, sans-serif" font-size="11">Audio Transcribe</text>
      <text x="65" y="36" text-anchor="middle" fill="#a5b4fc" font-family="Arial, sans-serif" font-size="9">Whisper</text>
    </g>
    
    <path d="M 675 62 L 705 62" stroke="#6366f1" stroke-width="1.5" fill="none" marker-end="url(#blueArrow)"/>
    
    <g transform="translate(710, 40)">
      <rect width="50" height="45" rx="8" fill="#22c55e"/>
      <text x="25" y="28" text-anchor="middle" fill="#f8fafc" font-family="Arial, sans-serif" font-size="16">✓</text>
    </g>
  </g>
  
  <!-- Categories detected -->
  <g transform="translate(30, 340)">
    <rect width="770" height="90" rx="12" fill="#1e293b" stroke="#475569" stroke-width="1"/>
    <text x="385" y="25" text-anchor="middle" fill="#94a3b8" font-family="Arial, sans-serif" font-size="12" font-weight="bold">Detection Categories</text>
    
    <g transform="translate(30, 40)">
      <rect width="100" height="35" rx="6" fill="#7f1d1d"/>
      <text x="50" y="23" text-anchor="middle" fill="#fca5a5" font-family="Arial, sans-serif" font-size="11">NSFW</text>
    </g>
    
    <g transform="translate(145, 40)">
      <rect width="100" height="35" rx="6" fill="#7c2d12"/>
      <text x="50" y="23" text-anchor="middle" fill="#fdba74" font-family="Arial, sans-serif" font-size="11">Violence</text>
    </g>
    
    <g transform="translate(260, 40)">
      <rect width="100" height="35" rx="6" fill="#713f12"/>
      <text x="50" y="23" text-anchor="middle" fill="#fde047" font-family="Arial, sans-serif" font-size="11">Hate Symbols</text>
    </g>
    
    <g transform="translate(375, 40)">
      <rect width="100" height="35" rx="6" fill="#14532d"/>
      <text x="50" y="23" text-anchor="middle" fill="#86efac" font-family="Arial, sans-serif" font-size="11">Weapons</text>
    </g>
    
    <g transform="translate(490, 40)">
      <rect width="100" height="35" rx="6" fill="#1e3a8a"/>
      <text x="50" y="23" text-anchor="middle" fill="#93c5fd" font-family="Arial, sans-serif" font-size="11">Self-Harm</text>
    </g>
    
    <g transform="translate(605, 40)">
      <rect width="100" height="35" rx="6" fill="#581c87"/>
      <text x="50" y="23" text-anchor="middle" fill="#d8b4fe" font-family="Arial, sans-serif" font-size="11">Drugs</text>
    </g>
    
    <g transform="translate(720, 40)">
      <rect width="70" height="35" rx="6" fill="#1e293b"/>
      <text x="35" y="23" text-anchor="middle" fill="#94a3b8" font-family="Arial, sans-serif" font-size="11">+More</text>
    </g>
  </g>
</svg>

