<svg xmlns="http://www.w3.org/2000/svg" viewBox="0 0 800 500">
  <defs>
    <filter id="shadow" x="-5%" y="-5%" width="110%" height="115%">
      <feDropShadow dx="0" dy="3" stdDeviation="4" flood-opacity="0.2"/>
    </filter>
  </defs>
  
  <rect width="100%" height="100%" fill="#0f172a"/>
  
  <text x="400" y="35" text-anchor="middle" font-family="Segoe UI, sans-serif" font-size="20" font-weight="bold" fill="#f8fafc">📊 Feature Store Monitoring Dimensions</text>
  
  <!-- Freshness -->
  <g filter="url(#shadow)">
    <rect x="50" y="60" width="340" height="100" rx="10" fill="#1e293b"/>
    <rect x="50" y="60" width="8" height="100" rx="4 0 0 4" fill="#10b981"/>
    <text x="75" y="90" font-family="Segoe UI, sans-serif" font-size="14" font-weight="bold" fill="#6ee7b7">1. FRESHNESS</text>
    <text x="300" y="90" font-family="Segoe UI, sans-serif" font-size="11" fill="#64748b">How recent?</text>
    <text x="75" y="115" font-family="Segoe UI, sans-serif" font-size="10" fill="#94a3b8">• Last update timestamp</text>
    <text x="75" y="135" font-family="Segoe UI, sans-serif" font-size="10" fill="#94a3b8">• Update frequency compliance</text>
    <text x="75" y="155" font-family="Segoe UI, sans-serif" font-size="10" fill="#94a3b8">• Event-to-feature lag</text>
  </g>
  
  <!-- Quality -->
  <g filter="url(#shadow)">
    <rect x="410" y="60" width="340" height="100" rx="10" fill="#1e293b"/>
    <rect x="410" y="60" width="8" height="100" rx="4 0 0 4" fill="#3b82f6"/>
    <text x="435" y="90" font-family="Segoe UI, sans-serif" font-size="14" font-weight="bold" fill="#60a5fa">2. QUALITY</text>
    <text x="660" y="90" font-family="Segoe UI, sans-serif" font-size="11" fill="#64748b">Is it correct?</text>
    <text x="435" y="115" font-family="Segoe UI, sans-serif" font-size="10" fill="#94a3b8">• Missing values / null rates</text>
    <text x="435" y="135" font-family="Segoe UI, sans-serif" font-size="10" fill="#94a3b8">• Value range validation</text>
    <text x="435" y="155" font-family="Segoe UI, sans-serif" font-size="10" fill="#94a3b8">• Type consistency</text>
  </g>
  
  <!-- Consistency -->
  <g filter="url(#shadow)">
    <rect x="50" y="180" width="340" height="100" rx="10" fill="#1e293b"/>
    <rect x="50" y="180" width="8" height="100" rx="4 0 0 4" fill="#8b5cf6"/>
    <text x="75" y="210" font-family="Segoe UI, sans-serif" font-size="14" font-weight="bold" fill="#a78bfa">3. CONSISTENCY</text>
    <text x="300" y="210" font-family="Segoe UI, sans-serif" font-size="11" fill="#64748b">Do they match?</text>
    <text x="75" y="235" font-family="Segoe UI, sans-serif" font-size="10" fill="#94a3b8">• Training-serving skew detection</text>
    <text x="75" y="255" font-family="Segoe UI, sans-serif" font-size="10" fill="#94a3b8">• Cross-feature consistency</text>
    <text x="75" y="275" font-family="Segoe UI, sans-serif" font-size="10" fill="#94a3b8">• Version alignment</text>
  </g>
  
  <!-- Availability -->
  <g filter="url(#shadow)">
    <rect x="410" y="180" width="340" height="100" rx="10" fill="#1e293b"/>
    <rect x="410" y="180" width="8" height="100" rx="4 0 0 4" fill="#f59e0b"/>
    <text x="435" y="210" font-family="Segoe UI, sans-serif" font-size="14" font-weight="bold" fill="#fcd34d">4. AVAILABILITY</text>
    <text x="660" y="210" font-family="Segoe UI, sans-serif" font-size="11" fill="#64748b">Can it be served?</text>
    <text x="435" y="235" font-family="Segoe UI, sans-serif" font-size="10" fill="#94a3b8">• Latency (P50, P95, P99)</text>
    <text x="435" y="255" font-family="Segoe UI, sans-serif" font-size="10" fill="#94a3b8">• Error rates</text>
    <text x="435" y="275" font-family="Segoe UI, sans-serif" font-size="10" fill="#94a3b8">• Throughput</text>
  </g>
  
  <!-- Drift -->
  <g filter="url(#shadow)">
    <rect x="180" y="300" width="440" height="100" rx="10" fill="#1e293b"/>
    <rect x="180" y="300" width="8" height="100" rx="4 0 0 4" fill="#ef4444"/>
    <text x="205" y="330" font-family="Segoe UI, sans-serif" font-size="14" font-weight="bold" fill="#fca5a5">5. DRIFT</text>
    <text x="520" y="330" font-family="Segoe UI, sans-serif" font-size="11" fill="#64748b">Have distributions changed?</text>
    <text x="205" y="355" font-family="Segoe UI, sans-serif" font-size="10" fill="#94a3b8">• Feature value distributions (PSI per feature)</text>
    <text x="205" y="375" font-family="Segoe UI, sans-serif" font-size="10" fill="#94a3b8">• Correlation stability between features</text>
    <text x="205" y="395" font-family="Segoe UI, sans-serif" font-size="10" fill="#94a3b8">• Schema evolution tracking</text>
  </g>
  
  <!-- Bottom note -->
  <rect x="150" y="420" width="500" height="60" rx="10" fill="#172554" stroke="#3b82f6" stroke-width="1"/>
  <text x="400" y="448" text-anchor="middle" font-family="Segoe UI, sans-serif" font-size="12" font-weight="bold" fill="#60a5fa">💡 Key Insight</text>
  <text x="400" y="468" text-anchor="middle" font-family="Segoe UI, sans-serif" font-size="11" fill="#93c5fd">Monitor all 5 dimensions — problems propagate from feature store to model predictions</text>
</svg>
