<svg xmlns="http://www.w3.org/2000/svg" viewBox="0 0 850 350">
  <defs>
    <linearGradient id="scaleGrad" x1="0%" y1="0%" x2="100%" y2="100%">
      <stop offset="0%" style="stop-color:#6366F1"/>
      <stop offset="100%" style="stop-color:#4F46E5"/>
    </linearGradient>
    <linearGradient id="volGrad" x1="0%" y1="0%" x2="100%" y2="100%">
      <stop offset="0%" style="stop-color:#3B82F6"/>
      <stop offset="100%" style="stop-color:#1D4ED8"/>
    </linearGradient>
    <linearGradient id="compGrad" x1="0%" y1="0%" x2="100%" y2="100%">
      <stop offset="0%" style="stop-color:#10B981"/>
      <stop offset="100%" style="stop-color:#059669"/>
    </linearGradient>
    <linearGradient id="userGrad" x1="0%" y1="0%" x2="100%" y2="100%">
      <stop offset="0%" style="stop-color:#F59E0B"/>
      <stop offset="100%" style="stop-color:#D97706"/>
    </linearGradient>
    <linearGradient id="latGrad" x1="0%" y1="0%" x2="100%" y2="100%">
      <stop offset="0%" style="stop-color:#EC4899"/>
      <stop offset="100%" style="stop-color:#DB2777"/>
    </linearGradient>
    <filter id="scaleShadow" x="-5%" y="-5%" width="110%" height="115%">
      <feDropShadow dx="0" dy="3" stdDeviation="4" flood-opacity="0.2"/>
    </filter>
  </defs>
  
  <rect width="850" height="350" fill="#0F172A"/>
  
  <!-- Container -->
  <rect x="30" y="20" width="790" height="310" rx="12" fill="#1E293B" stroke="url(#scaleGrad)" stroke-width="2"/>
  <rect x="30" y="20" width="790" height="40" rx="12 12 0 0" fill="url(#scaleGrad)"/>
  <text x="425" y="47" text-anchor="middle" font-family="system-ui" font-size="16" font-weight="bold" fill="#F8FAFC">📈 Dimensions of Scale</text>
  
  <!-- Four quadrants -->
  <g filter="url(#scaleShadow)" transform="translate(60, 80)">
    <rect x="0" y="0" width="340" height="100" rx="8" fill="url(#volGrad)"/>
    <text x="170" y="28" text-anchor="middle" font-family="system-ui" font-size="14" font-weight="bold" fill="#F8FAFC">💾 DATA VOLUME</text>
    <g transform="translate(20, 45)">
      <rect x="0" y="0" width="90" height="40" rx="4" fill="rgba(0,0,0,0.2)"/>
      <text x="45" y="18" text-anchor="middle" font-family="system-ui" font-size="10" fill="#F8FAFC">GB → TB</text>
      <text x="45" y="32" text-anchor="middle" font-family="system-ui" font-size="8" fill="rgba(255,255,255,0.7)">Small</text>
    </g>
    <g transform="translate(120, 45)">
      <rect x="0" y="0" width="90" height="40" rx="4" fill="rgba(0,0,0,0.3)"/>
      <text x="45" y="18" text-anchor="middle" font-family="system-ui" font-size="10" fill="#F8FAFC">TB → PB</text>
      <text x="45" y="32" text-anchor="middle" font-family="system-ui" font-size="8" fill="rgba(255,255,255,0.7)">Medium</text>
    </g>
    <g transform="translate(220, 45)">
      <rect x="0" y="0" width="90" height="40" rx="4" fill="rgba(0,0,0,0.4)"/>
      <text x="45" y="18" text-anchor="middle" font-family="system-ui" font-size="10" fill="#F8FAFC">PB → EB</text>
      <text x="45" y="32" text-anchor="middle" font-family="system-ui" font-size="8" fill="rgba(255,255,255,0.7)">Large</text>
    </g>
  </g>
  
  <g filter="url(#scaleShadow)" transform="translate(420, 80)">
    <rect x="0" y="0" width="380" height="100" rx="8" fill="url(#compGrad)"/>
    <text x="190" y="28" text-anchor="middle" font-family="system-ui" font-size="14" font-weight="bold" fill="#F8FAFC">⚙️ PROCESSING COMPLEXITY</text>
    <g transform="translate(20, 45)">
      <rect x="0" y="0" width="100" height="40" rx="4" fill="rgba(0,0,0,0.2)"/>
      <text x="50" y="18" text-anchor="middle" font-family="system-ui" font-size="10" fill="#F8FAFC">Simple ETL</text>
      <text x="50" y="32" text-anchor="middle" font-family="system-ui" font-size="8" fill="rgba(255,255,255,0.7)">Basic</text>
    </g>
    <g transform="translate(130, 45)">
      <rect x="0" y="0" width="110" height="40" rx="4" fill="rgba(0,0,0,0.3)"/>
      <text x="55" y="18" text-anchor="middle" font-family="system-ui" font-size="10" fill="#F8FAFC">ML Training</text>
      <text x="55" y="32" text-anchor="middle" font-family="system-ui" font-size="8" fill="rgba(255,255,255,0.7)">Complex</text>
    </g>
    <g transform="translate(250, 45)">
      <rect x="0" y="0" width="110" height="40" rx="4" fill="rgba(0,0,0,0.4)"/>
      <text x="55" y="18" text-anchor="middle" font-family="system-ui" font-size="10" fill="#F8FAFC">Real-time ML</text>
      <text x="55" y="32" text-anchor="middle" font-family="system-ui" font-size="8" fill="rgba(255,255,255,0.7)">Advanced</text>
    </g>
  </g>
  
  <g filter="url(#scaleShadow)" transform="translate(60, 195)">
    <rect x="0" y="0" width="340" height="100" rx="8" fill="url(#userGrad)"/>
    <text x="170" y="28" text-anchor="middle" font-family="system-ui" font-size="14" font-weight="bold" fill="#0F172A">👥 USER DEMAND</text>
    <g transform="translate(20, 45)">
      <rect x="0" y="0" width="90" height="40" rx="4" fill="rgba(0,0,0,0.2)"/>
      <text x="45" y="18" text-anchor="middle" font-family="system-ui" font-size="10" fill="#0F172A">10 → 1K</text>
      <text x="45" y="32" text-anchor="middle" font-family="system-ui" font-size="8" fill="rgba(0,0,0,0.6)">Startup</text>
    </g>
    <g transform="translate(120, 45)">
      <rect x="0" y="0" width="90" height="40" rx="4" fill="rgba(0,0,0,0.3)"/>
      <text x="45" y="18" text-anchor="middle" font-family="system-ui" font-size="10" fill="#0F172A">1K → 1M</text>
      <text x="45" y="32" text-anchor="middle" font-family="system-ui" font-size="8" fill="rgba(0,0,0,0.6)">Growth</text>
    </g>
    <g transform="translate(220, 45)">
      <rect x="0" y="0" width="90" height="40" rx="4" fill="rgba(0,0,0,0.4)"/>
      <text x="45" y="18" text-anchor="middle" font-family="system-ui" font-size="10" fill="#0F172A">1M → 1B</text>
      <text x="45" y="32" text-anchor="middle" font-family="system-ui" font-size="8" fill="rgba(0,0,0,0.6)">Scale</text>
    </g>
  </g>
  
  <g filter="url(#scaleShadow)" transform="translate(420, 195)">
    <rect x="0" y="0" width="380" height="100" rx="8" fill="url(#latGrad)"/>
    <text x="190" y="28" text-anchor="middle" font-family="system-ui" font-size="14" font-weight="bold" fill="#F8FAFC">⏱️ LATENCY REQUIREMENTS</text>
    <g transform="translate(20, 45)">
      <rect x="0" y="0" width="100" height="40" rx="4" fill="rgba(0,0,0,0.2)"/>
      <text x="50" y="18" text-anchor="middle" font-family="system-ui" font-size="10" fill="#F8FAFC">Hours</text>
      <text x="50" y="32" text-anchor="middle" font-family="system-ui" font-size="8" fill="rgba(255,255,255,0.7)">Batch</text>
    </g>
    <g transform="translate(130, 45)">
      <rect x="0" y="0" width="100" height="40" rx="4" fill="rgba(0,0,0,0.3)"/>
      <text x="50" y="18" text-anchor="middle" font-family="system-ui" font-size="10" fill="#F8FAFC">Seconds</text>
      <text x="50" y="32" text-anchor="middle" font-family="system-ui" font-size="8" fill="rgba(255,255,255,0.7)">Near-RT</text>
    </g>
    <g transform="translate(240, 45)">
      <rect x="0" y="0" width="120" height="40" rx="4" fill="rgba(0,0,0,0.4)"/>
      <text x="60" y="18" text-anchor="middle" font-family="system-ui" font-size="10" fill="#F8FAFC">Milliseconds</text>
      <text x="60" y="32" text-anchor="middle" font-family="system-ui" font-size="8" fill="rgba(255,255,255,0.7)">Real-time</text>
    </g>
  </g>
</svg>
