<svg xmlns="http://www.w3.org/2000/svg" viewBox="0 0 850 380">
  <defs>
    <linearGradient id="linQueGrad" x1="0%" y1="0%" x2="100%" y2="100%">
      <stop offset="0%" style="stop-color:#8B5CF6"/>
      <stop offset="100%" style="stop-color:#6D28D9"/>
    </linearGradient>
    <linearGradient id="fwdGrad" x1="0%" y1="0%" x2="100%" y2="100%">
      <stop offset="0%" style="stop-color:#10B981"/>
      <stop offset="100%" style="stop-color:#059669"/>
    </linearGradient>
    <linearGradient id="bwdGrad" x1="0%" y1="0%" x2="100%" y2="100%">
      <stop offset="0%" style="stop-color:#EF4444"/>
      <stop offset="100%" style="stop-color:#DC2626"/>
    </linearGradient>
    <filter id="linQueShadow" x="-5%" y="-5%" width="110%" height="115%">
      <feDropShadow dx="0" dy="2" stdDeviation="3" flood-opacity="0.2"/>
    </filter>
    <marker id="linQueArrow" markerWidth="8" markerHeight="6" refX="7" refY="3" orient="auto">
      <polygon points="0 0, 8 3, 0 6" fill="#64748B"/>
    </marker>
    <marker id="linQueArrowBack" markerWidth="8" markerHeight="6" refX="1" refY="3" orient="auto">
      <polygon points="8 0, 0 3, 8 6" fill="#64748B"/>
    </marker>
  </defs>
  
  <rect width="850" height="380" fill="#0F172A"/>
  
  <!-- Container -->
  <rect x="30" y="20" width="790" height="340" rx="12" fill="#1E293B" stroke="url(#linQueGrad)" stroke-width="2"/>
  <rect x="30" y="20" width="790" height="40" rx="12 12 0 0" fill="url(#linQueGrad)"/>
  <text x="425" y="47" text-anchor="middle" font-family="system-ui" font-size="16" font-weight="bold" fill="#F8FAFC">🔗 Data Lineage Questions</text>
  
  <!-- Forward Lineage Section -->
  <g transform="translate(50, 75)">
    <rect x="0" y="0" width="360" height="125" rx="8" fill="#0F172A" stroke="url(#fwdGrad)" stroke-width="2"/>
    <text x="180" y="22" text-anchor="middle" font-family="system-ui" font-size="11" font-weight="bold" fill="#10B981">▶ FORWARD LINEAGE (Impact Analysis)</text>
    <text x="180" y="40" text-anchor="middle" font-family="system-ui" font-size="9" fill="#94A3B8">"If I change this source, what's affected?"</text>
    
    <g filter="url(#linQueShadow)" transform="translate(20, 55)">
      <rect x="0" y="0" width="70" height="40" rx="4" fill="url(#fwdGrad)"/>
      <text x="35" y="25" text-anchor="middle" font-family="system-ui" font-size="9" font-weight="bold" fill="#F8FAFC">Source</text>
    </g>
    <path d="M95 75 L115 75" stroke="#64748B" stroke-width="2" marker-end="url(#linQueArrow)"/>
    <g transform="translate(120, 55)">
      <rect x="0" y="0" width="70" height="40" rx="4" fill="#334155"/>
      <text x="35" y="25" text-anchor="middle" font-family="system-ui" font-size="9" fill="#F8FAFC">Feature</text>
    </g>
    <path d="M195 75 L215 75" stroke="#64748B" stroke-width="2" marker-end="url(#linQueArrow)"/>
    <g transform="translate(220, 55)">
      <rect x="0" y="0" width="60" height="40" rx="4" fill="#334155"/>
      <text x="30" y="25" text-anchor="middle" font-family="system-ui" font-size="9" fill="#F8FAFC">Model</text>
    </g>
    <path d="M285 75 L305 75" stroke="#64748B" stroke-width="2" marker-end="url(#linQueArrow)"/>
    <g transform="translate(310, 55)">
      <rect x="0" y="0" width="35" height="40" rx="4" fill="#334155"/>
      <text x="17" y="25" text-anchor="middle" font-family="system-ui" font-size="8" fill="#F8FAFC">App</text>
    </g>
    
    <text x="180" y="115" text-anchor="middle" font-family="system-ui" font-size="9" fill="#10B981">✓ Know downstream impact before changes</text>
  </g>
  
  <!-- Backward Lineage Section -->
  <g transform="translate(430, 75)">
    <rect x="0" y="0" width="380" height="125" rx="8" fill="#0F172A" stroke="url(#bwdGrad)" stroke-width="2"/>
    <text x="190" y="22" text-anchor="middle" font-family="system-ui" font-size="11" font-weight="bold" fill="#EF4444">◀ BACKWARD LINEAGE (Root Cause)</text>
    <text x="190" y="40" text-anchor="middle" font-family="system-ui" font-size="9" fill="#94A3B8">"Why is this prediction wrong?"</text>
    
    <g filter="url(#linQueShadow)" transform="translate(20, 55)">
      <rect x="0" y="0" width="50" height="40" rx="4" fill="#334155" stroke="#EF4444" stroke-width="1" stroke-dasharray="3,2"/>
      <text x="25" y="25" text-anchor="middle" font-family="system-ui" font-size="14" fill="#EF4444">???</text>
    </g>
    <path d="M75 75 L95 75" stroke="#64748B" stroke-width="2" marker-start="url(#linQueArrowBack)"/>
    <g transform="translate(100, 55)">
      <rect x="0" y="0" width="50" height="40" rx="4" fill="#334155" stroke="#EF4444" stroke-width="1" stroke-dasharray="3,2"/>
      <text x="25" y="25" text-anchor="middle" font-family="system-ui" font-size="14" fill="#EF4444">???</text>
    </g>
    <path d="M155 75 L175 75" stroke="#64748B" stroke-width="2" marker-start="url(#linQueArrowBack)"/>
    <g transform="translate(180, 55)">
      <rect x="0" y="0" width="70" height="40" rx="4" fill="#334155"/>
      <text x="35" y="25" text-anchor="middle" font-family="system-ui" font-size="9" fill="#F8FAFC">Feature</text>
    </g>
    <path d="M255 75 L275 75" stroke="#64748B" stroke-width="2" marker-start="url(#linQueArrowBack)"/>
    <g transform="translate(280, 55)">
      <rect x="0" y="0" width="80" height="40" rx="4" fill="url(#bwdGrad)"/>
      <text x="40" y="25" text-anchor="middle" font-family="system-ui" font-size="9" font-weight="bold" fill="#F8FAFC">Bad Model</text>
    </g>
    
    <text x="190" y="115" text-anchor="middle" font-family="system-ui" font-size="9" fill="#EF4444">✓ Trace issues back to source</text>
  </g>
  
  <!-- Combined Use Cases -->
  <g transform="translate(50, 215)">
    <rect x="0" y="0" width="760" height="130" rx="8" fill="#334155"/>
    <text x="380" y="25" text-anchor="middle" font-family="system-ui" font-size="12" font-weight="bold" fill="#F8FAFC">🎯 Common Lineage Use Cases</text>
    
    <g transform="translate(30, 45)">
      <rect x="0" y="0" width="220" height="70" rx="6" fill="url(#fwdGrad)" opacity="0.2"/>
      <text x="110" y="22" text-anchor="middle" font-family="system-ui" font-size="10" font-weight="bold" fill="#10B981">Impact Analysis</text>
      <text x="110" y="40" text-anchor="middle" font-family="system-ui" font-size="8" fill="#94A3B8">Schema change propagation</text>
      <text x="110" y="55" text-anchor="middle" font-family="system-ui" font-size="8" fill="#94A3B8">Deprecation planning</text>
    </g>
    
    <g transform="translate(270, 45)">
      <rect x="0" y="0" width="220" height="70" rx="6" fill="url(#bwdGrad)" opacity="0.2"/>
      <text x="110" y="22" text-anchor="middle" font-family="system-ui" font-size="10" font-weight="bold" fill="#EF4444">Debug &amp; Audit</text>
      <text x="110" y="40" text-anchor="middle" font-family="system-ui" font-size="8" fill="#94A3B8">Data quality issues</text>
      <text x="110" y="55" text-anchor="middle" font-family="system-ui" font-size="8" fill="#94A3B8">Model debugging</text>
    </g>
    
    <g transform="translate(510, 45)">
      <rect x="0" y="0" width="220" height="70" rx="6" fill="url(#linQueGrad)" opacity="0.2"/>
      <text x="110" y="22" text-anchor="middle" font-family="system-ui" font-size="10" font-weight="bold" fill="#8B5CF6">Compliance</text>
      <text x="110" y="40" text-anchor="middle" font-family="system-ui" font-size="8" fill="#94A3B8">GDPR data tracking</text>
      <text x="110" y="55" text-anchor="middle" font-family="system-ui" font-size="8" fill="#94A3B8">Audit trails</text>
    </g>
  </g>
</svg>
