<svg xmlns="http://www.w3.org/2000/svg" viewBox="0 0 900 500">
  <defs>
    <linearGradient id="versionGrad" x1="0%" y1="0%" x2="100%" y2="100%">
      <stop offset="0%" style="stop-color:#6366F1;stop-opacity:1" />
      <stop offset="100%" style="stop-color:#4F46E5;stop-opacity:1" />
    </linearGradient>
    <linearGradient id="lineageGrad" x1="0%" y1="0%" x2="100%" y2="100%">
      <stop offset="0%" style="stop-color:#10B981;stop-opacity:1" />
      <stop offset="100%" style="stop-color:#059669;stop-opacity:1" />
    </linearGradient>
  </defs>
  
  <!-- Background -->
  <rect width="900" height="500" fill="#0F172A"/>
  
  <!-- Title -->
  <text x="450" y="35" fill="#F8FAFC" font-family="system-ui" font-size="24" font-weight="bold" text-anchor="middle">Data Versioning &amp; Lineage</text>
  
  <!-- Left: Versioning -->
  <g transform="translate(30, 60)">
    <rect x="0" y="0" width="400" height="200" rx="12" fill="#1E293B" stroke="#6366F1" stroke-width="2"/>
    <rect x="0" y="0" width="400" height="45" rx="12" fill="url(#versionGrad)"/>
    <text x="200" y="30" fill="#f8fafc" font-family="system-ui" font-size="16" font-weight="bold" text-anchor="middle">📦 Data Versioning</text>
    
    <!-- Git-like branches -->
    <g transform="translate(30, 60)">
      <!-- Main branch -->
      <line x1="30" y1="30" x2="330" y2="30" stroke="#6366F1" stroke-width="4"/>
      <circle cx="30" cy="30" r="8" fill="#6366F1"/>
      <circle cx="110" cy="30" r="8" fill="#6366F1"/>
      <circle cx="210" cy="30" r="8" fill="#6366F1"/>
      <circle cx="290" cy="30" r="8" fill="#6366F1"/>
      <circle cx="330" cy="30" r="8" fill="#6366F1"/>
      
      <!-- Version labels -->
      <text x="30" y="55" fill="#A5B4FC" font-family="monospace" font-size="9" text-anchor="middle">v1.0</text>
      <text x="110" y="55" fill="#A5B4FC" font-family="monospace" font-size="9" text-anchor="middle">v1.1</text>
      <text x="210" y="55" fill="#A5B4FC" font-family="monospace" font-size="9" text-anchor="middle">v2.0</text>
      <text x="290" y="55" fill="#A5B4FC" font-family="monospace" font-size="9" text-anchor="middle">v2.1</text>
      <text x="330" y="55" fill="#A5B4FC" font-family="monospace" font-size="9" text-anchor="middle">HEAD</text>
      
      <!-- Feature branch -->
      <path d="M 110 30 Q 130 -10 160 10 Q 190 30 210 30" stroke="#F59E0B" stroke-width="3" fill="none"/>
      <circle cx="160" cy="10" r="6" fill="#F59E0B"/>
      <text x="160" y="-5" fill="#FBBF24" font-family="monospace" font-size="8" text-anchor="middle">experiment</text>
      
      <text x="180" y="90" fill="#94A3B8" font-family="system-ui" font-size="10" text-anchor="middle">main</text>
    </g>
    
    <!-- Key features -->
    <text x="50" y="175" fill="#6EE7B7" font-family="system-ui" font-size="10">✓ Time travel</text>
    <text x="150" y="175" fill="#6EE7B7" font-family="system-ui" font-size="10">✓ Rollback</text>
    <text x="240" y="175" fill="#6EE7B7" font-family="system-ui" font-size="10">✓ Reproducibility</text>
  </g>
  
  <!-- Right: Lineage -->
  <g transform="translate(470, 60)">
    <rect x="0" y="0" width="400" height="200" rx="12" fill="#1E293B" stroke="#10B981" stroke-width="2"/>
    <rect x="0" y="0" width="400" height="45" rx="12" fill="url(#lineageGrad)"/>
    <text x="200" y="30" fill="#f8fafc" font-family="system-ui" font-size="16" font-weight="bold" text-anchor="middle">🔗 Data Lineage</text>
    
    <!-- Lineage graph -->
    <g transform="translate(30, 55)">
      <!-- Source nodes -->
      <rect x="0" y="20" width="70" height="30" rx="4" fill="#334155"/>
      <text x="35" y="40" fill="#94A3B8" font-family="system-ui" font-size="9" text-anchor="middle">Users DB</text>
      
      <rect x="0" y="65" width="70" height="30" rx="4" fill="#334155"/>
      <text x="35" y="85" fill="#94A3B8" font-family="system-ui" font-size="9" text-anchor="middle">Events</text>
      
      <!-- Transform -->
      <rect x="120" y="42" width="80" height="35" rx="4" fill="#10B981" opacity="0.3"/>
      <text x="160" y="65" fill="#6EE7B7" font-family="system-ui" font-size="9" text-anchor="middle">Join and Clean</text>
      
      <!-- Intermediate -->
      <rect x="240" y="42" width="80" height="35" rx="4" fill="#10B981" opacity="0.5"/>
      <text x="280" y="65" fill="#6EE7B7" font-family="system-ui" font-size="9" text-anchor="middle">Features</text>
      
      <!-- Output -->
      <rect x="340" y="15" width="60" height="25" rx="4" fill="#10B981"/>
      <text x="370" y="32" fill="#f8fafc" font-family="system-ui" font-size="8" text-anchor="middle">Model</text>
      
      <rect x="340" y="50" width="60" height="25" rx="4" fill="#10B981"/>
      <text x="370" y="67" fill="#f8fafc" font-family="system-ui" font-size="8" text-anchor="middle">Dashboard</text>
      
      <!-- Lines -->
      <line x1="70" y1="35" x2="120" y2="55" stroke="#475569" stroke-width="2"/>
      <line x1="70" y1="80" x2="120" y2="65" stroke="#475569" stroke-width="2"/>
      <line x1="200" y1="60" x2="240" y2="60" stroke="#475569" stroke-width="2"/>
      <line x1="320" y1="55" x2="340" y2="28" stroke="#475569" stroke-width="2"/>
      <line x1="320" y1="65" x2="340" y2="63" stroke="#475569" stroke-width="2"/>
    </g>
    
    <!-- Key features -->
    <text x="50" y="175" fill="#6EE7B7" font-family="system-ui" font-size="10">✓ Impact analysis</text>
    <text x="170" y="175" fill="#6EE7B7" font-family="system-ui" font-size="10">✓ Root cause</text>
    <text x="280" y="175" fill="#6EE7B7" font-family="system-ui" font-size="10">✓ Compliance</text>
  </g>
  
  <!-- Tools Section -->
  <g transform="translate(30, 280)">
    <rect x="0" y="0" width="840" height="200" rx="12" fill="#1E293B" stroke="#475569" stroke-width="1"/>
    <text x="420" y="30" fill="#F8FAFC" font-family="system-ui" font-size="16" font-weight="bold" text-anchor="middle">🛠️ Tools &amp; Technologies</text>
    
    <!-- DVC -->
    <g transform="translate(40, 50)">
      <rect x="0" y="0" width="150" height="120" rx="8" fill="#334155" stroke="#6366F1" stroke-width="2"/>
      <text x="75" y="25" fill="#6366F1" font-family="system-ui" font-size="13" font-weight="bold" text-anchor="middle">DVC</text>
      <text x="75" y="50" fill="#94A3B8" font-family="system-ui" font-size="9" text-anchor="middle">Data Version Control</text>
      <text x="15" y="75" fill="#A5B4FC" font-family="system-ui" font-size="9">• Git for data</text>
      <text x="15" y="92" fill="#A5B4FC" font-family="system-ui" font-size="9">• ML pipelines</text>
      <text x="15" y="109" fill="#A5B4FC" font-family="system-ui" font-size="9">• Experiments</text>
    </g>
    
    <!-- Delta Lake -->
    <g transform="translate(210, 50)">
      <rect x="0" y="0" width="150" height="120" rx="8" fill="#334155" stroke="#10B981" stroke-width="2"/>
      <text x="75" y="25" fill="#10B981" font-family="system-ui" font-size="13" font-weight="bold" text-anchor="middle">Delta Lake</text>
      <text x="75" y="50" fill="#94A3B8" font-family="system-ui" font-size="9" text-anchor="middle">Time Travel Tables</text>
      <text x="15" y="75" fill="#6EE7B7" font-family="system-ui" font-size="9">• ACID transactions</text>
      <text x="15" y="92" fill="#6EE7B7" font-family="system-ui" font-size="9">• Version history</text>
      <text x="15" y="109" fill="#6EE7B7" font-family="system-ui" font-size="9">• Schema evolution</text>
    </g>
    
    <!-- lakeFS -->
    <g transform="translate(380, 50)">
      <rect x="0" y="0" width="150" height="120" rx="8" fill="#334155" stroke="#3B82F6" stroke-width="2"/>
      <text x="75" y="25" fill="#3B82F6" font-family="system-ui" font-size="13" font-weight="bold" text-anchor="middle">lakeFS</text>
      <text x="75" y="50" fill="#94A3B8" font-family="system-ui" font-size="9" text-anchor="middle">Git for Data Lakes</text>
      <text x="15" y="75" fill="#93C5FD" font-family="system-ui" font-size="9">• Branch and merge</text>
      <text x="15" y="92" fill="#93C5FD" font-family="system-ui" font-size="9">• Zero-copy</text>
      <text x="15" y="109" fill="#93C5FD" font-family="system-ui" font-size="9">• S3-compatible</text>
    </g>
    
    <!-- OpenLineage -->
    <g transform="translate(550, 50)">
      <rect x="0" y="0" width="150" height="120" rx="8" fill="#334155" stroke="#F59E0B" stroke-width="2"/>
      <text x="75" y="25" fill="#F59E0B" font-family="system-ui" font-size="13" font-weight="bold" text-anchor="middle">OpenLineage</text>
      <text x="75" y="50" fill="#94A3B8" font-family="system-ui" font-size="9" text-anchor="middle">Standard for Lineage</text>
      <text x="15" y="75" fill="#FCD34D" font-family="system-ui" font-size="9">• Cross-platform</text>
      <text x="15" y="92" fill="#FCD34D" font-family="system-ui" font-size="9">• Open standard</text>
      <text x="15" y="109" fill="#FCD34D" font-family="system-ui" font-size="9">• Real-time events</text>
    </g>
    
    <!-- MLflow -->
    <g transform="translate(720, 50)">
      <rect x="0" y="0" width="100" height="120" rx="8" fill="#334155" stroke="#8B5CF6" stroke-width="2"/>
      <text x="50" y="25" fill="#8B5CF6" font-family="system-ui" font-size="13" font-weight="bold" text-anchor="middle">MLflow</text>
      <text x="50" y="50" fill="#94A3B8" font-family="system-ui" font-size="9" text-anchor="middle">ML Lifecycle</text>
      <text x="10" y="75" fill="#C4B5FD" font-family="system-ui" font-size="9">• Tracking</text>
      <text x="10" y="92" fill="#C4B5FD" font-family="system-ui" font-size="9">• Registry</text>
      <text x="10" y="109" fill="#C4B5FD" font-family="system-ui" font-size="9">• Projects</text>
    </g>
  </g>
</svg>

