<svg xmlns="http://www.w3.org/2000/svg" viewBox="0 0 800 450">
  <defs>
    <linearGradient id="coldGrad" x1="0%" y1="0%" x2="100%" y2="100%">
      <stop offset="0%" style="stop-color:#3b82f6"/>
      <stop offset="100%" style="stop-color:#1d4ed8"/>
    </linearGradient>
    <linearGradient id="warmGrad" x1="0%" y1="0%" x2="100%" y2="100%">
      <stop offset="0%" style="stop-color:#f59e0b"/>
      <stop offset="100%" style="stop-color:#d97706"/>
    </linearGradient>
    <linearGradient id="hotGrad" x1="0%" y1="0%" x2="100%" y2="100%">
      <stop offset="0%" style="stop-color:#ef4444"/>
      <stop offset="100%" style="stop-color:#dc2626"/>
    </linearGradient>
    <filter id="shadow" x="-10%" y="-10%" width="120%" height="120%">
      <feDropShadow dx="2" dy="2" stdDeviation="3" flood-opacity="0.25"/>
    </filter>
  </defs>
  
  <rect width="100%" height="100%" fill="#0f172a"/>
  
  <text x="400" y="35" text-anchor="middle" font-family="Segoe UI, sans-serif" font-size="22" font-weight="bold" fill="#f8fafc">🧊 The Cold Start Challenge</text>
  
  <!-- Traditional Matrix (Left) -->
  <g transform="translate(50, 70)">
    <rect x="0" y="0" width="300" height="180" rx="12" fill="#1e293b" filter="url(#shadow)"/>
    <text x="150" y="28" text-anchor="middle" font-family="Segoe UI, sans-serif" font-size="14" font-weight="bold" fill="#10b981">✓ Traditional CF (Dense Data)</text>
    
    <!-- Matrix -->
    <g transform="translate(35, 50)">
      <text x="-15" y="15" font-family="Segoe UI, sans-serif" font-size="10" fill="#64748b">U1</text>
      <text x="-15" y="40" font-family="Segoe UI, sans-serif" font-size="10" fill="#64748b">U2</text>
      <text x="-15" y="65" font-family="Segoe UI, sans-serif" font-size="10" fill="#64748b">U3</text>
      
      <text x="15" y="-5" font-family="Segoe UI, sans-serif" font-size="9" fill="#64748b">I1</text>
      <text x="60" y="-5" font-family="Segoe UI, sans-serif" font-size="9" fill="#64748b">I2</text>
      <text x="105" y="-5" font-family="Segoe UI, sans-serif" font-size="9" fill="#64748b">I3</text>
      <text x="150" y="-5" font-family="Segoe UI, sans-serif" font-size="9" fill="#64748b">I4</text>
      <text x="195" y="-5" font-family="Segoe UI, sans-serif" font-size="9" fill="#64748b">I5</text>
      
      <!-- Row 1 -->
      <rect x="0" y="0" width="40" height="25" rx="4" fill="#10b981"/>
      <text x="20" y="17" text-anchor="middle" font-family="Segoe UI, sans-serif" font-size="11" font-weight="bold" fill="#f8fafc">5</text>
      <rect x="45" y="0" width="40" height="25" rx="4" fill="#fbbf24"/>
      <text x="65" y="17" text-anchor="middle" font-family="Segoe UI, sans-serif" font-size="11" font-weight="bold" fill="#f8fafc">3</text>
      <rect x="90" y="0" width="40" height="25" rx="4" fill="#334155"/>
      <text x="110" y="17" text-anchor="middle" font-family="Segoe UI, sans-serif" font-size="11" fill="#94a3b8">?</text>
      <rect x="135" y="0" width="40" height="25" rx="4" fill="#22c55e"/>
      <text x="155" y="17" text-anchor="middle" font-family="Segoe UI, sans-serif" font-size="11" font-weight="bold" fill="#f8fafc">4</text>
      <rect x="180" y="0" width="40" height="25" rx="4" fill="#ef4444"/>
      <text x="200" y="17" text-anchor="middle" font-family="Segoe UI, sans-serif" font-size="11" font-weight="bold" fill="#f8fafc">1</text>
      
      <!-- Row 2 -->
      <rect x="0" y="30" width="40" height="25" rx="4" fill="#22c55e"/>
      <text x="20" y="47" text-anchor="middle" font-family="Segoe UI, sans-serif" font-size="11" font-weight="bold" fill="#f8fafc">4</text>
      <rect x="45" y="30" width="40" height="25" rx="4" fill="#334155"/>
      <text x="65" y="47" text-anchor="middle" font-family="Segoe UI, sans-serif" font-size="11" fill="#94a3b8">?</text>
      <rect x="90" y="30" width="40" height="25" rx="4" fill="#fbbf24"/>
      <text x="110" y="47" text-anchor="middle" font-family="Segoe UI, sans-serif" font-size="11" font-weight="bold" fill="#f8fafc">3</text>
      <rect x="135" y="30" width="40" height="25" rx="4" fill="#334155"/>
      <text x="155" y="47" text-anchor="middle" font-family="Segoe UI, sans-serif" font-size="11" fill="#94a3b8">?</text>
      <rect x="180" y="30" width="40" height="25" rx="4" fill="#10b981"/>
      <text x="200" y="47" text-anchor="middle" font-family="Segoe UI, sans-serif" font-size="11" font-weight="bold" fill="#f8fafc">5</text>
      
      <!-- Row 3 -->
      <rect x="0" y="60" width="40" height="25" rx="4" fill="#334155"/>
      <text x="20" y="77" text-anchor="middle" font-family="Segoe UI, sans-serif" font-size="11" fill="#94a3b8">?</text>
      <rect x="45" y="60" width="40" height="25" rx="4" fill="#22c55e"/>
      <text x="65" y="77" text-anchor="middle" font-family="Segoe UI, sans-serif" font-size="11" font-weight="bold" fill="#f8fafc">4</text>
      <rect x="90" y="60" width="40" height="25" rx="4" fill="#10b981"/>
      <text x="110" y="77" text-anchor="middle" font-family="Segoe UI, sans-serif" font-size="11" font-weight="bold" fill="#f8fafc">5</text>
      <rect x="135" y="60" width="40" height="25" rx="4" fill="#fbbf24"/>
      <text x="155" y="77" text-anchor="middle" font-family="Segoe UI, sans-serif" font-size="11" font-weight="bold" fill="#f8fafc">2</text>
      <rect x="180" y="60" width="40" height="25" rx="4" fill="#334155"/>
      <text x="200" y="77" text-anchor="middle" font-family="Segoe UI, sans-serif" font-size="11" fill="#94a3b8">?</text>
    </g>
    
    <text x="150" y="155" text-anchor="middle" font-family="Segoe UI, sans-serif" font-size="11" fill="#94a3b8">Can predict '?' from patterns</text>
  </g>
  
  <!-- Arrow -->
  <path d="M 370 160 L 420 160" stroke="#64748b" stroke-width="2" stroke-dasharray="5,5"/>
  <text x="395" y="145" text-anchor="middle" font-family="Segoe UI, sans-serif" font-size="12" fill="#64748b">vs</text>
  
  <!-- Cold Start Matrix (Right) -->
  <g transform="translate(450, 70)">
    <rect x="0" y="0" width="300" height="180" rx="12" fill="#1e293b" filter="url(#shadow)"/>
    <text x="150" y="28" text-anchor="middle" font-family="Segoe UI, sans-serif" font-size="14" font-weight="bold" fill="#ef4444">✗ Cold Start (New User)</text>
    
    <!-- Matrix -->
    <g transform="translate(35, 50)">
      <text x="-15" y="15" font-family="Segoe UI, sans-serif" font-size="10" fill="#ef4444" font-weight="bold">New</text>
      <text x="-15" y="40" font-family="Segoe UI, sans-serif" font-size="10" fill="#64748b">U2</text>
      <text x="-15" y="65" font-family="Segoe UI, sans-serif" font-size="10" fill="#64748b">U3</text>
      
      <text x="15" y="-5" font-family="Segoe UI, sans-serif" font-size="9" fill="#64748b">I1</text>
      <text x="60" y="-5" font-family="Segoe UI, sans-serif" font-size="9" fill="#64748b">I2</text>
      <text x="105" y="-5" font-family="Segoe UI, sans-serif" font-size="9" fill="#64748b">I3</text>
      <text x="150" y="-5" font-family="Segoe UI, sans-serif" font-size="9" fill="#64748b">I4</text>
      <text x="195" y="-5" font-family="Segoe UI, sans-serif" font-size="9" fill="#64748b">I5</text>
      
      <!-- Row 1 - All unknown -->
      <rect x="0" y="0" width="40" height="25" rx="4" fill="#7f1d1d" stroke="#ef4444" stroke-width="2" stroke-dasharray="4,2"/>
      <text x="20" y="17" text-anchor="middle" font-family="Segoe UI, sans-serif" font-size="11" fill="#fca5a5">?</text>
      <rect x="45" y="0" width="40" height="25" rx="4" fill="#7f1d1d" stroke="#ef4444" stroke-width="2" stroke-dasharray="4,2"/>
      <text x="65" y="17" text-anchor="middle" font-family="Segoe UI, sans-serif" font-size="11" fill="#fca5a5">?</text>
      <rect x="90" y="0" width="40" height="25" rx="4" fill="#7f1d1d" stroke="#ef4444" stroke-width="2" stroke-dasharray="4,2"/>
      <text x="110" y="17" text-anchor="middle" font-family="Segoe UI, sans-serif" font-size="11" fill="#fca5a5">?</text>
      <rect x="135" y="0" width="40" height="25" rx="4" fill="#7f1d1d" stroke="#ef4444" stroke-width="2" stroke-dasharray="4,2"/>
      <text x="155" y="17" text-anchor="middle" font-family="Segoe UI, sans-serif" font-size="11" fill="#fca5a5">?</text>
      <rect x="180" y="0" width="40" height="25" rx="4" fill="#7f1d1d" stroke="#ef4444" stroke-width="2" stroke-dasharray="4,2"/>
      <text x="200" y="17" text-anchor="middle" font-family="Segoe UI, sans-serif" font-size="11" fill="#fca5a5">?</text>
      
      <!-- Row 2 and 3 same as before -->
      <rect x="0" y="30" width="40" height="25" rx="4" fill="#22c55e"/>
      <text x="20" y="47" text-anchor="middle" font-family="Segoe UI, sans-serif" font-size="11" font-weight="bold" fill="#f8fafc">4</text>
      <rect x="45" y="30" width="40" height="25" rx="4" fill="#334155"/>
      <text x="65" y="47" text-anchor="middle" font-family="Segoe UI, sans-serif" font-size="11" fill="#94a3b8">?</text>
      <rect x="90" y="30" width="40" height="25" rx="4" fill="#fbbf24"/>
      <text x="110" y="47" text-anchor="middle" font-family="Segoe UI, sans-serif" font-size="11" font-weight="bold" fill="#f8fafc">3</text>
      <rect x="135" y="30" width="40" height="25" rx="4" fill="#334155"/>
      <text x="155" y="47" text-anchor="middle" font-family="Segoe UI, sans-serif" font-size="11" fill="#94a3b8">?</text>
      <rect x="180" y="30" width="40" height="25" rx="4" fill="#10b981"/>
      <text x="200" y="47" text-anchor="middle" font-family="Segoe UI, sans-serif" font-size="11" font-weight="bold" fill="#f8fafc">5</text>
      
      <rect x="0" y="60" width="40" height="25" rx="4" fill="#334155"/>
      <text x="20" y="77" text-anchor="middle" font-family="Segoe UI, sans-serif" font-size="11" fill="#94a3b8">?</text>
      <rect x="45" y="60" width="40" height="25" rx="4" fill="#22c55e"/>
      <text x="65" y="77" text-anchor="middle" font-family="Segoe UI, sans-serif" font-size="11" font-weight="bold" fill="#f8fafc">4</text>
      <rect x="90" y="60" width="40" height="25" rx="4" fill="#10b981"/>
      <text x="110" y="77" text-anchor="middle" font-family="Segoe UI, sans-serif" font-size="11" font-weight="bold" fill="#f8fafc">5</text>
      <rect x="135" y="60" width="40" height="25" rx="4" fill="#fbbf24"/>
      <text x="155" y="77" text-anchor="middle" font-family="Segoe UI, sans-serif" font-size="11" font-weight="bold" fill="#f8fafc">2</text>
      <rect x="180" y="60" width="40" height="25" rx="4" fill="#334155"/>
      <text x="200" y="77" text-anchor="middle" font-family="Segoe UI, sans-serif" font-size="11" fill="#94a3b8">?</text>
    </g>
    
    <text x="150" y="155" text-anchor="middle" font-family="Segoe UI, sans-serif" font-size="11" fill="#fca5a5">No history → Cannot predict!</text>
  </g>
  
  <!-- Cold Start Types -->
  <g transform="translate(50, 280)">
    <rect x="0" y="0" width="700" height="150" rx="12" fill="rgba(255,255,255,0.03)" stroke="#334155"/>
    <text x="350" y="25" text-anchor="middle" font-family="Segoe UI, sans-serif" font-size="14" font-weight="bold" fill="#f8fafc">Types of Cold Start</text>
    
    <!-- New User -->
    <g transform="translate(30, 45)">
      <rect x="0" y="0" width="200" height="85" rx="8" fill="url(#coldGrad)" filter="url(#shadow)"/>
      <text x="100" y="22" text-anchor="middle" font-family="Segoe UI, sans-serif" font-size="13" font-weight="bold" fill="#f8fafc">🆕 New User</text>
      <text x="100" y="45" text-anchor="middle" font-family="Segoe UI, sans-serif" font-size="10" fill="#dbeafe">No interaction history</text>
      <text x="100" y="62" text-anchor="middle" font-family="Segoe UI, sans-serif" font-size="10" fill="#dbeafe">Solution: Demographics,</text>
      <text x="100" y="76" text-anchor="middle" font-family="Segoe UI, sans-serif" font-size="10" fill="#dbeafe">onboarding, bandits</text>
    </g>
    
    <!-- New Item -->
    <g transform="translate(250, 45)">
      <rect x="0" y="0" width="200" height="85" rx="8" fill="url(#warmGrad)" filter="url(#shadow)"/>
      <text x="100" y="22" text-anchor="middle" font-family="Segoe UI, sans-serif" font-size="13" font-weight="bold" fill="#f8fafc">📦 New Item</text>
      <text x="100" y="45" text-anchor="middle" font-family="Segoe UI, sans-serif" font-size="10" fill="#fef3c7">No user ratings yet</text>
      <text x="100" y="62" text-anchor="middle" font-family="Segoe UI, sans-serif" font-size="10" fill="#fef3c7">Solution: Content-based,</text>
      <text x="100" y="76" text-anchor="middle" font-family="Segoe UI, sans-serif" font-size="10" fill="#fef3c7">expert curation</text>
    </g>
    
    <!-- New System -->
    <g transform="translate(470, 45)">
      <rect x="0" y="0" width="200" height="85" rx="8" fill="url(#hotGrad)" filter="url(#shadow)"/>
      <text x="100" y="22" text-anchor="middle" font-family="Segoe UI, sans-serif" font-size="13" font-weight="bold" fill="#f8fafc">🔥 New System</text>
      <text x="100" y="45" text-anchor="middle" font-family="Segoe UI, sans-serif" font-size="10" fill="#fecaca">Both users and items new</text>
      <text x="100" y="62" text-anchor="middle" font-family="Segoe UI, sans-serif" font-size="10" fill="#fecaca">Solution: Popularity,</text>
      <text x="100" y="76" text-anchor="middle" font-family="Segoe UI, sans-serif" font-size="10" fill="#fecaca">knowledge transfer</text>
    </g>
  </g>
</svg>
