<svg xmlns="http://www.w3.org/2000/svg" viewBox="0 0 800 500">
  <defs>
    <filter id="shadow" x="-5%" y="-5%" width="110%" height="115%">
      <feDropShadow dx="0" dy="3" stdDeviation="4" flood-opacity="0.2"/>
    </filter>
    <marker id="arrow" markerWidth="10" markerHeight="7" refX="9" refY="3.5" orient="auto">
      <polygon points="0 0, 10 3.5, 0 7" fill="#475569"/>
    </marker>
  </defs>
  
  <rect width="100%" height="100%" fill="#0f172a"/>
  
  <text x="400" y="35" text-anchor="middle" font-family="Segoe UI, sans-serif" font-size="20" font-weight="bold" fill="#f8fafc">📋 ML Governance Framework</text>
  
  <!-- Accountability -->
  <g filter="url(#shadow)">
    <rect x="50" y="70" width="700" height="95" rx="12" fill="#1e293b"/>
    <rect x="50" y="70" width="10" height="95" rx="5 0 0 5" fill="#3b82f6"/>
    <text x="80" y="100" font-family="Segoe UI, sans-serif" font-size="15" font-weight="bold" fill="#60a5fa">ACCOUNTABILITY</text>
    <line x1="70" y1="115" x2="730" y2="115" stroke="#334155"/>
    <text x="80" y="138" font-family="Segoe UI, sans-serif" font-size="11" fill="#94a3b8">• Model ownership</text>
    <text x="250" y="138" font-family="Segoe UI, sans-serif" font-size="11" fill="#94a3b8">• Decision authority</text>
    <text x="430" y="138" font-family="Segoe UI, sans-serif" font-size="11" fill="#94a3b8">• Approval workflows</text>
    <text x="610" y="138" font-family="Segoe UI, sans-serif" font-size="11" fill="#94a3b8">• Escalation paths</text>
  </g>
  
  <line x1="400" y1="165" x2="400" y2="180" stroke="#475569" stroke-width="2" marker-end="url(#arrow)"/>
  
  <!-- Transparency -->
  <g filter="url(#shadow)">
    <rect x="50" y="185" width="700" height="95" rx="12" fill="#1e293b"/>
    <rect x="50" y="185" width="10" height="95" rx="5 0 0 5" fill="#10b981"/>
    <text x="80" y="215" font-family="Segoe UI, sans-serif" font-size="15" font-weight="bold" fill="#6ee7b7">TRANSPARENCY</text>
    <line x1="70" y1="230" x2="730" y2="230" stroke="#334155"/>
    <text x="80" y="253" font-family="Segoe UI, sans-serif" font-size="11" fill="#94a3b8">• Model documentation</text>
    <text x="250" y="253" font-family="Segoe UI, sans-serif" font-size="11" fill="#94a3b8">• Explainability</text>
    <text x="430" y="253" font-family="Segoe UI, sans-serif" font-size="11" fill="#94a3b8">• Decision logging</text>
    <text x="610" y="253" font-family="Segoe UI, sans-serif" font-size="11" fill="#94a3b8">• Performance reporting</text>
  </g>
  
  <line x1="400" y1="280" x2="400" y2="295" stroke="#475569" stroke-width="2" marker-end="url(#arrow)"/>
  
  <!-- Fairness -->
  <g filter="url(#shadow)">
    <rect x="50" y="300" width="700" height="95" rx="12" fill="#1e293b"/>
    <rect x="50" y="300" width="10" height="95" rx="5 0 0 5" fill="#8b5cf6"/>
    <text x="80" y="330" font-family="Segoe UI, sans-serif" font-size="15" font-weight="bold" fill="#a78bfa">FAIRNESS</text>
    <line x1="70" y1="345" x2="730" y2="345" stroke="#334155"/>
    <text x="80" y="368" font-family="Segoe UI, sans-serif" font-size="11" fill="#94a3b8">• Bias detection</text>
    <text x="250" y="368" font-family="Segoe UI, sans-serif" font-size="11" fill="#94a3b8">• Disparate impact analysis</text>
    <text x="450" y="368" font-family="Segoe UI, sans-serif" font-size="11" fill="#94a3b8">• Protected attributes</text>
    <text x="650" y="368" font-family="Segoe UI, sans-serif" font-size="11" fill="#94a3b8">• Compliance</text>
  </g>
  
  <line x1="400" y1="395" x2="400" y2="410" stroke="#475569" stroke-width="2" marker-end="url(#arrow)"/>
  
  <!-- Auditability -->
  <g filter="url(#shadow)">
    <rect x="50" y="415" width="700" height="75" rx="12" fill="#1e293b"/>
    <rect x="50" y="415" width="10" height="75" rx="5 0 0 5" fill="#f59e0b"/>
    <text x="80" y="445" font-family="Segoe UI, sans-serif" font-size="15" font-weight="bold" fill="#fcd34d">AUDITABILITY</text>
    <line x1="70" y1="460" x2="730" y2="460" stroke="#334155"/>
    <text x="80" y="480" font-family="Segoe UI, sans-serif" font-size="11" fill="#94a3b8">• Complete audit trails</text>
    <text x="260" y="480" font-family="Segoe UI, sans-serif" font-size="11" fill="#94a3b8">• Reproducibility</text>
    <text x="440" y="480" font-family="Segoe UI, sans-serif" font-size="11" fill="#94a3b8">• Version control</text>
    <text x="620" y="480" font-family="Segoe UI, sans-serif" font-size="11" fill="#94a3b8">• Change management</text>
  </g>
</svg>
