<svg xmlns="http://www.w3.org/2000/svg" viewBox="0 0 800 400">
  <defs>
    <linearGradient id="rtGrad" x1="0%" y1="0%" x2="100%" y2="100%">
      <stop offset="0%" style="stop-color:#3b82f6"/>
      <stop offset="100%" style="stop-color:#1d4ed8"/>
    </linearGradient>
    <linearGradient id="batchGrad" x1="0%" y1="0%" x2="100%" y2="100%">
      <stop offset="0%" style="stop-color:#8b5cf6"/>
      <stop offset="100%" style="stop-color:#6d28d9"/>
    </linearGradient>
    <filter id="shadow" x="-5%" y="-5%" width="110%" height="115%">
      <feDropShadow dx="0" dy="3" stdDeviation="4" flood-opacity="0.2"/>
    </filter>
  </defs>
  
  <rect width="100%" height="100%" fill="#0f172a"/>
  
  <text x="400" y="35" text-anchor="middle" font-family="Segoe UI, sans-serif" font-size="20" font-weight="bold" fill="#f8fafc">⚡ Real-time vs Batch Monitoring</text>
  
  <!-- Real-time Column -->
  <g filter="url(#shadow)">
    <rect x="50" y="60" width="330" height="320" rx="14" fill="#1e293b"/>
    <rect x="50" y="60" width="330" height="45" rx="14 14 0 0" fill="url(#rtGrad)"/>
    <text x="215" y="90" text-anchor="middle" font-family="Segoe UI, sans-serif" font-size="15" font-weight="bold" fill="#f8fafc">⚡ Real-time Monitoring</text>
    
    <g transform="translate(70, 125)">
      <rect width="290" height="35" rx="6" fill="#334155"/>
      <text x="15" y="23" font-family="Segoe UI, sans-serif" font-size="12" fill="#60a5fa">✓</text>
      <text x="35" y="23" font-family="Segoe UI, sans-serif" font-size="11" fill="#94a3b8">Immediate feedback</text>
    </g>
    <g transform="translate(70, 170)">
      <rect width="290" height="35" rx="6" fill="#334155"/>
      <text x="15" y="23" font-family="Segoe UI, sans-serif" font-size="12" fill="#60a5fa">✓</text>
      <text x="35" y="23" font-family="Segoe UI, sans-serif" font-size="11" fill="#94a3b8">Good for latency/errors</text>
    </g>
    <g transform="translate(70, 215)">
      <rect width="290" height="35" rx="6" fill="#334155"/>
      <text x="15" y="23" font-family="Segoe UI, sans-serif" font-size="12" fill="#60a5fa">✓</text>
      <text x="35" y="23" font-family="Segoe UI, sans-serif" font-size="11" fill="#94a3b8">Streaming architecture</text>
    </g>
    <g transform="translate(70, 260)">
      <rect width="290" height="35" rx="6" fill="#334155"/>
      <text x="15" y="23" font-family="Segoe UI, sans-serif" font-size="12" fill="#f59e0b">⚠</text>
      <text x="35" y="23" font-family="Segoe UI, sans-serif" font-size="11" fill="#94a3b8">Higher infrastructure cost</text>
    </g>
    <g transform="translate(70, 305)">
      <rect width="290" height="35" rx="6" fill="#334155"/>
      <text x="15" y="23" font-family="Segoe UI, sans-serif" font-size="12" fill="#f59e0b">⚠</text>
      <text x="35" y="23" font-family="Segoe UI, sans-serif" font-size="11" fill="#94a3b8">Limited ground truth</text>
    </g>
    <rect x="70" y="350" width="290" height="22" rx="6" fill="#1d4ed8"/>
    <text x="215" y="365" text-anchor="middle" font-family="Segoe UI, sans-serif" font-size="10" font-weight="bold" fill="#f8fafc">Best for: Operational metrics</text>
  </g>
  
  <!-- VS -->
  <circle cx="400" cy="220" r="22" fill="#475569"/>
  <text x="400" y="227" text-anchor="middle" font-family="Segoe UI, sans-serif" font-size="12" font-weight="bold" fill="#f8fafc">VS</text>
  
  <!-- Batch Column -->
  <g filter="url(#shadow)">
    <rect x="420" y="60" width="330" height="320" rx="14" fill="#1e293b"/>
    <rect x="420" y="60" width="330" height="45" rx="14 14 0 0" fill="url(#batchGrad)"/>
    <text x="585" y="90" text-anchor="middle" font-family="Segoe UI, sans-serif" font-size="15" font-weight="bold" fill="#f8fafc">📦 Batch Monitoring</text>
    
    <g transform="translate(440, 125)">
      <rect width="290" height="35" rx="6" fill="#334155"/>
      <text x="15" y="23" font-family="Segoe UI, sans-serif" font-size="12" fill="#a78bfa">✓</text>
      <text x="35" y="23" font-family="Segoe UI, sans-serif" font-size="11" fill="#94a3b8">Delayed but comprehensive</text>
    </g>
    <g transform="translate(440, 170)">
      <rect width="290" height="35" rx="6" fill="#334155"/>
      <text x="15" y="23" font-family="Segoe UI, sans-serif" font-size="12" fill="#a78bfa">✓</text>
      <text x="35" y="23" font-family="Segoe UI, sans-serif" font-size="11" fill="#94a3b8">Good for accuracy metrics</text>
    </g>
    <g transform="translate(440, 215)">
      <rect width="290" height="35" rx="6" fill="#334155"/>
      <text x="15" y="23" font-family="Segoe UI, sans-serif" font-size="12" fill="#a78bfa">✓</text>
      <text x="35" y="23" font-family="Segoe UI, sans-serif" font-size="11" fill="#94a3b8">Scheduled jobs (simpler)</text>
    </g>
    <g transform="translate(440, 260)">
      <rect width="290" height="35" rx="6" fill="#334155"/>
      <text x="15" y="23" font-family="Segoe UI, sans-serif" font-size="12" fill="#10b981">✓</text>
      <text x="35" y="23" font-family="Segoe UI, sans-serif" font-size="11" fill="#94a3b8">Lower cost</text>
    </g>
    <g transform="translate(440, 305)">
      <rect width="290" height="35" rx="6" fill="#334155"/>
      <text x="15" y="23" font-family="Segoe UI, sans-serif" font-size="12" fill="#10b981">✓</text>
      <text x="35" y="23" font-family="Segoe UI, sans-serif" font-size="11" fill="#94a3b8">Full ground truth available</text>
    </g>
    <rect x="440" y="350" width="290" height="22" rx="6" fill="#6d28d9"/>
    <text x="585" y="365" text-anchor="middle" font-family="Segoe UI, sans-serif" font-size="10" font-weight="bold" fill="#f8fafc">Best for: Performance metrics</text>
  </g>
</svg>
