<svg xmlns="http://www.w3.org/2000/svg" viewBox="0 0 800 400">
  <defs>
    <linearGradient id="costBg" x1="0%" y1="0%" x2="100%" y2="100%">
      <stop offset="0%" style="stop-color:#1a1a2e;stop-opacity:1" />
      <stop offset="100%" style="stop-color:#0f3460;stop-opacity:1" />
    </linearGradient>
  </defs>
  
  <!-- Background -->
  <rect width="800" height="400" fill="url(#costBg)"/>
  
  <!-- Title -->
  <text x="400" y="40" text-anchor="middle" font-family="Segoe UI, Arial" font-size="24" font-weight="bold" fill="#f8fafc">
    💰 ML Infrastructure Cost Breakdown
  </text>
  
  <!-- Pie Chart -->
  <g transform="translate(200, 210)">
    <!-- Inference: 65% (234 degrees) -->
    <path d="M0,0 L0,-120 A120,120 0 1,1 -103.9,60 Z" fill="#f5576c"/>
    <text x="-30" y="30" text-anchor="middle" font-family="Segoe UI, Arial" font-size="18" font-weight="bold" fill="#f8fafc">65%</text>
    
    <!-- Training: 25% (90 degrees) -->
    <path d="M0,0 L-103.9,60 A120,120 0 0,1 -103.9,-60 Z" fill="#667eea"/>
    <text x="-95" y="-5" text-anchor="middle" font-family="Segoe UI, Arial" font-size="14" font-weight="bold" fill="#f8fafc">25%</text>
    
    <!-- Storage: 7% (25.2 degrees) -->
    <path d="M0,0 L-103.9,-60 A120,120 0 0,1 -50,-109 Z" fill="#43e97b"/>
    <text x="-70" y="-85" text-anchor="middle" font-family="Segoe UI, Arial" font-size="12" font-weight="bold" fill="#f8fafc">7%</text>
    
    <!-- Other: 3% (10.8 degrees) -->
    <path d="M0,0 L-50,-109 A120,120 0 0,1 0,-120 Z" fill="#ffd93d"/>
    <text x="-15" y="-100" text-anchor="middle" font-family="Segoe UI, Arial" font-size="10" font-weight="bold" fill="#f8fafc">3%</text>
  </g>
  
  <!-- Legend -->
  <rect x="400" y="100" width="350" height="200" rx="10" fill="#1a202c" opacity="0.8"/>
  
  <!-- Inference -->
  <rect x="420" y="120" width="20" height="20" rx="3" fill="#f5576c"/>
  <text x="450" y="135" font-family="Segoe UI, Arial" font-size="14" font-weight="bold" fill="#f5576c">Inference (65%)</text>
  <text x="450" y="152" font-family="Segoe UI, Arial" font-size="11" fill="#a0aec0">Model serving, real-time features, APIs</text>
  
  <!-- Training -->
  <rect x="420" y="170" width="20" height="20" rx="3" fill="#667eea"/>
  <text x="450" y="185" font-family="Segoe UI, Arial" font-size="14" font-weight="bold" fill="#667eea">Training (25%)</text>
  <text x="450" y="202" font-family="Segoe UI, Arial" font-size="11" fill="#a0aec0">GPU compute, experiments, preprocessing</text>
  
  <!-- Storage -->
  <rect x="420" y="220" width="20" height="20" rx="3" fill="#43e97b"/>
  <text x="450" y="235" font-family="Segoe UI, Arial" font-size="14" font-weight="bold" fill="#43e97b">Storage (7%)</text>
  <text x="450" y="252" font-family="Segoe UI, Arial" font-size="11" fill="#a0aec0">Models, datasets, logs, artifacts</text>
  
  <!-- Other -->
  <rect x="420" y="270" width="20" height="20" rx="3" fill="#ffd93d"/>
  <text x="450" y="285" font-family="Segoe UI, Arial" font-size="14" font-weight="bold" fill="#ffd93d">Other (3%)</text>
  <text x="450" y="302" font-family="Segoe UI, Arial" font-size="11" fill="#a0aec0">Data transfer, networking, misc</text>
  
  <!-- Optimization Tips -->
  <rect x="100" y="340" width="600" height="45" rx="8" fill="#2d3748"/>
  <text x="400" y="360" text-anchor="middle" font-family="Segoe UI, Arial" font-size="12" font-weight="bold" fill="#ffd93d">💡 Top Optimization: Focus on inference costs first (65% of spend)</text>
  <text x="400" y="378" text-anchor="middle" font-family="Segoe UI, Arial" font-size="11" fill="#a0aec0">Auto-scaling • Batching • Spot instances • Model optimization</text>
</svg>

