<svg xmlns="http://www.w3.org/2000/svg" viewBox="0 0 900 200">
  <defs>
    <linearGradient id="blueGrad" x1="0%" y1="0%" x2="100%" y2="0%">
      <stop offset="0%" style="stop-color:#667eea;stop-opacity:1" />
      <stop offset="100%" style="stop-color:#764ba2;stop-opacity:1" />
    </linearGradient>
    <linearGradient id="greenGrad" x1="0%" y1="0%" x2="100%" y2="0%">
      <stop offset="0%" style="stop-color:#11998e;stop-opacity:1" />
      <stop offset="100%" style="stop-color:#38ef7d;stop-opacity:1" />
    </linearGradient>
    <filter id="shadow" x="-20%" y="-20%" width="140%" height="140%">
      <feDropShadow dx="2" dy="2" stdDeviation="3" flood-opacity="0.2"/>
    </filter>
  </defs>
  
  <!-- Background -->
  <rect width="900" height="200" fill="#0f172a"/>
  
  <!-- Title -->
  <text x="450" y="30" text-anchor="middle" font-family="Arial, sans-serif" font-size="20" font-weight="bold" fill="#f8fafc">ML Pipeline → Model Serving</text>
  
  <!-- Pipeline boxes -->
  <g filter="url(#shadow)">
    <!-- Data Collection -->
    <rect x="20" y="60" width="130" height="60" rx="10" fill="#e3f2fd" stroke="#1976d2" stroke-width="2"/>
    <text x="85" y="85" text-anchor="middle" font-family="Arial, sans-serif" font-size="12" fill="#1976d2">📊 Data</text>
    <text x="85" y="102" text-anchor="middle" font-family="Arial, sans-serif" font-size="12" fill="#1976d2">Collection</text>
    
    <!-- Arrow 1 -->
    <path d="M155 90 L175 90" stroke="#666" stroke-width="2" marker-end="url(#arrowhead)"/>
    
    <!-- Feature Engineering -->
    <rect x="180" y="60" width="130" height="60" rx="10" fill="#fff3e0" stroke="#f57c00" stroke-width="2"/>
    <text x="245" y="85" text-anchor="middle" font-family="Arial, sans-serif" font-size="12" fill="#f57c00">🔧 Feature</text>
    <text x="245" y="102" text-anchor="middle" font-family="Arial, sans-serif" font-size="12" fill="#f57c00">Engineering</text>
    
    <!-- Arrow 2 -->
    <path d="M315 90 L335 90" stroke="#666" stroke-width="2"/>
    <polygon points="335,85 345,90 335,95" fill="#666"/>
    
    <!-- Model Training -->
    <rect x="340" y="60" width="130" height="60" rx="10" fill="#f3e5f5" stroke="#7b1fa2" stroke-width="2"/>
    <text x="405" y="85" text-anchor="middle" font-family="Arial, sans-serif" font-size="12" fill="#7b1fa2">🧠 Model</text>
    <text x="405" y="102" text-anchor="middle" font-family="Arial, sans-serif" font-size="12" fill="#7b1fa2">Training</text>
    
    <!-- Arrow 3 -->
    <path d="M475 90 L495 90" stroke="#666" stroke-width="2"/>
    <polygon points="495,85 505,90 495,95" fill="#666"/>
    
    <!-- Validation -->
    <rect x="500" y="60" width="130" height="60" rx="10" fill="#e8f5e9" stroke="#388e3c" stroke-width="2"/>
    <text x="565" y="85" text-anchor="middle" font-family="Arial, sans-serif" font-size="12" fill="#388e3c">✅ Model</text>
    <text x="565" y="102" text-anchor="middle" font-family="Arial, sans-serif" font-size="12" fill="#388e3c">Validation</text>
    
    <!-- Arrow 4 -->
    <path d="M635 90 L655 90" stroke="#666" stroke-width="2"/>
    <polygon points="655,85 665,90 655,95" fill="#666"/>
    
    <!-- Model Serving (highlighted) -->
    <rect x="660" y="50" width="150" height="80" rx="10" fill="url(#greenGrad)" stroke="#1b5e20" stroke-width="3"/>
    <text x="735" y="85" text-anchor="middle" font-family="Arial, sans-serif" font-size="14" font-weight="bold" fill="#f8fafc">🚀 MODEL</text>
    <text x="735" y="105" text-anchor="middle" font-family="Arial, sans-serif" font-size="14" font-weight="bold" fill="#f8fafc">SERVING</text>
  </g>
  
  <!-- Feedback Loop -->
  <path d="M735 135 L735 160 L85 160 L85 125" stroke="#666" stroke-width="2" fill="none" stroke-dasharray="5,5"/>
  <polygon points="80,125 85,115 90,125" fill="#666"/>
  <text x="410" y="175" text-anchor="middle" font-family="Arial, sans-serif" font-size="11" fill="#666">🔄 Feedback Loop (Monitoring, Retraining)</text>
</svg>

