<svg xmlns="http://www.w3.org/2000/svg" viewBox="0 0 800 400">
  <defs>
    <linearGradient id="dashGrad" x1="0%" y1="0%" x2="100%" y2="100%">
      <stop offset="0%" style="stop-color:#6366f1"/>
      <stop offset="100%" style="stop-color:#4f46e5"/>
    </linearGradient>
    <filter id="shadow" x="-5%" y="-5%" width="110%" height="115%">
      <feDropShadow dx="0" dy="3" stdDeviation="4" flood-opacity="0.15"/>
    </filter>
  </defs>
  
  <rect width="100%" height="100%" fill="#0f172a"/>
  
  <text x="400" y="30" text-anchor="middle" font-family="Segoe UI, sans-serif" font-size="20" font-weight="bold" fill="#f8fafc">📊 SLO Dashboard</text>
  
  <g filter="url(#shadow)">
    <rect x="75" y="55" width="650" height="330" rx="16" fill="#1e293b"/>
    
    <!-- Availability -->
    <g transform="translate(100, 80)">
      <text x="0" y="15" font-family="Segoe UI, sans-serif" font-size="13" font-weight="bold" fill="#a5b4fc">AVAILABILITY</text>
      <rect x="0" y="25" width="580" height="24" rx="4" fill="#334155"/>
      <rect x="0" y="25" width="570" height="24" rx="4" fill="#10b981"/>
      <text x="550" y="42" font-family="Segoe UI, sans-serif" font-size="14" font-weight="bold" fill="#fff">99.95%</text>
      <text x="0" y="65" font-family="Segoe UI, sans-serif" font-size="11" fill="#94a3b8">Target: 99.9%</text>
      <text x="100" y="65" font-family="Segoe UI, sans-serif" font-size="11" fill="#6ee7b7">✓ Meeting SLO</text>
    </g>
    
    <!-- Latency -->
    <g transform="translate(100, 155)">
      <text x="0" y="15" font-family="Segoe UI, sans-serif" font-size="13" font-weight="bold" fill="#a5b4fc">LATENCY (P99)</text>
      <rect x="0" y="25" width="580" height="24" rx="4" fill="#334155"/>
      <rect x="0" y="25" width="493" height="24" rx="4" fill="#3b82f6"/>
      <text x="460" y="42" font-family="Segoe UI, sans-serif" font-size="14" font-weight="bold" fill="#fff">85ms</text>
      <text x="0" y="65" font-family="Segoe UI, sans-serif" font-size="11" fill="#94a3b8">Target: 100ms</text>
      <text x="100" y="65" font-family="Segoe UI, sans-serif" font-size="11" fill="#6ee7b7">✓ Meeting SLO</text>
      <line x1="580" y1="25" x2="580" y2="49" stroke="#f59e0b" stroke-width="2" stroke-dasharray="4,2"/>
      <text x="590" y="42" font-family="Segoe UI, sans-serif" font-size="9" fill="#f59e0b">limit</text>
    </g>
    
    <!-- Error Rate -->
    <g transform="translate(100, 230)">
      <text x="0" y="15" font-family="Segoe UI, sans-serif" font-size="13" font-weight="bold" fill="#a5b4fc">ERROR RATE</text>
      <rect x="0" y="25" width="580" height="24" rx="4" fill="#334155"/>
      <rect x="0" y="25" width="116" height="24" rx="4" fill="#10b981"/>
      <text x="80" y="42" font-family="Segoe UI, sans-serif" font-size="14" font-weight="bold" fill="#fff">0.02%</text>
      <text x="0" y="65" font-family="Segoe UI, sans-serif" font-size="11" fill="#94a3b8">Target: andlt;0.1%</text>
      <text x="100" y="65" font-family="Segoe UI, sans-serif" font-size="11" fill="#6ee7b7">✓ Meeting SLO</text>
    </g>
    
    <!-- Model Accuracy -->
    <g transform="translate(100, 305)">
      <text x="0" y="15" font-family="Segoe UI, sans-serif" font-size="13" font-weight="bold" fill="#a5b4fc">MODEL ACCURACY</text>
      <rect x="0" y="25" width="580" height="24" rx="4" fill="#334155"/>
      <rect x="0" y="25" width="529" height="24" rx="4" fill="#8b5cf6"/>
      <text x="495" y="42" font-family="Segoe UI, sans-serif" font-size="14" font-weight="bold" fill="#fff">91.2%</text>
      <text x="0" y="65" font-family="Segoe UI, sans-serif" font-size="11" fill="#94a3b8">Target: 90%</text>
      <text x="100" y="65" font-family="Segoe UI, sans-serif" font-size="11" fill="#6ee7b7">✓ Meeting SLO</text>
      <line x1="522" y1="25" x2="522" y2="49" stroke="#f59e0b" stroke-width="2" stroke-dasharray="4,2"/>
    </g>
  </g>
</svg>
