<svg xmlns="http://www.w3.org/2000/svg" viewBox="0 0 700 380">
  <defs>
    <filter id="glow">
      <feGaussianBlur stdDeviation="2" result="coloredBlur"/>
      <feMerge><feMergeNode in="coloredBlur"/><feMergeNode in="SourceGraphic"/></feMerge>
    </filter>
  </defs>
  
  <!-- Background -->
  <rect width="700" height="380" fill="#0f172a" rx="12"/>
  
  <!-- Title -->
  <text x="350" y="35" text-anchor="middle" font-family="Arial, sans-serif" font-size="22" font-weight="bold" fill="#f8fafc">RGB Color Space</text>
  <text x="350" y="55" text-anchor="middle" font-family="Arial, sans-serif" font-size="12" fill="#94a3b8">Additive Color Model</text>
  
  <!-- RGB Cube Visualization -->
  <g transform="translate(80, 100)">
    <!-- Cube edges -->
    <polygon points="100,0 200,50 200,150 100,200 0,150 0,50" fill="none" stroke="#334155" stroke-width="2"/>
    <line x1="100" y1="0" x2="100" y2="100" stroke="#334155" stroke-width="2"/>
    <line x1="0" y1="50" x2="100" y2="100" stroke="#334155" stroke-width="2"/>
    <line x1="200" y1="50" x2="100" y2="100" stroke="#334155" stroke-width="2"/>
    
    <!-- Corner colors -->
    <circle cx="100" cy="0" r="12" fill="#0f172a" stroke="#334155" filter="url(#glow)"/>
    <text x="100" y="-20" text-anchor="middle" font-family="Arial" font-size="10" fill="#f8fafc">White</text>
    
    <circle cx="0" cy="50" r="12" fill="#00ff00" filter="url(#glow)"/>
    <text x="-25" y="55" text-anchor="end" font-family="Arial" font-size="10" fill="#22c55e">Green</text>
    
    <circle cx="200" cy="50" r="12" fill="#ff0000" filter="url(#glow)"/>
    <text x="225" y="55" font-family="Arial" font-size="10" fill="#ef4444">Red</text>
    
    <circle cx="100" cy="100" r="12" fill="#ffff00" filter="url(#glow)"/>
    <text x="130" y="100" font-family="Arial" font-size="10" fill="#fbbf24">Yellow</text>
    
    <circle cx="0" cy="150" r="12" fill="#00ffff" filter="url(#glow)"/>
    <text x="-25" y="155" text-anchor="end" font-family="Arial" font-size="10" fill="#22d3ee">Cyan</text>
    
    <circle cx="200" cy="150" r="12" fill="#ff00ff" filter="url(#glow)"/>
    <text x="225" y="155" font-family="Arial" font-size="10" fill="#d946ef">Magenta</text>
    
    <circle cx="100" cy="200" r="12" fill="#0000ff" filter="url(#glow)"/>
    <text x="100" y="225" text-anchor="middle" font-family="Arial" font-size="10" fill="#3b82f6">Blue</text>
    
    <!-- Black at origin (hidden behind) -->
    <text x="100" y="115" text-anchor="middle" font-family="Arial" font-size="9" fill="#64748b">Black (0,0,0)</text>
  </g>
  
  <!-- Channel breakdown -->
  <g transform="translate(350, 90)">
    <text x="150" y="0" text-anchor="middle" font-family="Arial, sans-serif" font-size="16" font-weight="bold" fill="#f8fafc">RGB Channels</text>
    
    <!-- Red channel -->
    <rect x="0" y="20" width="100" height="40" rx="6" fill="#ef4444"/>
    <text x="50" y="45" text-anchor="middle" font-family="Arial" font-size="14" font-weight="bold" fill="#fff">R</text>
    <text x="120" y="45" font-family="Arial" font-size="12" fill="#fca5a5">0 - 255</text>
    
    <!-- Green channel -->
    <rect x="0" y="70" width="100" height="40" rx="6" fill="#22c55e"/>
    <text x="50" y="95" text-anchor="middle" font-family="Arial" font-size="14" font-weight="bold" fill="#fff">G</text>
    <text x="120" y="95" font-family="Arial" font-size="12" fill="#86efac">0 - 255</text>
    
    <!-- Blue channel -->
    <rect x="0" y="120" width="100" height="40" rx="6" fill="#3b82f6"/>
    <text x="50" y="145" text-anchor="middle" font-family="Arial" font-size="14" font-weight="bold" fill="#fff">B</text>
    <text x="120" y="145" font-family="Arial" font-size="12" fill="#93c5fd">0 - 255</text>
    
    <!-- Total colors -->
    <rect x="0" y="180" width="280" height="35" rx="6" fill="#1e293b" stroke="#8b5cf6" stroke-width="2"/>
    <text x="140" y="202" text-anchor="middle" font-family="Arial" font-size="13" fill="#c4b5fd">256³ = 16.7 Million Colors</text>
  </g>
  
  <!-- Grayscale conversion -->
  <g transform="translate(50, 300)">
    <rect x="0" y="0" width="600" height="60" rx="10" fill="#1e293b" stroke="#334155" stroke-width="2"/>
    <text x="300" y="25" text-anchor="middle" font-family="Arial, sans-serif" font-size="14" font-weight="bold" fill="#f8fafc">Grayscale Conversion (Luminance)</text>
    <text x="300" y="45" text-anchor="middle" font-family="Arial, sans-serif" font-size="13" fill="#fbbf24">Y = 0.299R + 0.587G + 0.114B</text>
  </g>
</svg>
