<svg xmlns="http://www.w3.org/2000/svg" viewBox="0 0 750 450">
  <defs>
    <linearGradient id="onlineGrad" x1="0%" y1="0%" x2="100%" y2="100%">
      <stop offset="0%" style="stop-color:#f97316"/>
      <stop offset="100%" style="stop-color:#ea580c"/>
    </linearGradient>
    <linearGradient id="loopGrad" x1="0%" y1="0%" x2="100%" y2="100%">
      <stop offset="0%" style="stop-color:#8b5cf6"/>
      <stop offset="100%" style="stop-color:#7c3aed"/>
    </linearGradient>
    <filter id="shadow" x="-5%" y="-5%" width="110%" height="115%">
      <feDropShadow dx="0" dy="4" stdDeviation="6" flood-opacity="0.12"/>
    </filter>
  </defs>
  
  <rect width="100%" height="100%" fill="#0f172a"/>
  
  <!-- Title -->
  <g filter="url(#shadow)">
    <rect x="200" y="20" width="350" height="50" rx="12" fill="url(#onlineGrad)"/>
    <text x="375" y="52" text-anchor="middle" font-family="Segoe UI, sans-serif" font-size="20" font-weight="bold" fill="#f8fafc">🔄 Online Learning Loop</text>
  </g>
  
  <!-- Step 1: Serve -->
  <g filter="url(#shadow)">
    <rect x="50" y="110" width="180" height="100" rx="12" fill="#0f172a"/>
    <rect x="50" y="110" width="180" height="35" rx="12 12 0 0" fill="#3b82f6"/>
    <circle cx="80" cy="127" r="12" fill="rgba(255,255,255,0.3)"/>
    <text x="80" y="132" text-anchor="middle" font-family="Segoe UI, sans-serif" font-size="12" font-weight="bold" fill="#f8fafc">1</text>
    <text x="150" y="133" text-anchor="middle" font-family="Segoe UI, sans-serif" font-size="13" font-weight="bold" fill="#f8fafc">Serve Results</text>
    <text x="70" y="170" font-family="Segoe UI, sans-serif" font-size="11" fill="#475569">• Rank candidates</text>
    <text x="70" y="190" font-family="Segoe UI, sans-serif" font-size="11" fill="#475569">• Log predictions</text>
  </g>
  
  <!-- Step 2: Collect -->
  <g filter="url(#shadow)">
    <rect x="285" y="110" width="180" height="100" rx="12" fill="#0f172a"/>
    <rect x="285" y="110" width="180" height="35" rx="12 12 0 0" fill="#10b981"/>
    <circle cx="315" cy="127" r="12" fill="rgba(255,255,255,0.3)"/>
    <text x="315" y="132" text-anchor="middle" font-family="Segoe UI, sans-serif" font-size="12" font-weight="bold" fill="#f8fafc">2</text>
    <text x="395" y="133" text-anchor="middle" font-family="Segoe UI, sans-serif" font-size="13" font-weight="bold" fill="#f8fafc">Collect Feedback</text>
    <text x="305" y="170" font-family="Segoe UI, sans-serif" font-size="11" fill="#475569">• Clicks, purchases</text>
    <text x="305" y="190" font-family="Segoe UI, sans-serif" font-size="11" fill="#475569">• Dwell time, skips</text>
  </g>
  
  <!-- Step 3: Buffer -->
  <g filter="url(#shadow)">
    <rect x="520" y="110" width="180" height="100" rx="12" fill="#0f172a"/>
    <rect x="520" y="110" width="180" height="35" rx="12 12 0 0" fill="#f59e0b"/>
    <circle cx="550" cy="127" r="12" fill="rgba(255,255,255,0.3)"/>
    <text x="550" y="132" text-anchor="middle" font-family="Segoe UI, sans-serif" font-size="12" font-weight="bold" fill="#f8fafc">3</text>
    <text x="630" y="133" text-anchor="middle" font-family="Segoe UI, sans-serif" font-size="13" font-weight="bold" fill="#f8fafc">Buffer Updates</text>
    <text x="540" y="170" font-family="Segoe UI, sans-serif" font-size="11" fill="#475569">• Aggregate samples</text>
    <text x="540" y="190" font-family="Segoe UI, sans-serif" font-size="11" fill="#475569">• Buffer size: 100</text>
  </g>
  
  <!-- Arrows top -->
  <path d="M235 160 L280 160" stroke="#64748b" stroke-width="2"/>
  <polygon points="280,155 295,160 280,165" fill="#64748b"/>
  <path d="M470 160 L515 160" stroke="#64748b" stroke-width="2"/>
  <polygon points="515,155 530,160 515,165" fill="#64748b"/>
  
  <!-- Step 4: Update -->
  <g filter="url(#shadow)">
    <rect x="520" y="260" width="180" height="100" rx="12" fill="#0f172a"/>
    <rect x="520" y="260" width="180" height="35" rx="12 12 0 0" fill="#ec4899"/>
    <circle cx="550" cy="277" r="12" fill="rgba(255,255,255,0.3)"/>
    <text x="550" y="282" text-anchor="middle" font-family="Segoe UI, sans-serif" font-size="12" font-weight="bold" fill="#f8fafc">4</text>
    <text x="630" y="283" text-anchor="middle" font-family="Segoe UI, sans-serif" font-size="13" font-weight="bold" fill="#f8fafc">Update Model</text>
    <text x="540" y="320" font-family="Segoe UI, sans-serif" font-size="11" fill="#475569">• Compute gradients</text>
    <text x="540" y="340" font-family="Segoe UI, sans-serif" font-size="11" fill="#475569">• LR decay: 0.99^n</text>
  </g>
  
  <!-- Step 5: Deploy -->
  <g filter="url(#shadow)">
    <rect x="285" y="260" width="180" height="100" rx="12" fill="#0f172a"/>
    <rect x="285" y="260" width="180" height="35" rx="12 12 0 0" fill="url(#loopGrad)"/>
    <circle cx="315" cy="277" r="12" fill="rgba(255,255,255,0.3)"/>
    <text x="315" y="282" text-anchor="middle" font-family="Segoe UI, sans-serif" font-size="12" font-weight="bold" fill="#f8fafc">5</text>
    <text x="395" y="283" text-anchor="middle" font-family="Segoe UI, sans-serif" font-size="13" font-weight="bold" fill="#f8fafc">Hot Swap Model</text>
    <text x="305" y="320" font-family="Segoe UI, sans-serif" font-size="11" fill="#475569">• Zero downtime</text>
    <text x="305" y="340" font-family="Segoe UI, sans-serif" font-size="11" fill="#475569">• Shadow testing</text>
  </g>
  
  <!-- Loop arrow -->
  <path d="M610 215 L610 255" stroke="#64748b" stroke-width="2"/>
  <polygon points="605,255 610,270 615,255" fill="#64748b"/>
  <path d="M515 310 L470 310" stroke="#64748b" stroke-width="2"/>
  <polygon points="470,305 455,310 470,315" fill="#64748b"/>
  <path d="M280 310 L100 310 L100 215" stroke="#64748b" stroke-width="2"/>
  <polygon points="95,215 100,200 105,215" fill="#64748b"/>
  
  <!-- Bandit Info Box -->
  <g filter="url(#shadow)">
    <rect x="50" y="260" width="180" height="135" rx="12" fill="#0f172a"/>
    <rect x="50" y="260" width="180" height="35" rx="12 12 0 0" fill="#0f172a"/>
    <text x="140" y="283" text-anchor="middle" font-family="Segoe UI, sans-serif" font-size="13" font-weight="bold" fill="#f8fafc">🎰 Bandit Methods</text>
    <text x="70" y="315" font-family="Segoe UI, sans-serif" font-size="11" font-weight="bold" fill="#f8fafc">UCB (Upper Conf. Bound)</text>
    <text x="70" y="335" font-family="monospace" font-size="9" fill="#64748b">exploit + √(2ln(n)/nᵢ)</text>
    <text x="70" y="360" font-family="Segoe UI, sans-serif" font-size="11" font-weight="bold" fill="#f8fafc">Thompson Sampling</text>
    <text x="70" y="380" font-family="monospace" font-size="9" fill="#64748b">Sample from posterior</text>
  </g>
</svg>



