<svg xmlns="http://www.w3.org/2000/svg" viewBox="0 0 800 480">
  <defs>
    <linearGradient id="lowGrad" x1="0%" y1="0%" x2="100%" y2="100%">
      <stop offset="0%" style="stop-color:#10b981"/>
      <stop offset="100%" style="stop-color:#059669"/>
    </linearGradient>
    <linearGradient id="medGrad" x1="0%" y1="0%" x2="100%" y2="100%">
      <stop offset="0%" style="stop-color:#f59e0b"/>
      <stop offset="100%" style="stop-color:#d97706"/>
    </linearGradient>
    <linearGradient id="highGrad" x1="0%" y1="0%" x2="100%" y2="100%">
      <stop offset="0%" style="stop-color:#ef4444"/>
      <stop offset="100%" style="stop-color:#dc2626"/>
    </linearGradient>
    <filter id="shadow" x="-5%" y="-5%" width="110%" height="115%">
      <feDropShadow dx="0" dy="3" stdDeviation="4" flood-opacity="0.15"/>
    </filter>
  </defs>
  
  <rect width="100%" height="100%" fill="#0f172a"/>
  
  <text x="400" y="30" text-anchor="middle" font-family="Segoe UI, sans-serif" font-size="20" font-weight="bold" fill="#f8fafc">📊 Optimization ROI</text>
  
  <g filter="url(#shadow)">
    <rect x="50" y="55" width="700" height="405" rx="16" fill="#1e293b"/>
    
    <!-- Table -->
    <g transform="translate(75, 85)">
      <!-- Header -->
      <rect x="0" y="0" width="650" height="35" rx="8" fill="#334155"/>
      <text x="20" y="23" font-family="Segoe UI, sans-serif" font-size="12" font-weight="bold" fill="#f8fafc">Optimization</text>
      <text x="200" y="23" font-family="Segoe UI, sans-serif" font-size="12" font-weight="bold" fill="#f8fafc">Effort</text>
      <text x="320" y="23" font-family="Segoe UI, sans-serif" font-size="12" font-weight="bold" fill="#f8fafc">Speedup</text>
      <text x="450" y="23" font-family="Segoe UI, sans-serif" font-size="12" font-weight="bold" fill="#f8fafc">Cost Savings</text>
      
      <!-- Row 1 -->
      <rect x="0" y="45" width="650" height="35" rx="0" fill="#1e293b"/>
      <text x="20" y="68" font-family="Segoe UI, sans-serif" font-size="11" fill="#f8fafc">FP16 inference</text>
      <rect x="190" y="52" width="55" height="22" rx="4" fill="url(#lowGrad)"/>
      <text x="217" y="68" text-anchor="middle" font-family="Segoe UI, sans-serif" font-size="10" fill="#fff">Low</text>
      <text x="320" y="68" font-family="Segoe UI, sans-serif" font-size="11" fill="#6ee7b7">2×</text>
      <text x="450" y="68" font-family="Segoe UI, sans-serif" font-size="11" fill="#6ee7b7">50%</text>
      
      <!-- Row 2 -->
      <rect x="0" y="85" width="650" height="35" rx="0" fill="#334155"/>
      <text x="20" y="108" font-family="Segoe UI, sans-serif" font-size="11" fill="#f8fafc">INT8 quantization</text>
      <rect x="190" y="92" width="60" height="22" rx="4" fill="url(#medGrad)"/>
      <text x="220" y="108" text-anchor="middle" font-family="Segoe UI, sans-serif" font-size="10" fill="#fff">Medium</text>
      <text x="320" y="108" font-family="Segoe UI, sans-serif" font-size="11" fill="#6ee7b7">4×</text>
      <text x="450" y="108" font-family="Segoe UI, sans-serif" font-size="11" fill="#6ee7b7">75%</text>
      
      <!-- Row 3 -->
      <rect x="0" y="125" width="650" height="35" rx="0" fill="#1e293b"/>
      <text x="20" y="148" font-family="Segoe UI, sans-serif" font-size="11" fill="#f8fafc">Dynamic batching</text>
      <rect x="190" y="132" width="60" height="22" rx="4" fill="url(#medGrad)"/>
      <text x="220" y="148" text-anchor="middle" font-family="Segoe UI, sans-serif" font-size="10" fill="#fff">Medium</text>
      <text x="320" y="148" font-family="Segoe UI, sans-serif" font-size="11" fill="#6ee7b7">10×</text>
      <text x="450" y="148" font-family="Segoe UI, sans-serif" font-size="11" fill="#6ee7b7">90%</text>
      
      <!-- Row 4 -->
      <rect x="0" y="165" width="650" height="35" rx="0" fill="#334155"/>
      <text x="20" y="188" font-family="Segoe UI, sans-serif" font-size="11" fill="#f8fafc">Model pruning</text>
      <rect x="190" y="172" width="50" height="22" rx="4" fill="url(#highGrad)"/>
      <text x="215" y="188" text-anchor="middle" font-family="Segoe UI, sans-serif" font-size="10" fill="#fff">High</text>
      <text x="320" y="188" font-family="Segoe UI, sans-serif" font-size="11" fill="#6ee7b7">2-3×</text>
      <text x="450" y="188" font-family="Segoe UI, sans-serif" font-size="11" fill="#6ee7b7">60-70%</text>
      
      <!-- Row 5 -->
      <rect x="0" y="205" width="650" height="35" rx="0 0 8 8" fill="#1e293b"/>
      <text x="20" y="228" font-family="Segoe UI, sans-serif" font-size="11" fill="#f8fafc">Distillation</text>
      <rect x="190" y="212" width="50" height="22" rx="4" fill="url(#highGrad)"/>
      <text x="215" y="228" text-anchor="middle" font-family="Segoe UI, sans-serif" font-size="10" fill="#fff">High</text>
      <text x="320" y="228" font-family="Segoe UI, sans-serif" font-size="11" fill="#6ee7b7">5-10×</text>
      <text x="450" y="228" font-family="Segoe UI, sans-serif" font-size="11" fill="#6ee7b7">80-90%</text>
    </g>
    
    <!-- Example -->
    <g transform="translate(75, 345)">
      <text x="0" y="0" font-family="Segoe UI, sans-serif" font-size="14" font-weight="bold" fill="#a5b4fc">EXAMPLE: Image Classification</text>
      
      <rect x="0" y="15" width="650" height="85" rx="12" fill="#334155"/>
      
      <g transform="translate(20, 40)">
        <text x="0" y="0" font-family="Segoe UI, sans-serif" font-size="11" fill="#94a3b8">Baseline:</text>
        <text x="100" y="0" font-family="Segoe UI, sans-serif" font-size="11" fill="#fca5a5">$1000/month, 100 RPS</text>
        
        <text x="0" y="25" font-family="Segoe UI, sans-serif" font-size="11" fill="#94a3b8">+ Batching:</text>
        <text x="100" y="25" font-family="Segoe UI, sans-serif" font-size="11" fill="#fcd34d">$100/month, 1000 RPS (10× cheaper)</text>
        
        <text x="0" y="50" font-family="Segoe UI, sans-serif" font-size="11" fill="#94a3b8">+ INT8:</text>
        <text x="100" y="50" font-family="Segoe UI, sans-serif" font-size="11" fill="#6ee7b7">$50/month, 2000 RPS (20× cheaper)</text>
      </g>
    </g>
  </g>
</svg>
