<svg xmlns="http://www.w3.org/2000/svg" viewBox="0 0 800 400">
  <defs>
    <linearGradient id="bentoGrad" x1="0%" y1="0%" x2="100%" y2="100%">
      <stop offset="0%" style="stop-color:#ec4899"/>
      <stop offset="100%" style="stop-color:#db2777"/>
    </linearGradient>
    <linearGradient id="stepGrad" x1="0%" y1="0%" x2="100%" y2="100%">
      <stop offset="0%" style="stop-color:#6366f1"/>
      <stop offset="100%" style="stop-color:#4f46e5"/>
    </linearGradient>
    <linearGradient id="deployGrad" x1="0%" y1="0%" x2="100%" y2="100%">
      <stop offset="0%" style="stop-color:#10b981"/>
      <stop offset="100%" style="stop-color:#059669"/>
    </linearGradient>
    <filter id="shadow" x="-5%" y="-5%" width="110%" height="115%">
      <feDropShadow dx="0" dy="3" stdDeviation="4" flood-opacity="0.15"/>
    </filter>
    <marker id="arrowhead" markerWidth="10" markerHeight="7" refX="10" refY="3.5" orient="auto">
      <polygon points="0 0, 10 3.5, 0 7" fill="#6ee7b7"/>
    </marker>
  </defs>
  
  <rect width="100%" height="100%" fill="#0f172a"/>
  
  <text x="400" y="30" text-anchor="middle" font-family="Segoe UI, sans-serif" font-size="20" font-weight="bold" fill="#f8fafc">🍱 BentoML Workflow</text>
  
  <g filter="url(#shadow)">
    <rect x="50" y="55" width="700" height="320" rx="16" fill="#1e293b"/>
    
    <!-- Step 1 -->
    <g transform="translate(75, 80)">
      <rect x="0" y="0" width="180" height="100" rx="12" fill="#334155"/>
      <rect x="0" y="0" width="180" height="35" rx="12 12 0 0" fill="url(#stepGrad)"/>
      <text x="90" y="24" text-anchor="middle" font-family="Segoe UI, sans-serif" font-size="12" font-weight="bold" fill="#fff">1. SAVE MODEL</text>
      <text x="90" y="60" text-anchor="middle" font-family="Segoe UI, sans-serif" font-size="28" fill="#f8fafc">📦</text>
      <text x="90" y="85" text-anchor="middle" font-family="Segoe UI, sans-serif" font-size="11" fill="#94a3b8">Model Artifact</text>
    </g>
    
    <line x1="255" y1="130" x2="295" y2="130" stroke="#6ee7b7" stroke-width="2" marker-end="url(#arrowhead)"/>
    
    <!-- Step 2 -->
    <g transform="translate(310, 80)">
      <rect x="0" y="0" width="180" height="100" rx="12" fill="#334155"/>
      <rect x="0" y="0" width="180" height="35" rx="12 12 0 0" fill="url(#stepGrad)"/>
      <text x="90" y="24" text-anchor="middle" font-family="Segoe UI, sans-serif" font-size="12" font-weight="bold" fill="#fff">2. BUILD SERVICE</text>
      <text x="90" y="60" text-anchor="middle" font-family="Segoe UI, sans-serif" font-size="28" fill="#f8fafc">⚙️</text>
      <text x="90" y="85" text-anchor="middle" font-family="Segoe UI, sans-serif" font-size="11" fill="#94a3b8">Service Definition</text>
    </g>
    
    <line x1="490" y1="130" x2="530" y2="130" stroke="#6ee7b7" stroke-width="2" marker-end="url(#arrowhead)"/>
    
    <!-- Step 3 -->
    <g transform="translate(545, 80)">
      <rect x="0" y="0" width="180" height="100" rx="12" fill="#334155"/>
      <rect x="0" y="0" width="180" height="35" rx="12 12 0 0" fill="url(#bentoGrad)"/>
      <text x="90" y="24" text-anchor="middle" font-family="Segoe UI, sans-serif" font-size="12" font-weight="bold" fill="#fff">3. BUILD BENTO</text>
      <text x="90" y="60" text-anchor="middle" font-family="Segoe UI, sans-serif" font-size="28" fill="#f8fafc">🍱</text>
      <text x="90" y="85" text-anchor="middle" font-family="Segoe UI, sans-serif" font-size="11" fill="#94a3b8">Bento Package</text>
    </g>
    
    <!-- Arrow down -->
    <line x1="635" y1="180" x2="635" y2="210" stroke="#6ee7b7" stroke-width="2"/>
    <line x1="635" y1="210" x2="400" y2="210" stroke="#6ee7b7" stroke-width="2"/>
    <line x1="400" y1="210" x2="400" y2="240" stroke="#6ee7b7" stroke-width="2" marker-end="url(#arrowhead)"/>
    
    <!-- Step 4: Deploy -->
    <g transform="translate(75, 250)">
      <rect x="0" y="0" width="650" height="100" rx="12" fill="#334155"/>
      <rect x="0" y="0" width="650" height="35" rx="12 12 0 0" fill="url(#deployGrad)"/>
      <text x="325" y="24" text-anchor="middle" font-family="Segoe UI, sans-serif" font-size="12" font-weight="bold" fill="#fff">4. DEPLOY</text>
      
      <g transform="translate(40, 50)">
        <rect x="0" y="0" width="160" height="40" rx="8" fill="#2563eb"/>
        <text x="80" y="26" text-anchor="middle" font-family="Segoe UI, sans-serif" font-size="12" fill="#fff">🐳 Docker</text>
        
        <rect x="200" y="0" width="160" height="40" rx="8" fill="#326ce5"/>
        <text x="280" y="26" text-anchor="middle" font-family="Segoe UI, sans-serif" font-size="12" fill="#fff">☸️ Kubernetes</text>
        
        <rect x="400" y="0" width="160" height="40" rx="8" fill="url(#bentoGrad)"/>
        <text x="480" y="26" text-anchor="middle" font-family="Segoe UI, sans-serif" font-size="12" fill="#fff">☁️ BentoCloud</text>
      </g>
    </g>
  </g>
</svg>
