<svg xmlns="http://www.w3.org/2000/svg" viewBox="0 0 800 500">
  <defs>
    <linearGradient id="bgGrad" x1="0%" y1="0%" x2="100%" y2="100%">
      <stop offset="0%" style="stop-color:#0f172a"/>
      <stop offset="100%" style="stop-color:#1e293b"/>
    </linearGradient>
  </defs>
  
  <rect width="800" height="500" fill="url(#bgGrad)"/>
  
  <!-- Header -->
  <rect x="0" y="0" width="800" height="50" fill="#161b22"/>
  <text x="30" y="32" fill="#f8fafc" font-family="Arial, sans-serif" font-size="18" font-weight="bold">
    📊 CTR Prediction Monitoring Dashboard
  </text>
  <circle cx="730" cy="25" r="8" fill="#10b981"/>
  <text x="750" y="30" fill="#10b981" font-family="Arial" font-size="12">LIVE</text>
  
  <!-- System Health Row -->
  <g transform="translate(20, 70)">
    <rect x="0" y="0" width="180" height="100" rx="8" fill="#1e293b" stroke="#475569" stroke-width="1"/>
    <text x="90" y="25" text-anchor="middle" fill="#94a3b8" font-family="Arial" font-size="11">QPS</text>
    <text x="90" y="60" text-anchor="middle" fill="#10b981" font-family="Arial" font-size="28" font-weight="bold">1.2M</text>
    <text x="90" y="85" text-anchor="middle" fill="#10b981" font-family="Arial" font-size="10">▲ +5.2%</text>
  </g>
  
  <g transform="translate(210, 70)">
    <rect x="0" y="0" width="180" height="100" rx="8" fill="#1e293b" stroke="#475569" stroke-width="1"/>
    <text x="90" y="25" text-anchor="middle" fill="#94a3b8" font-family="Arial" font-size="11">Latency p99</text>
    <text x="90" y="60" text-anchor="middle" fill="#10b981" font-family="Arial" font-size="28" font-weight="bold">8ms</text>
    <text x="90" y="85" text-anchor="middle" fill="#94a3b8" font-family="Arial" font-size="10">Target: andlt;15ms</text>
  </g>
  
  <g transform="translate(400, 70)">
    <rect x="0" y="0" width="180" height="100" rx="8" fill="#1e293b" stroke="#475569" stroke-width="1"/>
    <text x="90" y="25" text-anchor="middle" fill="#94a3b8" font-family="Arial" font-size="11">Error Rate</text>
    <text x="90" y="60" text-anchor="middle" fill="#10b981" font-family="Arial" font-size="28" font-weight="bold">0.02%</text>
    <text x="90" y="85" text-anchor="middle" fill="#94a3b8" font-family="Arial" font-size="10">Target: andlt;0.1%</text>
  </g>
  
  <g transform="translate(590, 70)">
    <rect x="0" y="0" width="180" height="100" rx="8" fill="#1e293b" stroke="#475569" stroke-width="1"/>
    <text x="90" y="25" text-anchor="middle" fill="#94a3b8" font-family="Arial" font-size="11">CPU Usage</text>
    <text x="90" y="60" text-anchor="middle" fill="#f59e0b" font-family="Arial" font-size="28" font-weight="bold">65%</text>
    <text x="90" y="85" text-anchor="middle" fill="#94a3b8" font-family="Arial" font-size="10">Healthy range</text>
  </g>
  
  <!-- Model Health Row -->
  <g transform="translate(20, 190)">
    <rect x="0" y="0" width="370" height="140" rx="8" fill="#1e293b" stroke="#8b5cf6" stroke-width="1"/>
    <text x="20" y="25" fill="#a78bfa" font-family="Arial" font-size="12" font-weight="bold">Model Performance</text>
    
    <text x="40" y="60" fill="#94a3b8" font-family="Arial" font-size="11">Avg pCTR:</text>
    <text x="150" y="60" fill="#f8fafc" font-family="Arial" font-size="11">2.1%</text>
    
    <text x="40" y="85" fill="#94a3b8" font-family="Arial" font-size="11">Calibration:</text>
    <text x="150" y="85" fill="#10b981" font-family="Arial" font-size="11">0.98 (Good)</text>
    
    <text x="40" y="110" fill="#94a3b8" font-family="Arial" font-size="11">Model Age:</text>
    <text x="150" y="110" fill="#f8fafc" font-family="Arial" font-size="11">2h 15m</text>
    
    <text x="200" y="60" fill="#94a3b8" font-family="Arial" font-size="11">AUC (last 1h):</text>
    <text x="310" y="60" fill="#10b981" font-family="Arial" font-size="11">0.782</text>
    
    <text x="200" y="85" fill="#94a3b8" font-family="Arial" font-size="11">NCE:</text>
    <text x="310" y="85" fill="#10b981" font-family="Arial" font-size="11">0.82</text>
  </g>
  
  <g transform="translate(410, 190)">
    <rect x="0" y="0" width="360" height="140" rx="8" fill="#1e293b" stroke="#10b981" stroke-width="1"/>
    <text x="20" y="25" fill="#34d399" font-family="Arial" font-size="12" font-weight="bold">Feature Health</text>
    
    <text x="40" y="60" fill="#94a3b8" font-family="Arial" font-size="11">Missing Rate:</text>
    <text x="160" y="60" fill="#10b981" font-family="Arial" font-size="11">0.1%</text>
    
    <text x="40" y="85" fill="#94a3b8" font-family="Arial" font-size="11">Staleness:</text>
    <text x="160" y="85" fill="#10b981" font-family="Arial" font-size="11">andlt; 5min</text>
    
    <text x="40" y="110" fill="#94a3b8" font-family="Arial" font-size="11">PSI Score:</text>
    <text x="160" y="110" fill="#10b981" font-family="Arial" font-size="11">0.03 (Stable)</text>
  </g>
  
  <!-- Alert section -->
  <g transform="translate(20, 350)">
    <rect x="0" y="0" width="750" height="120" rx="8" fill="#1e293b" stroke="#f59e0b" stroke-width="1"/>
    <text x="20" y="25" fill="#fbbf24" font-family="Arial" font-size="12" font-weight="bold">🔔 Recent Alerts</text>
    
    <g transform="translate(20, 45)">
      <circle cx="8" cy="8" r="6" fill="#10b981"/>
      <text x="25" y="12" fill="#94a3b8" font-family="Arial" font-size="11">12:34 - Latency spike resolved (p99 normalized)</text>
    </g>
    
    <g transform="translate(20, 70)">
      <circle cx="8" cy="8" r="6" fill="#f59e0b"/>
      <text x="25" y="12" fill="#94a3b8" font-family="Arial" font-size="11">11:15 - Feature cache miss rate elevated (investigating)</text>
    </g>
    
    <g transform="translate(20, 95)">
      <circle cx="8" cy="8" r="6" fill="#10b981"/>
      <text x="25" y="12" fill="#94a3b8" font-family="Arial" font-size="11">09:00 - Model deployment successful (v2.3.1)</text>
    </g>
  </g>
</svg>
