<svg xmlns="http://www.w3.org/2000/svg" viewBox="0 0 900 400">
  <defs>
    <linearGradient id="bgFV" x1="0%" y1="0%" x2="100%" y2="100%">
      <stop offset="0%" style="stop-color:#0f172a"/>
      <stop offset="100%" style="stop-color:#1e293b"/>
    </linearGradient>
    <filter id="shadowFV" x="-5%" y="-5%" width="110%" height="115%">
      <feDropShadow dx="0" dy="4" stdDeviation="5" flood-opacity="0.25"/>
    </filter>
  </defs>
  
  <rect width="100%" height="100%" fill="url(#bgFV)"/>
  
  <text x="450" y="35" text-anchor="middle" font-family="system-ui, sans-serif" font-size="22" font-weight="bold" fill="#f8fafc">Feature View Types</text>
  
  <!-- Batch Feature View -->
  <g filter="url(#shadowFV)">
    <rect x="50" y="70" width="250" height="290" rx="12" fill="#1e293b" stroke="#3b82f6" stroke-width="2"/>
    <rect x="50" y="70" width="250" height="45" rx="12" fill="#2563eb"/>
    <rect x="50" y="103" width="250" height="12" fill="#2563eb"/>
    <text x="175" y="100" text-anchor="middle" font-family="system-ui, sans-serif" font-size="13" font-weight="bold" fill="#f8fafc">📦 Batch Feature View</text>
    
    <text x="70" y="140" font-family="system-ui, sans-serif" font-size="11" fill="#60a5fa">Pre-computed features</text>
    
    <rect x="70" y="155" width="210" height="70" rx="6" fill="#172554"/>
    <text x="80" y="175" font-family="monospace" font-size="9" fill="#60a5fa">source: parquet/SQL</text>
    <text x="80" y="193" font-family="monospace" font-size="9" fill="#60a5fa">schedule: daily/hourly</text>
    <text x="80" y="211" font-family="monospace" font-size="9" fill="#60a5fa">latency: minutes-hours</text>
    
    <text x="70" y="245" font-family="system-ui, sans-serif" font-size="10" fill="#94a3b8">Use cases:</text>
    <text x="70" y="265" font-family="system-ui, sans-serif" font-size="10" fill="#60a5fa">• User aggregates</text>
    <text x="70" y="282" font-family="system-ui, sans-serif" font-size="10" fill="#60a5fa">• Historical stats</text>
    <text x="70" y="299" font-family="system-ui, sans-serif" font-size="10" fill="#60a5fa">• ML embeddings</text>
    
    <rect x="70" y="315" width="210" height="30" rx="6" fill="#1e3a5f"/>
    <text x="175" y="335" text-anchor="middle" font-family="system-ui, sans-serif" font-size="10" fill="#93c5fd">Spark, dbt, SQL</text>
  </g>
  
  <!-- Stream Feature View -->
  <g filter="url(#shadowFV)">
    <rect x="325" y="70" width="250" height="290" rx="12" fill="#1e293b" stroke="#8b5cf6" stroke-width="2"/>
    <rect x="325" y="70" width="250" height="45" rx="12" fill="#7c3aed"/>
    <rect x="325" y="103" width="250" height="12" fill="#7c3aed"/>
    <text x="450" y="100" text-anchor="middle" font-family="system-ui, sans-serif" font-size="13" font-weight="bold" fill="#f8fafc">⚡ Stream Feature View</text>
    
    <text x="345" y="140" font-family="system-ui, sans-serif" font-size="11" fill="#a78bfa">Real-time computed</text>
    
    <rect x="345" y="155" width="210" height="70" rx="6" fill="#2e1065"/>
    <text x="355" y="175" font-family="monospace" font-size="9" fill="#a78bfa">source: Kafka/Kinesis</text>
    <text x="355" y="193" font-family="monospace" font-size="9" fill="#a78bfa">schedule: continuous</text>
    <text x="355" y="211" font-family="monospace" font-size="9" fill="#a78bfa">latency: seconds</text>
    
    <text x="345" y="245" font-family="system-ui, sans-serif" font-size="10" fill="#94a3b8">Use cases:</text>
    <text x="345" y="265" font-family="system-ui, sans-serif" font-size="10" fill="#a78bfa">• Click velocity</text>
    <text x="345" y="282" font-family="system-ui, sans-serif" font-size="10" fill="#a78bfa">• Real-time counts</text>
    <text x="345" y="299" font-family="system-ui, sans-serif" font-size="10" fill="#a78bfa">• Session features</text>
    
    <rect x="345" y="315" width="210" height="30" rx="6" fill="#3b0764"/>
    <text x="450" y="335" text-anchor="middle" font-family="system-ui, sans-serif" font-size="10" fill="#c4b5fd">Flink, Spark Streaming</text>
  </g>
  
  <!-- On-Demand Feature View -->
  <g filter="url(#shadowFV)">
    <rect x="600" y="70" width="250" height="290" rx="12" fill="#1e293b" stroke="#f59e0b" stroke-width="2"/>
    <rect x="600" y="70" width="250" height="45" rx="12" fill="#d97706"/>
    <rect x="600" y="103" width="250" height="12" fill="#d97706"/>
    <text x="725" y="100" text-anchor="middle" font-family="system-ui, sans-serif" font-size="13" font-weight="bold" fill="#f8fafc">🎯 On-Demand View</text>
    
    <text x="620" y="140" font-family="system-ui, sans-serif" font-size="11" fill="#fbbf24">Request-time computed</text>
    
    <rect x="620" y="155" width="210" height="70" rx="6" fill="#451a03"/>
    <text x="630" y="175" font-family="monospace" font-size="9" fill="#fbbf24">source: request data</text>
    <text x="630" y="193" font-family="monospace" font-size="9" fill="#fbbf24">schedule: on-demand</text>
    <text x="630" y="211" font-family="monospace" font-size="9" fill="#fbbf24">latency: milliseconds</text>
    
    <text x="620" y="245" font-family="system-ui, sans-serif" font-size="10" fill="#94a3b8">Use cases:</text>
    <text x="620" y="265" font-family="system-ui, sans-serif" font-size="10" fill="#fbbf24">• Time since last</text>
    <text x="620" y="282" font-family="system-ui, sans-serif" font-size="10" fill="#fbbf24">• Distance calc</text>
    <text x="620" y="299" font-family="system-ui, sans-serif" font-size="10" fill="#fbbf24">• Request context</text>
    
    <rect x="620" y="315" width="210" height="30" rx="6" fill="#78350f"/>
    <text x="725" y="335" text-anchor="middle" font-family="system-ui, sans-serif" font-size="10" fill="#fcd34d">Python transforms</text>
  </g>
</svg>
