<svg xmlns="http://www.w3.org/2000/svg" viewBox="0 0 700 300">
  <defs>
    <linearGradient id="bgGrad" x1="0%" y1="0%" x2="100%" y2="100%">
      <stop offset="0%" style="stop-color:#0f172a"/>
      <stop offset="100%" style="stop-color:#1e293b"/>
    </linearGradient>
  </defs>
  
  <rect width="700" height="300" fill="url(#bgGrad)"/>
  
  <text x="350" y="35" text-anchor="middle" fill="#f8fafc" font-family="Arial, sans-serif" font-size="20" font-weight="bold">
    🖥️ Resource Allocation
  </text>
  
  <!-- Table -->
  <rect x="50" y="55" width="600" height="220" rx="12" fill="#1e293b" stroke="#6366f1" stroke-width="2"/>
  
  <!-- Header -->
  <rect x="50" y="55" width="600" height="40" rx="12 12 0 0" fill="#6366f1"/>
  <text x="140" y="82" text-anchor="middle" fill="#fff" font-family="Arial" font-size="12" font-weight="bold">Component</text>
  <text x="260" y="82" text-anchor="middle" fill="#fff" font-family="Arial" font-size="12" font-weight="bold">CPU</text>
  <text x="360" y="82" text-anchor="middle" fill="#fff" font-family="Arial" font-size="12" font-weight="bold">Memory</text>
  <text x="460" y="82" text-anchor="middle" fill="#fff" font-family="Arial" font-size="12" font-weight="bold">Storage</text>
  <text x="560" y="82" text-anchor="middle" fill="#fff" font-family="Arial" font-size="12" font-weight="bold">Network</text>
  
  <!-- Rows -->
  <g fill="#f8fafc" font-family="Arial" font-size="12">
    <text x="140" y="125" text-anchor="middle">Model Serving</text>
    <text x="260" y="125" text-anchor="middle" fill="#10b981">60%</text>
    <text x="360" y="125" text-anchor="middle" fill="#f59e0b">40%</text>
    <text x="460" y="125" text-anchor="middle" fill="#94a3b8">5%</text>
    <text x="560" y="125" text-anchor="middle" fill="#60a5fa">30%</text>
    
    <line x1="70" y1="140" x2="630" y2="140" stroke="#475569" stroke-width="1"/>
    
    <text x="140" y="165" text-anchor="middle">Feature Store</text>
    <text x="260" y="165" text-anchor="middle" fill="#94a3b8">15%</text>
    <text x="360" y="165" text-anchor="middle" fill="#10b981">40%</text>
    <text x="460" y="165" text-anchor="middle" fill="#f59e0b">30%</text>
    <text x="560" y="165" text-anchor="middle" fill="#94a3b8">25%</text>
    
    <line x1="70" y1="180" x2="630" y2="180" stroke="#475569" stroke-width="1"/>
    
    <text x="140" y="205" text-anchor="middle">Training Cluster</text>
    <text x="260" y="205" text-anchor="middle" fill="#94a3b8">20%</text>
    <text x="360" y="205" text-anchor="middle" fill="#94a3b8">15%</text>
    <text x="460" y="205" text-anchor="middle" fill="#10b981">50%</text>
    <text x="560" y="205" text-anchor="middle" fill="#94a3b8">20%</text>
    
    <line x1="70" y1="220" x2="630" y2="220" stroke="#475569" stroke-width="1"/>
    
    <text x="140" y="245" text-anchor="middle">Monitoring</text>
    <text x="260" y="245" text-anchor="middle" fill="#94a3b8">5%</text>
    <text x="360" y="245" text-anchor="middle" fill="#94a3b8">5%</text>
    <text x="460" y="245" text-anchor="middle" fill="#94a3b8">15%</text>
    <text x="560" y="245" text-anchor="middle" fill="#10b981">25%</text>
  </g>
</svg>
