<svg xmlns="http://www.w3.org/2000/svg" viewBox="0 0 700 320">
  <defs>
    <linearGradient id="bgKDD" x1="0%" y1="0%" x2="100%" y2="100%">
      <stop offset="0%" style="stop-color:#0f172a"/>
      <stop offset="100%" style="stop-color:#1e293b"/>
    </linearGradient>
    <filter id="shadowKDD" x="-10%" y="-10%" width="120%" height="130%">
      <feDropShadow dx="0" dy="4" stdDeviation="6" flood-opacity="0.3"/>
    </filter>
  </defs>
  
  <rect width="100%" height="100%" fill="url(#bgKDD)"/>
  
  <!-- Title -->
  <text x="350" y="40" text-anchor="middle" font-family="Segoe UI, sans-serif" font-size="22" font-weight="bold" fill="#f8fafc">📅 ACM SIGKDD Conference</text>
  <text x="350" y="65" text-anchor="middle" font-family="Segoe UI, sans-serif" font-size="12" fill="#94a3b8">Knowledge Discovery and Data Mining</text>
  
  <!-- Best Talks Grid -->
  <g transform="translate(50, 90)" filter="url(#shadowKDD)">
    <rect width="290" height="80" rx="12" fill="#1e293b"/>
    <rect width="290" height="35" rx="12 12 0 0" fill="#3b82f6"/>
    <text x="145" y="24" text-anchor="middle" font-family="Segoe UI, sans-serif" font-size="12" font-weight="bold" fill="#f8fafc">Wide &amp; Deep Learning</text>
    <text x="145" y="58" text-anchor="middle" font-family="Segoe UI, sans-serif" font-size="11" fill="#94a3b8">Google (2016)</text>
  </g>
  
  <g transform="translate(360, 90)" filter="url(#shadowKDD)">
    <rect width="290" height="80" rx="12" fill="#1e293b"/>
    <rect width="290" height="35" rx="12 12 0 0" fill="#10b981"/>
    <text x="145" y="24" text-anchor="middle" font-family="Segoe UI, sans-serif" font-size="12" font-weight="bold" fill="#f8fafc">DeepWalk: Social Learning</text>
    <text x="145" y="58" text-anchor="middle" font-family="Segoe UI, sans-serif" font-size="11" fill="#94a3b8">(2014)</text>
  </g>
  
  <g transform="translate(50, 185)" filter="url(#shadowKDD)">
    <rect width="290" height="80" rx="12" fill="#1e293b"/>
    <rect width="290" height="35" rx="12 12 0 0" fill="#8b5cf6"/>
    <text x="145" y="24" text-anchor="middle" font-family="Segoe UI, sans-serif" font-size="12" font-weight="bold" fill="#f8fafc">Graph Attention Networks</text>
    <text x="145" y="58" text-anchor="middle" font-family="Segoe UI, sans-serif" font-size="11" fill="#94a3b8">Google (2018)</text>
  </g>
  
  <g transform="translate(360, 185)" filter="url(#shadowKDD)">
    <rect width="290" height="80" rx="12" fill="#1e293b"/>
    <rect width="290" height="35" rx="12 12 0 0" fill="#f59e0b"/>
    <text x="145" y="24" text-anchor="middle" font-family="Segoe UI, sans-serif" font-size="12" font-weight="bold" fill="#f8fafc">Industry Day: RecSys at Scale</text>
    <text x="145" y="58" text-anchor="middle" font-family="Segoe UI, sans-serif" font-size="11" fill="#94a3b8">(Various years)</text>
  </g>
  
  <!-- Search tip -->
  <text x="350" y="295" text-anchor="middle" font-family="Segoe UI, sans-serif" font-size="11" fill="#64748b">📺 Search: "KDD recommendation" on YouTube</text>
</svg>
