<svg xmlns="http://www.w3.org/2000/svg" viewBox="0 0 850 550">
  <defs>
    <linearGradient id="metricGrad" x1="0%" y1="0%" x2="100%" y2="100%">
      <stop offset="0%" style="stop-color:#6366f1"/>
      <stop offset="100%" style="stop-color:#4f46e5"/>
    </linearGradient>
    <filter id="shadow" x="-5%" y="-5%" width="110%" height="115%">
      <feDropShadow dx="0" dy="3" stdDeviation="4" flood-opacity="0.15"/>
    </filter>
  </defs>
  
  <rect width="100%" height="100%" fill="#0f172a"/>
  
  <text x="425" y="30" text-anchor="middle" font-family="Segoe UI, sans-serif" font-size="20" font-weight="bold" fill="#f8fafc">📊 ML Serving Dashboard</text>
  
  <g filter="url(#shadow)">
    <rect x="50" y="50" width="750" height="480" rx="16" fill="#1e293b"/>
    
    <!-- Top metrics row -->
    <g transform="translate(75, 75)">
      <rect x="0" y="0" width="220" height="90" rx="12" fill="#334155"/>
      <text x="15" y="25" font-family="Segoe UI, sans-serif" font-size="12" fill="#94a3b8">Request Rate</text>
      <rect x="15" y="35" width="190" height="20" rx="4" fill="#10b981"/>
      <text x="15" y="75" font-family="Segoe UI, sans-serif" font-size="20" font-weight="bold" fill="#6ee7b7">1,234 RPS</text>
      
      <rect x="240" y="0" width="220" height="90" rx="12" fill="#334155"/>
      <text x="255" y="25" font-family="Segoe UI, sans-serif" font-size="12" fill="#94a3b8">Error Rate</text>
      <rect x="255" y="35" width="10" height="20" rx="4" fill="#ef4444"/>
      <text x="255" y="75" font-family="Segoe UI, sans-serif" font-size="20" font-weight="bold" fill="#6ee7b7">0.02%</text>
      
      <rect x="480" y="0" width="220" height="90" rx="12" fill="#334155"/>
      <text x="495" y="25" font-family="Segoe UI, sans-serif" font-size="12" fill="#94a3b8">Latency P50/P99</text>
      <text x="495" y="55" font-family="Segoe UI, sans-serif" font-size="14" fill="#f8fafc">P50: <tspan fill="#6ee7b7">23ms</tspan></text>
      <text x="495" y="75" font-family="Segoe UI, sans-serif" font-size="14" fill="#f8fafc">P99: <tspan fill="#f59e0b">87ms</tspan></text>
    </g>
    
    <!-- Prediction Distribution -->
    <g transform="translate(75, 185)">
      <rect x="0" y="0" width="700" height="110" rx="12" fill="#334155"/>
      <text x="15" y="25" font-family="Segoe UI, sans-serif" font-size="13" font-weight="bold" fill="#f8fafc">Prediction Distribution</text>
      
      <g transform="translate(15, 40)">
        <text x="0" y="14" font-family="Segoe UI, sans-serif" font-size="11" fill="#94a3b8">Class 0:</text>
        <rect x="60" y="2" width="280" height="16" rx="4" fill="#6366f1"/>
        <text x="350" y="14" font-family="Segoe UI, sans-serif" font-size="11" fill="#f8fafc">45%</text>
        
        <text x="400" y="14" font-family="Segoe UI, sans-serif" font-size="11" fill="#94a3b8">Class 1:</text>
        <rect x="460" y="2" width="150" height="16" rx="4" fill="#8b5cf6"/>
        <text x="620" y="14" font-family="Segoe UI, sans-serif" font-size="11" fill="#f8fafc">28%</text>
      </g>
      
      <g transform="translate(15, 65)">
        <text x="0" y="14" font-family="Segoe UI, sans-serif" font-size="11" fill="#94a3b8">Class 2:</text>
        <rect x="60" y="2" width="120" height="16" rx="4" fill="#ec4899"/>
        <text x="190" y="14" font-family="Segoe UI, sans-serif" font-size="11" fill="#f8fafc">22%</text>
        
        <text x="400" y="14" font-family="Segoe UI, sans-serif" font-size="11" fill="#94a3b8">Class 3:</text>
        <rect x="460" y="2" width="30" height="16" rx="4" fill="#f59e0b"/>
        <text x="500" y="14" font-family="Segoe UI, sans-serif" font-size="11" fill="#f8fafc">5%</text>
      </g>
    </g>
    
    <!-- GPU and Confidence -->
    <g transform="translate(75, 315)">
      <rect x="0" y="0" width="340" height="90" rx="12" fill="#334155"/>
      <text x="15" y="25" font-family="Segoe UI, sans-serif" font-size="13" font-weight="bold" fill="#f8fafc">GPU Utilization</text>
      <rect x="15" y="40" width="230" height="20" rx="4" fill="#475569"/>
      <rect x="15" y="40" width="165" height="20" rx="4" fill="#76b900"/>
      <text x="260" y="55" font-family="Segoe UI, sans-serif" font-size="14" font-weight="bold" fill="#6ee7b7">72%</text>
      <text x="15" y="78" font-family="Segoe UI, sans-serif" font-size="10" fill="#94a3b8">GPU 0: 75%  •  GPU 1: 69%</text>
      
      <rect x="360" y="0" width="340" height="90" rx="12" fill="#334155"/>
      <text x="375" y="25" font-family="Segoe UI, sans-serif" font-size="13" font-weight="bold" fill="#f8fafc">Model Confidence</text>
      <text x="375" y="55" font-family="Segoe UI, sans-serif" font-size="14" fill="#f8fafc">Mean: <tspan fill="#6ee7b7">0.87</tspan></text>
      <text x="375" y="78" font-family="Segoe UI, sans-serif" font-size="10" fill="#94a3b8">P10: 0.62  •  P90: 0.96</text>
    </g>
    
    <!-- Feature Drift -->
    <g transform="translate(75, 425)">
      <rect x="0" y="0" width="700" height="80" rx="12" fill="#334155"/>
      <text x="15" y="25" font-family="Segoe UI, sans-serif" font-size="13" font-weight="bold" fill="#f8fafc">Feature Drift Status</text>
      
      <g transform="translate(15, 45)">
        <text x="0" y="14" font-family="Segoe UI, sans-serif" font-size="11" fill="#6ee7b7">✓ user_age: OK</text>
        <text x="140" y="14" font-family="Segoe UI, sans-serif" font-size="11" fill="#fcd34d">⚠ purchase_count: DRIFT</text>
        <text x="350" y="14" font-family="Segoe UI, sans-serif" font-size="11" fill="#6ee7b7">✓ location: OK</text>
        <text x="490" y="14" font-family="Segoe UI, sans-serif" font-size="11" fill="#6ee7b7">✓ session_length: OK</text>
      </g>
    </g>
  </g>
</svg>
