<svg xmlns="http://www.w3.org/2000/svg" viewBox="0 0 750 450">
  <defs>
    <linearGradient id="criticalGrad" x1="0%" y1="0%" x2="100%" y2="100%">
      <stop offset="0%" style="stop-color:#ef4444"/>
      <stop offset="100%" style="stop-color:#dc2626"/>
    </linearGradient>
    <linearGradient id="warningGrad" x1="0%" y1="0%" x2="100%" y2="100%">
      <stop offset="0%" style="stop-color:#f59e0b"/>
      <stop offset="100%" style="stop-color:#d97706"/>
    </linearGradient>
    <linearGradient id="infoGrad" x1="0%" y1="0%" x2="100%" y2="100%">
      <stop offset="0%" style="stop-color:#3b82f6"/>
      <stop offset="100%" style="stop-color:#1d4ed8"/>
    </linearGradient>
    <filter id="shadow" x="-5%" y="-5%" width="110%" height="115%">
      <feDropShadow dx="0" dy="3" stdDeviation="4" flood-opacity="0.15"/>
    </filter>
  </defs>
  
  <rect width="100%" height="100%" fill="#0f172a"/>
  
  <text x="375" y="30" text-anchor="middle" font-family="Segoe UI, sans-serif" font-size="20" font-weight="bold" fill="#f8fafc">🚨 Alert Severity Levels</text>
  
  <g filter="url(#shadow)">
    <rect x="50" y="55" width="650" height="380" rx="16" fill="#1e293b"/>
    
    <!-- Critical -->
    <g transform="translate(75, 80)">
      <rect x="0" y="0" width="600" height="100" rx="12" fill="#334155"/>
      <rect x="0" y="0" width="8" height="100" rx="12 0 0 12" fill="url(#criticalGrad)"/>
      <text x="25" y="30" font-family="Segoe UI, sans-serif" font-size="15" font-weight="bold" fill="#fca5a5">🔴 CRITICAL (Page immediately)</text>
      
      <g transform="translate(25, 50)">
        <text x="0" y="0" font-family="Segoe UI, sans-serif" font-size="12" fill="#94a3b8">• Service completely down</text>
        <text x="200" y="0" font-family="Segoe UI, sans-serif" font-size="12" fill="#94a3b8">• Error rate andgt; 10%</text>
        <text x="380" y="0" font-family="Segoe UI, sans-serif" font-size="12" fill="#94a3b8">• Latency P99 andgt; 5× SLO</text>
      </g>
    </g>
    
    <!-- Warning -->
    <g transform="translate(75, 200)">
      <rect x="0" y="0" width="600" height="100" rx="12" fill="#334155"/>
      <rect x="0" y="0" width="8" height="100" rx="12 0 0 12" fill="url(#warningGrad)"/>
      <text x="25" y="30" font-family="Segoe UI, sans-serif" font-size="15" font-weight="bold" fill="#fcd34d">🟡 WARNING (Slack/Email, business hours)</text>
      
      <g transform="translate(25, 50)">
        <text x="0" y="0" font-family="Segoe UI, sans-serif" font-size="12" fill="#94a3b8">• Error rate andgt; 1%</text>
        <text x="160" y="0" font-family="Segoe UI, sans-serif" font-size="12" fill="#94a3b8">• Latency P99 andgt; 2× SLO</text>
        <text x="0" y="25" font-family="Segoe UI, sans-serif" font-size="12" fill="#94a3b8">• Significant model drift</text>
        <text x="200" y="25" font-family="Segoe UI, sans-serif" font-size="12" fill="#94a3b8">• GPU memory andgt; 80%</text>
      </g>
    </g>
    
    <!-- Info -->
    <g transform="translate(75, 320)">
      <rect x="0" y="0" width="600" height="100" rx="12" fill="#334155"/>
      <rect x="0" y="0" width="8" height="100" rx="12 0 0 12" fill="url(#infoGrad)"/>
      <text x="25" y="30" font-family="Segoe UI, sans-serif" font-size="15" font-weight="bold" fill="#60a5fa">🔵 INFO (Dashboard/Log only)</text>
      
      <g transform="translate(25, 50)">
        <text x="0" y="0" font-family="Segoe UI, sans-serif" font-size="12" fill="#94a3b8">• Minor drift detected</text>
        <text x="180" y="0" font-family="Segoe UI, sans-serif" font-size="12" fill="#94a3b8">• Traffic patterns changed</text>
        <text x="400" y="0" font-family="Segoe UI, sans-serif" font-size="12" fill="#94a3b8">• New model deployed</text>
      </g>
    </g>
  </g>
</svg>
