<svg xmlns="http://www.w3.org/2000/svg" viewBox="0 0 900 600">
  <defs>
    <linearGradient id="blueGrad" x1="0%" y1="0%" x2="100%" y2="100%">
      <stop offset="0%" style="stop-color:#667eea;stop-opacity:1" />
      <stop offset="100%" style="stop-color:#764ba2;stop-opacity:1" />
    </linearGradient>
    <linearGradient id="greenGrad" x1="0%" y1="0%" x2="100%" y2="100%">
      <stop offset="0%" style="stop-color:#11998e;stop-opacity:1" />
      <stop offset="100%" style="stop-color:#38ef7d;stop-opacity:1" />
    </linearGradient>
    <linearGradient id="orangeGrad" x1="0%" y1="0%" x2="100%" y2="100%">
      <stop offset="0%" style="stop-color:#f093fb;stop-opacity:1" />
      <stop offset="100%" style="stop-color:#f5576c;stop-opacity:1" />
    </linearGradient>
    <linearGradient id="purpleGrad" x1="0%" y1="0%" x2="100%" y2="100%">
      <stop offset="0%" style="stop-color:#4facfe;stop-opacity:1" />
      <stop offset="100%" style="stop-color:#00f2fe;stop-opacity:1" />
    </linearGradient>
    <filter id="shadow" x="-20%" y="-20%" width="140%" height="140%">
      <feDropShadow dx="2" dy="4" stdDeviation="3" flood-opacity="0.2"/>
    </filter>
  </defs>
  
  <!-- Background -->
  <rect width="900" height="600" fill="#0f0f23"/>
  
  <!-- Title -->
  <text x="450" y="40" text-anchor="middle" fill="#f8fafc" font-family="Arial, sans-serif" font-size="24" font-weight="bold">Search Ranking System Architecture</text>
  
  <!-- User Query -->
  <rect x="380" y="60" width="140" height="45" rx="22" fill="url(#blueGrad)" filter="url(#shadow)"/>
  <text x="450" y="88" text-anchor="middle" fill="#f8fafc" font-family="Arial, sans-serif" font-size="14" font-weight="bold">User Query</text>
  
  <!-- Arrow down -->
  <path d="M450 105 L450 130 L445 125 M450 130 L455 125" stroke="#667eea" stroke-width="2" fill="none"/>
  
  <!-- Query Understanding Box -->
  <rect x="100" y="140" width="700" height="90" rx="10" fill="#f8fafc" stroke="#667eea" stroke-width="2" filter="url(#shadow)"/>
  <text x="450" y="165" text-anchor="middle" fill="#667eea" font-family="Arial, sans-serif" font-size="16" font-weight="bold">Query Understanding</text>
  
  <rect x="120" y="180" width="130" height="35" rx="5" fill="#252547"/>
  <text x="185" y="202" text-anchor="middle" fill="#a5b4fc" font-family="Arial, sans-serif" font-size="11">Spell Correction</text>
  
  <rect x="270" y="180" width="130" height="35" rx="5" fill="#252547"/>
  <text x="335" y="202" text-anchor="middle" fill="#a5b4fc" font-family="Arial, sans-serif" font-size="11">Intent Classification</text>
  
  <rect x="420" y="180" width="130" height="35" rx="5" fill="#252547"/>
  <text x="485" y="202" text-anchor="middle" fill="#a5b4fc" font-family="Arial, sans-serif" font-size="11">NER</text>
  
  <rect x="570" y="180" width="130" height="35" rx="5" fill="#252547"/>
  <text x="635" y="202" text-anchor="middle" fill="#a5b4fc" font-family="Arial, sans-serif" font-size="11">Query Expansion</text>
  
  <!-- Arrow down -->
  <path d="M450 230 L450 255 L445 250 M450 255 L455 250" stroke="#11998e" stroke-width="2" fill="none"/>
  
  <!-- Retrieval Box -->
  <rect x="100" y="265" width="700" height="110" rx="10" fill="#f8fafc" stroke="#11998e" stroke-width="2" filter="url(#shadow)"/>
  <text x="450" y="290" text-anchor="middle" fill="#11998e" font-family="Arial, sans-serif" font-size="16" font-weight="bold">Retrieval Stage</text>
  
  <rect x="150" y="305" width="180" height="55" rx="8" fill="url(#greenGrad)" filter="url(#shadow)"/>
  <text x="240" y="328" text-anchor="middle" fill="#f8fafc" font-family="Arial, sans-serif" font-size="12" font-weight="bold">Inverted Index</text>
  <text x="240" y="345" text-anchor="middle" fill="#f8fafc" font-family="Arial, sans-serif" font-size="10">(BM25 / TF-IDF)</text>
  
  <rect x="570" y="305" width="180" height="55" rx="8" fill="url(#greenGrad)" filter="url(#shadow)"/>
  <text x="660" y="328" text-anchor="middle" fill="#f8fafc" font-family="Arial, sans-serif" font-size="12" font-weight="bold">Vector Index</text>
  <text x="660" y="345" text-anchor="middle" fill="#f8fafc" font-family="Arial, sans-serif" font-size="10">(ANN / HNSW)</text>
  
  <text x="450" y="345" text-anchor="middle" fill="#38ef7d" font-family="Arial, sans-serif" font-size="24">+</text>
  
  <!-- Arrow down -->
  <path d="M450 375 L450 400 L445 395 M450 400 L455 395" stroke="#f5576c" stroke-width="2" fill="none"/>
  
  <!-- Ranking Box -->
  <rect x="100" y="410" width="700" height="110" rx="10" fill="#f8fafc" stroke="#f5576c" stroke-width="2" filter="url(#shadow)"/>
  <text x="450" y="435" text-anchor="middle" fill="#f5576c" font-family="Arial, sans-serif" font-size="16" font-weight="bold">Ranking Stage</text>
  
  <rect x="120" y="450" width="150" height="55" rx="8" fill="url(#orangeGrad)" filter="url(#shadow)"/>
  <text x="195" y="475" text-anchor="middle" fill="#f8fafc" font-family="Arial, sans-serif" font-size="12" font-weight="bold">Feature Store</text>
  <text x="195" y="492" text-anchor="middle" fill="#f8fafc" font-family="Arial, sans-serif" font-size="9">Query + Doc + User</text>
  
  <rect x="290" y="450" width="150" height="55" rx="8" fill="url(#orangeGrad)" filter="url(#shadow)"/>
  <text x="365" y="475" text-anchor="middle" fill="#f8fafc" font-family="Arial, sans-serif" font-size="12" font-weight="bold">ML Ranker</text>
  <text x="365" y="492" text-anchor="middle" fill="#f8fafc" font-family="Arial, sans-serif" font-size="9">LambdaMART / BERT</text>
  
  <rect x="460" y="450" width="150" height="55" rx="8" fill="url(#orangeGrad)" filter="url(#shadow)"/>
  <text x="535" y="475" text-anchor="middle" fill="#f8fafc" font-family="Arial, sans-serif" font-size="12" font-weight="bold">Re-Ranker</text>
  <text x="535" y="492" text-anchor="middle" fill="#f8fafc" font-family="Arial, sans-serif" font-size="9">Cross-Encoder</text>
  
  <rect x="630" y="450" width="150" height="55" rx="8" fill="url(#orangeGrad)" filter="url(#shadow)"/>
  <text x="705" y="475" text-anchor="middle" fill="#f8fafc" font-family="Arial, sans-serif" font-size="12" font-weight="bold">Business Rules</text>
  <text x="705" y="492" text-anchor="middle" fill="#f8fafc" font-family="Arial, sans-serif" font-size="9">Boost / Filter</text>
  
  <!-- Arrow down -->
  <path d="M450 520 L450 545 L445 540 M450 545 L455 540" stroke="#4facfe" stroke-width="2" fill="none"/>
  
  <!-- Results -->
  <rect x="350" y="555" width="200" height="35" rx="17" fill="url(#purpleGrad)" filter="url(#shadow)"/>
  <text x="450" y="578" text-anchor="middle" fill="#f8fafc" font-family="Arial, sans-serif" font-size="14" font-weight="bold">🎯 Ranked Results</text>
  
  <!-- Scale indicators -->
  <text x="80" y="330" text-anchor="end" fill="#6b7280" font-family="Arial, sans-serif" font-size="10">Billions → 1000s</text>
  <text x="80" y="480" text-anchor="end" fill="#6b7280" font-family="Arial, sans-serif" font-size="10">1000s → Top 10</text>
</svg>

